<mxfile host="65bd71144e">
    <diagram id="QewX8ZrJj1PhDHS1zCUB" name="Page-1">
        <mxGraphModel dx="671" dy="313" grid="1" gridSize="10" guides="0" tooltips="1" connect="1" arrows="1" fold="1" page="1" pageScale="1" pageWidth="827" pageHeight="1169" math="0" shadow="0">
            <root>
                <mxCell id="0"/>
                <mxCell id="1" parent="0"/>
                <mxCell id="wVi8VqOXP0ZIYO8jfO_L-32" value="" style="sketch=0;points=[[0,0,0],[0.25,0,0],[0.5,0,0],[0.75,0,0],[1,0,0],[1,0.25,0],[1,0.5,0],[1,0.75,0],[1,1,0],[0.75,1,0],[0.5,1,0],[0.25,1,0],[0,1,0],[0,0.75,0],[0,0.5,0],[0,0.25,0]];rounded=1;absoluteArcSize=1;arcSize=2;html=1;strokeColor=#b85450;shadow=0;dashed=0;fontSize=12;align=left;verticalAlign=top;spacing=10;spacingTop=-4;whiteSpace=wrap;fillColor=#f8cecc;" parent="1" vertex="1">
                    <mxGeometry x="540" y="157.5" width="200" height="105" as="geometry"/>
                </mxCell>
                <mxCell id="14" value="" style="edgeStyle=none;html=1;entryX=1;entryY=0.5;entryDx=0;entryDy=0;endArrow=block;endFill=1;exitX=0;exitY=0.5;exitDx=0;exitDy=0;" parent="1" source="5" target="4" edge="1">
                    <mxGeometry relative="1" as="geometry">
                        <mxPoint x="510" y="210" as="targetPoint"/>
                    </mxGeometry>
                </mxCell>
                <mxCell id="wVi8VqOXP0ZIYO8jfO_L-30" style="edgeStyle=orthogonalEdgeStyle;rounded=0;orthogonalLoop=1;jettySize=auto;html=1;exitX=0.5;exitY=0;exitDx=0;exitDy=0;entryX=0.5;entryY=1;entryDx=0;entryDy=0;" parent="1" source="5" target="wVi8VqOXP0ZIYO8jfO_L-26" edge="1">
                    <mxGeometry relative="1" as="geometry"/>
                </mxCell>
                <mxCell id="19" style="edgeStyle=none;html=1;exitX=0;exitY=0.5;exitDx=0;exitDy=0;entryX=1;entryY=0.5;entryDx=0;entryDy=0;" edge="1" parent="1" source="5" target="15">
                    <mxGeometry relative="1" as="geometry"/>
                </mxCell>
                <mxCell id="5" value="&lt;b&gt;switchbot-meter-database&lt;/b&gt;&lt;div&gt;&lt;b&gt;&lt;br&gt;&lt;/b&gt;&lt;/div&gt;&lt;div&gt;&lt;b&gt;&lt;br&gt;&lt;/b&gt;&lt;/div&gt;" style="rounded=1;whiteSpace=wrap;html=1;align=left;spacingLeft=5;fillColor=#dae8fc;strokeColor=#6c8ebf;" parent="1" vertex="1">
                    <mxGeometry x="560" y="180" width="160" height="60" as="geometry"/>
                </mxCell>
                <mxCell id="wVi8VqOXP0ZIYO8jfO_L-29" style="rounded=0;orthogonalLoop=1;jettySize=auto;html=1;exitX=1;exitY=0.5;exitDx=0;exitDy=0;entryX=0;entryY=0.5;entryDx=0;entryDy=0;" parent="1" source="3" target="4" edge="1">
                    <mxGeometry relative="1" as="geometry"/>
                </mxCell>
                <mxCell id="18" style="edgeStyle=none;html=1;exitX=1;exitY=0.5;exitDx=0;exitDy=0;entryX=0;entryY=0.5;entryDx=0;entryDy=0;" edge="1" parent="1" source="3" target="15">
                    <mxGeometry relative="1" as="geometry"/>
                </mxCell>
                <mxCell id="3" value="&lt;b&gt;Grafana&lt;/b&gt;" style="rounded=1;whiteSpace=wrap;html=1;align=left;spacingLeft=6;fillColor=#dae8fc;strokeColor=#6c8ebf;" parent="1" vertex="1">
                    <mxGeometry x="220" y="180" width="120" height="60" as="geometry"/>
                </mxCell>
                <mxCell id="6" value="" style="shape=image;verticalLabelPosition=bottom;labelBackgroundColor=default;verticalAlign=top;aspect=fixed;imageAspect=0;image=https://cdn.icon-icons.com/icons2/2699/PNG/512/grafana_logo_icon_171048.png;" parent="1" vertex="1">
                    <mxGeometry x="280" y="190" width="40" height="40" as="geometry"/>
                </mxCell>
                <mxCell id="4" value="&lt;b&gt;InfluxDB&lt;/b&gt;" style="rounded=1;whiteSpace=wrap;html=1;align=left;spacingLeft=5;fillColor=#dae8fc;strokeColor=#6c8ebf;" parent="1" vertex="1">
                    <mxGeometry x="390" y="140" width="120" height="60" as="geometry"/>
                </mxCell>
                <mxCell id="7" value="" style="shape=image;verticalLabelPosition=bottom;labelBackgroundColor=default;verticalAlign=top;aspect=fixed;imageAspect=0;image=https://assets.zabbix.com/img/brands/influxdb.svg;" parent="1" vertex="1">
                    <mxGeometry x="460" y="150" width="40" height="40" as="geometry"/>
                </mxCell>
                <mxCell id="wVi8VqOXP0ZIYO8jfO_L-26" value="&lt;b&gt;SwitchBot API&lt;/b&gt;&lt;div&gt;&lt;b&gt;&lt;br&gt;&lt;/b&gt;&lt;/div&gt;&lt;div&gt;&lt;b&gt;&lt;br&gt;&lt;/b&gt;&lt;/div&gt;" style="rounded=1;whiteSpace=wrap;html=1;align=left;spacingLeft=5;fillColor=#dae8fc;strokeColor=#6c8ebf;" parent="1" vertex="1">
                    <mxGeometry x="580" y="20" width="120" height="80" as="geometry"/>
                </mxCell>
                <mxCell id="wVi8VqOXP0ZIYO8jfO_L-27" value="Dashboard" style="sketch=0;aspect=fixed;pointerEvents=1;shadow=0;dashed=0;html=1;strokeColor=none;labelPosition=center;verticalLabelPosition=bottom;verticalAlign=top;align=center;fillColor=#00188D;shape=mxgraph.mscae.general.graph" parent="1" vertex="1">
                    <mxGeometry x="130" y="185" width="50" height="50" as="geometry"/>
                </mxCell>
                <mxCell id="wVi8VqOXP0ZIYO8jfO_L-28" value="User" style="verticalLabelPosition=bottom;html=1;verticalAlign=top;align=center;strokeColor=none;fillColor=#00BEF2;shape=mxgraph.azure.user;" parent="1" vertex="1">
                    <mxGeometry x="40" y="145" width="47.5" height="50" as="geometry"/>
                </mxCell>
                <mxCell id="wVi8VqOXP0ZIYO8jfO_L-33" style="rounded=0;orthogonalLoop=1;jettySize=auto;html=1;exitX=0;exitY=0.5;exitDx=0;exitDy=0;entryX=1;entryY=0.5;entryDx=0;entryDy=0;entryPerimeter=0;" parent="1" source="3" target="wVi8VqOXP0ZIYO8jfO_L-27" edge="1">
                    <mxGeometry relative="1" as="geometry"/>
                </mxCell>
                <mxCell id="wVi8VqOXP0ZIYO8jfO_L-34" style="rounded=0;orthogonalLoop=1;jettySize=auto;html=1;entryX=0;entryY=0.5;entryDx=0;entryDy=0;entryPerimeter=0;" parent="1" source="wVi8VqOXP0ZIYO8jfO_L-28" target="wVi8VqOXP0ZIYO8jfO_L-27" edge="1">
                    <mxGeometry relative="1" as="geometry"/>
                </mxCell>
                <mxCell id="wVi8VqOXP0ZIYO8jfO_L-36" style="rounded=0;orthogonalLoop=1;jettySize=auto;html=1;entryX=0;entryY=0.5;entryDx=0;entryDy=0;" parent="1" source="wVi8VqOXP0ZIYO8jfO_L-35" target="wVi8VqOXP0ZIYO8jfO_L-26" edge="1">
                    <mxGeometry relative="1" as="geometry"/>
                </mxCell>
                <mxCell id="wVi8VqOXP0ZIYO8jfO_L-35" value="SwitchBot&lt;div&gt;Meter &amp;amp; Hub&lt;/div&gt;" style="sketch=0;outlineConnect=0;fontColor=#232F3E;gradientColor=none;fillColor=#7AA116;strokeColor=none;dashed=0;verticalLabelPosition=bottom;verticalAlign=top;align=center;html=1;fontSize=12;fontStyle=0;aspect=fixed;pointerEvents=1;shape=mxgraph.aws4.iot_thing_temperature_humidity_sensor;" parent="1" vertex="1">
                    <mxGeometry x="40" y="32" width="58" height="58" as="geometry"/>
                </mxCell>
                <mxCell id="15" value="&lt;b&gt;MongoDB&lt;/b&gt;" style="rounded=1;whiteSpace=wrap;html=1;align=left;spacingLeft=5;fillColor=#dae8fc;strokeColor=#6c8ebf;" vertex="1" parent="1">
                    <mxGeometry x="390" y="222.5" width="120" height="60" as="geometry"/>
                </mxCell>
                <mxCell id="20" value="or" style="text;html=1;align=center;verticalAlign=middle;resizable=0;points=[];autosize=1;strokeColor=none;fillColor=none;" vertex="1" parent="1">
                    <mxGeometry x="415" y="198" width="30" height="30" as="geometry"/>
                </mxCell>
                <mxCell id="21" value="" style="shape=image;verticalLabelPosition=bottom;labelBackgroundColor=default;verticalAlign=top;aspect=fixed;imageAspect=0;image=data:image/png,iVBORw0KGgoAAAANSUhEUgAAAgAAAAIACAYAAAD0eNT6AAAAAXNSR0IArs4c6QAAAERlWElmTU0AKgAAAAgAAYdpAAQAAAABAAAAGgAAAAAAA6ABAAMAAAABAAEAAKACAAQAAAABAAACAKADAAQAAAABAAACAAAAAAAL+LWFAABAAElEQVR4Aey9C5Bt11keePZ5dPd9SLJlGWMMQgbbMjGWbMuShccWNpZsy+YVQE4AQzCPAUKoSSZJMSEEpkKRIlNMqJmBgmGgHD8KEmFgIOBMDZOQApIQiIkhGHAIwaQwlmNsGfnq3u4+5+w9/7fW/tb+9jp7n9vdt0/36T7/qrq9/vda+z+2vvWvtR+DgTfPgGfAM+AZ8Ax4BjwDngHPgGfAM+AZ8Ax4BjwDngHPgGfAM+AZ8Ax4BjwDngHPgGfAM+AZ8Ax4BjwDngHPgGfAM+AZ8Ax4BjwDngHPgGfAM+AZ8Ax4BjwDngHPgGfAM+AZ8Ax4BjwDngHPgGfAM+AZ8Ax4BjwDngHPgGfAM+AZ8Ax4BjwDngHPgGfAM+AZ8Ax4BjwDngHPgGfAM+AZ8Ax4BjwDngHPgGfAM+AZ8Ax4BjwDngHPgGfgyBl45NHX3fq6n3j5G48cwB09A56Bc5GB4bm4Cr8Iz4Bn4MAZ2N4ZPXjL9k3//YEd3NAz4Bk4lxnwBcC5/Fn9ojwD/RkYDiZ374y3X/c1v/DIJ/dbucYz4Bk47xnwBcB5/4X9+jwDWQbKavbpEO3Pnvz6TOWsZ8AzsEEZ8AXABv3YfqmeAWRgfz67Cf1kOP4f0HvzDHgGNjMDvgDYzN/dr3qDM3Bxsv08XH4xGNzmNwNu8P8Q/NI3PgO+ANj4/wl4AjYpAw+/+znbZTV4Nq7Z+r3tYvI3N+n6/Vo9A56BJgO+AGhy4ZRn4Nxn4BX7r3+VXuTudPeuV//YS79UZU57BjwDm5EBXwBsxu/sV+kZCBl4X/Ff7h0Wg22mYzKebI+LwXeT994z4BnYnAz4AmBzfmu/Us+AnfsXD2Prn6mY7u9fHgyHdz70znvfTJn3ngHPwGZkwBcAm/E7+1V6BgZf+K4HXjwqRvdoKsZb413w1bz4jkceHYxU57RnwDNwvjPgC4Dz/fv61XkGUgZunty0cMPfdH8W9PYfgjsf33/ZX0nGTngGPAPnPgP2JJA3z4Bn4LxnAG/9K+d7H8iv82NXH6/2dve2grwa/NfxMz72/H/+hv+cjghye+c9A56B85MB3wE4P7+lX4lnoDcDs9nV7+tSzqr5JyAvisGwGA7u2PuzW9/SZecyz4Bn4PxlwBcA5+839SvyDLQy8NC7XvbcYTH6spawZi5tXXwcZFXZawHs32hQfEeXncs8A56B85cBXwCcv9/Ur8gz0MrAMyZP+79aAmFm89lVsNgBCH1VPevBt973rWLipGfAM3BOM+ALgHP6w/pleQaQgS/7qYe+fliM7+/LxoXJTlgAtPRV9Z2vfftdl1oyZzwDnoFzlwFfAJy7n9QvyDMQM4Ab/y5OLvzAsnyU5XyqehwDDEfFbeVw23cBNDFOewbOYQZ8AXAOf1S/JM8AMjCbPflPrpeJrfFkMNneGgL4YYujgEDPim9/8NF7brmev+s9A56Bs5sBXwCc3d/OZ+4Z6M3Am376dT+7bOufjtWgmEz39tvgb0p7PvhSMRt/G+289wx4Bs5fBnwBcP5+U7+iDc/AV/zfD//Qznj7dQdJw2Q4uhU7ALBF5c+bAYPvtPobjzz6ulsPEsdtPAOegbOXAV8AnL3fzGfsGejNwFf87Bu+YzycHPhZfnv27wJ3APKjgEE12PrYkx/9u72DucIz4Bk40xnwNwGe6Z/PJ+8ZaDLw5p97w5vGxfif6sd+Gm03ZRX/Jz5y5WO3cREAK94HEPrBYHd3OP+MX/mq93yoO4JLPQOegbOaAd8BOKu/nM/bMyAZAPgPB+O3Hwb84W7b/jcp+NeycBQQbga0XYCdwei7ZCgnPQOegXOSAV8AnJMf0i9jczNA8D9qBi5cuvBnPPvvuh+gKAff+OofufsFR43vfp4Bz8B6ZsAXAOv5u/isPAMHysCNgj8Gmc1mnwjVvtG6G8CbAtGPt7d/5EATciPPgGfgzGTAFwBn5qfyiXoG2hkIb/mzbf+29PDc5e1LV+CV7wJAxkWA3RB4/0PvvPfNkHnzDHgGzkcGfAFwPn5Hv4oNy8BX/9wXfc/13vJ30JTMytkV3vgHH90FoDz0+4Pv95cDHTSrbucZWP8M+AJg/X8jn6FnoJWBN//sG99ptfnfbAlvgLkwuZCeBsp3AXg0gPDFsLh18OTwB29gKHf1DHgG1igD6f/4azQnn4pnwDPQkYFHHh2Mtrff8C8O8oa/Dvde0ZO7V/7dE1evvAI3AGr1TwfuAoAHvT+dPfyvvv43/x/qvfcMeAbOZgZ8B+Bs/m4+6w3LALbet7bf+MvHDf5I4872hTGAPQf/ricCYD/Zmvzoa95239NAe/MMeAbObgZ8AXB2fzuf+YZkAF/1+9QLz/q1UTG6ZxWXPJ3tT3Wrn8CvCwLeDBjsyuqZw/Hw7auYi8f0DHgGTi4DvgA4uVz7SJ6BQ2cgvIu/3Pslc3z+oZ0P6DAZb0149g8XBX4uBiDnIgD0YFq+/sG3vvR/DrT/8Qx4Bs5kBnwBcCZ/Np/0JmQAlf+lC9v/2t7u9+zDvuHvMPmpynIX4E6wX7YYCDsAFhw2RTH8e69/x/2vOsxYbusZ8AysTwZ8AbA+v4XPxDOQMnASlT8HK4bDHb0HQBcDtEHPnQHYcjdgNi9/7oEfftFz1c5pz4Bn4GxkwBcAZ+N38lluUAZww99JVP5MaTGopqTZE+zBY2eAuwIEf8ixCBgWg5u2L27/0ivfcc8zIfPmGfAMnJ0M+ALg7PxWPtMNyADA/5nbz/xlu9SVnfnnaawGhd0GsBXEBHq1wWKAW//57kCQ202B2+Xol/wlQZo1pz0D658BXwCs/2/kM9yQDLz27XddAvjb2fqdqzzz70onK34uBGDDewJoT562kHPBYP8huXP85NYv4hpo771nwDOw3hnwBcB6/z4+uw3JAKrnZ9xy+78B+J/0JU+Go1vH25PwUjAFd6UxJ+UJ/JwrdgLK4fze+Xz73XhhEeXeewY8A+ubAV8ArO9v4zPbkAzghj88538a4I8Ubz852Z3tTSumm5W+gjxltOFOAYBf7UbD4oGP777sUdp57xnwDKxvBnwBsL6/jc9sAzIA8McNf3apJ3bmn6d179I0PAVAOSt9Pe+nLLcB+If7AGpFoMvqix986732vQJvngHPwDpnwBcA6/zr+NzOdQZO6jn/wyRRq3n45cDPnQDaEfy5EKB8OCy+0hcBh8m823oGTj4DvgA4+Zz7iJ6BAcC/nO/+mqXi1Cp//Rl0S58gr3oCOxcEtIcN7LkQQN8sBoovf/Cd9/3vGsdpz4BnYH0y4F8DXJ/fwmeyARnADXKXLj3y9IG93hdv+FuHS7Zn+f/ogx997Hn5XADsBHylczvlG/BvXhY0L8t/9C/e8u+P7fPFOp7TngHPwNEz4DsAR8+de3oGDp2Bx3df8ax1qvxxAXb3321dVT/BHzakczvlCf4hpuwEDIvhX/fvBiAr3jwD65UB3wFYr9/DZ3NOM8DKv5rvvdcA9ynrdZnVYx/62Ic/jXPKq/2cp11XT1suBrSfTed/+19+/Xu+r8vPZZ4Bz8DJZ8B3AE4+5z7iBmYAlT/A3wDxGet2+UVRXNJKntU+55nzagsb5WnLewIYA/1oPPqHD771vm9VmdOeAc/A6WXAX9hxern3kTckA3/nF77hecVO+e+s8r/F/s3X7bJtUbL/xJU/v2jzqlCxo8ccAexVOccuYeLL+dxE88DTljx82OALudnQP8Q2/uFP/5JnffiPfuaD/5623nsGPAOnkwHfATidvPuoG5IBgP+flh/+14aCt63rJVu1fhPv6kflzooe1bxW8qzucR1hcWC2vCb6kKetxgONf+Nq8EMPvvNlX0tb7z0DnoHTyYDfA3A6efdRNyADeMnP9vbop4fF+P51v9zHHn9sW8E+ny8AnqCe65SnHXYHuuJRHvpR9VW/+Obf8BcGaQKd9gycYAZ8B+AEk+1DbVYGJpPhT+6Xs8+dV/P3rPuV71y8qNv6Ybpa1RP8VQajnKcdwF91AHzYQ85FwGBWvO1VP/qS10PuzTPgGTj5DPgC4ORz7iNuQAa+4mff8B2zav4ALnVUjD5n3RcB165e3cNcFbgJ5pCz5TLyBHjaoacOCwHuBhD8aT+ZjH/mVW99ydrvkOh1Oe0ZOC8Z8AXAefkl/TrWJgMP/vjLXjGbz77Lbn8bY1K7891iVAyftTYT7JjIhYsX0n8LCNww66riVUYbAnyug57xdCHAnQC7vXBrXIz/31f/yN0vgK03z4Bn4OQy4PcAnFyufaQNyADO/Qej8veKYfFJBm4zLgIujndw9b+/Lm//y3+Kx/78w1eqefVUVui5HuBNIKeuS0Yd+mX6hXGGxYd2i9m9v/JV7/mQxnDaM+AZWF0G0qp/dUN4ZM/A5mSgGJU/bc/V35quGIsAa1dnu4NZOftwkq8ZsbN9YWyLlX0+DYDpcZsedA7+XTIAPuRs9NE4tEk7ADQuq2dul6NfevDRe26hyHvPgGdgtRlo/R92tUN5dM/A+c0A3vSHc//BsPjcUPXX1f/OeGcUdgLs0ofF6I51zcB0vv+kbQfuELQxT4A0AVvnrTKl6asy+OmiQm14bMAFgv3H6M7xk1u/+PC7n7Ot4zntGfAMrCYDvgBYTV496oZl4PHZyz7HKvzvDpddV/2gcf6fFgSD4nZ8eGcdU3N569K4Bci2GwAgJ2BjzgR2lSnN68plOQ87yngUwL4czu+dPX7bT2NBxXjeewY8A6vJgC8AVpNXj7pBGcCnfW+9cMs/C5ecV/5cDNgNgQb+xboeAzy5f/UT/MlCxW435xGkKc95ytFzccBqnjrK+2x4FMDFB+wsSW94/Ml738YY3nsGPAOryYAvAFaTV4+6QRm4svv4T9o2/2Vu9ePSQ+VvfTgCqHOB+wBGxfj5NbtWnc0zPLGASeVAryAOvfKk6QMgpyyPRRs9EoAtwZ+7AOCHw+IrH/rxl/0DxPDmGfAMrCYD/hTAavLqUTcgA9imvrDzRX9/d37t23m5O6Odane2G9/3Xz8GGHT1zsC6Pg3wZ09+9E+me9NnE4QxZ6W7+HBdB/gDkCf4X89cxwQ9Kwbf/C+/+td/+Hp+rvcMeAYOnwHfATh8ztzDMxAy8Im9+1+ZwB8Ab//SmT8sapnuDKzr0wAXti6ERYtW8KzMcSlaqZNHz6ZVP2TKE/wB6F32lOsYXAiMysEPPvjj97+Jft57BjwDx5eB9H/I4wvpkTwD5z8DOPe/+fLNPxOutK7u9Y7/tPVvuwCJrtMyGo7X7qU316a7ewRiAjamSyBXGeR9fJ89fHRxQX8Ffcpoy/kMp+U/ff077n8V5N48A56B48uALwCOL5ceaUMygK3//f0rv2CX+xSt7lP1rzsBGY0UGRA+bd2eBri8dTF92U9/RgVlgjv1OQ95nz1tVZ/bE/BpqzsQs+n8Jx98+ytu59jeewY8AzeeAV8A3HgOPcKGZWCy9fAP2Hv+7wqXzQq/Y7sf9wMEG+iscScA9wis29MAe7P9Sit0zJdADBqN4E2gJk87yqN1Y6++1OU9YhDwGRc2iAn5cFTcNpjt/by/IyDPnPOegaNnwBcAR8+de25gBl73Ey9/o4H/N6Vn+6XCDwAvN/6lHQHkiXZGwm7djgG2x1vhhmAFX9IEeP7cehc/ZLTLFxDQ5b7KK80Y8OFCguAPGZq9XvkF0w8/9cci5389A56BG82ALwBuNIPuvzEZwBb0LTuX/0m44LqqX1gImDIsBKCvbdLCoOaxMDCwXKtjgP1yf5/Ai+tTWsEZOvJqAzlariMftY1ebalDj0UBdwK6FhR4PPDz3n7fN6mP054Bz8DRMuALgKPlzb02LAM497/18sWfs8sOz/srqCuNtITKn/kx0A98Df4UQ7ZOxwAXRxdGAFyCel7la7WOa1CgXqajLa875zGe+vctGDg39HgywD8hrBl12jNwtAz4AuBoeXOvDcsAzv2t2r87VPW2zZ9AnTTzAaDHPxwF2L+0G6B0bTscjl9Et9Pud+d71zAHACx6AjEXBOShQ1OeNIGcfLRsbLv0GC+3px/twWMenBv4cTX6Z695231PA+3NM+AZOFoGfAFwtLy51wZl4M0/94Y3hXN/XnMN8gHcIVMewG+NNwCGhQJkZqM0bEx2c1WV7w/0Kf+5MLlgHzG07xXZP04FAKygq4AMm5xXIM91sF+mV3vSaq87EmGew+LWSTn65/7NAGTWm2fgaBlI/2c/mrt7eQbOdwYeetfLnrs/n/1YAHm71AT6BuppFwApUJ405FgcsNULhbA7UMusAH6c6tPsd/euhXkq4CsAY27kc4DWRQOvIbfNbajP7XUc6lSGOJgj+nkxv+fx/fu+X+2c9gx4Bg6eAV8AHDxXbrlhGcAjZ08d3vKTdtmXA2jnVbzxrfN/gj2BvubDbgB2AaylBYTRWECsyzHAzvaF9C0AAjzmqzR4tBy8tTrP7WkL0M51h+UxNsGfC5ViNvgWf1MgMuPNM3D4DPgC4PA5c48NycDTpnf+mAH/3eFyCe7GcHs/Vf3Mh4F8AnjS3A2Av9KMZ8cA6/BSoOlsf0pQJWjjspTuA2y1IZ1X/BqLOtoyLvlcD1/KYMtFAOXFtHzbq3/k7rV7uyLm580zsM4Z8AXAOv86PrdTy8CX/dRDX78/n/6lsIVvYK2VfussH0BOvc1WdemIoAb7tHDAVdliAN26vBRoMt6aEGTZY37aCNCU5TyBHHqAtPJK644BbPM4qqdfvjjhIiDI7dPF48n2zz/46D23IJ43z4Bn4GAZ8AXAwfLkVhuUAZz72/Pm30+QTpU7c1CDPuRcGASwh5662lZ3BGgTZLSzGMNifD9Dn1ZfleUuxybYAny5GCAQw0Zp5XMgV76P5pjoOVafrY4LW84z+BWD20fTrZ/SeE57BjwDyzPgC4Dl+XHthmUA5/43Fzf9vF12eN4fl58qdwNtAn5Ii/GtKl/1qPCpr+mwODDH4ANZ3Yzfnlfz95A/jd4WPCOOq0BMkO0DZfioTkEaupyHDE3lpDEW6WjV/stxYMN56UKgnM5f/eA77/2f/MmAdt6c8wz0ZcAXAH2ZcfnGZQDAgXP/0XD4vAT6BtQJ5ElbZlJlrzT1BvxIXl7pt/jaBnYXxzvoTrWVZTUnqOoWPCaVgzIXCF06BWnoyYNGYyyV99G0VT/Qao85cz7oi1nxPR9+4qXxOw0w9uYZ8Az0ZsAXAL2pccWmZaAaPfSW/XL6lbjuVKUDqAnW0qte6WSrMepEBjujdRcBC42rM+y+V6f6UiDsABBIFWAxdfIEZK3UqaMv7NEoB02/ZfLcLrfVeF22kHExsD0a/vRr337XJci8eQY8A/0Z8AVAf25cs0EZ+MJ3PfDicO6PaxbQT5W+VfepgjdabeCiOwbJrl4wtHjuEsBJ6MlwfPG0jwEIoJgaWx9454AMX/jAvm8x0CfnWIypYzImbRhDbTk2dIG2+wHK+fb/SR/vPQOege4M+AKgOy8u3aAMoFq8NL74M3bJ6dyfl6/VvdIB1LEQqJvqEg2dLQJyPi0euKNgZnEXoA52Sh3BFcMThAm0nBLlfTzsCci5rR4tqE5pxM3HJA87xub41CXwNwVoe63hl7/6x176pbTz3jPgGVjMgC8AFnPikg3LwFMuP/PH51X56QGYce0G7K2q3UQtXir3lrzDrqVn3J4xJsPRyw28PgH1STfcA4AxCbAEVs6DIJ3LlacNfVQHmfJ9NH3Za0z1UTlsubjgQgC9fXP5rfiCI2N57xnwDLQz4AuAdj6c27AMfP6jr/xrg6L6QoJ/AGzLQV615zztc3mLXxYn3xkwW+wCzMr5fzqNnwD3ABBEdXwAKfhl4JvbKDgrjTg5T1+VK63jwp8tl5PnAga9vWDppqLa/wn6eO8Z8Ay0M+ALgHY+nNugDLzyHfc88+bJ5b9IMNczecq4IEBarnvOD6P83D/3s5v+aAPzFNPo034agCCqANy1KMjtALbqQz2ujzSBnjx08CFgq1xp2qFHgw9jkQ+K+g/nARvELgaDl+PRQLVx2jPgGYgZ8AWA/y9hYzNwabLz96/Mrr3aHvv7IMA/ADMAXM7mU0WvFbvSyN4yXnVK11kP8WsaOwA4BrC5pJfy1KoT6QieCsCkqdOJUAeZ0uBz+2ULCdijqY+CvMYGzUUDfKijPXm1waOBD/zoS18Me2+eAc9AkwFfADS5cGqDMoC3/W2NJl+HS7ZX/n4Qfar2eVZvgJ0WBTAATzvqctucp1/t2xkDNtLKcvZeYU+MJHhiQAIqB+/TKWjDlrzaQ648bDR+lw8AnHL4oy3jdYHB2Oi5EPBHA2MO/a9nQDPgCwDNhtMbk4GnDp/yfbzYaTn/nFEx/OOuaj8sCrA7YI0LhGRXB+jj6cs+7DLAxxYD9Em6eoGAXYBqUEzq0CfWYUwF2GUArDoFdkxWeY2nFwIbAvMyH42V2+W82nIxwDHCgsAeDayKi/+bzsNpz8CmZ8AXAJv+v4ANvP5XvfUl9+/O975AL30+n38gVOdaqROoIbNFQABt0LVNAO8+3uTB3gZp+WU7BEnHRYbdIzAqRvcYaJ340wAEUVbQ5Ank5JE3pZlH2pGnjcqVhl3O04cxaMM59fFqrzHglxYCZfl1r/uJl79RbZ32DGxyBnwBsMm//oZe+y2Xbv6h/NKvzvafC1mqyGtABtgHGZQAe5EH8O7hWz6MUdvmfsnWhoDO/m2fxtMABGMCJi4ZTQEVPO1Ao5GnnYI19JTntPKMARn8lYe/zqmLh5/6kKcfFwLza9N/jJs/offmGdj0DPgCYNP/F7Bh1//gj9//pqoY3J1f9sWt7U+xdwH8lwDOAHprXAwEGR3qRUDQge7hWz4G/CkuY+NpALQend0MeCuHPKlegRpjdgEq5LldzhN0+/wRA031GgP+ykfr+Fd9+mJwAaIxEBPyYljcenG49Q6N6bRnYFMz4AuATf3lN/C68bGfmyeX/peuS9+d7VejQfEhbu/DpgXaBtxcECQdq3/akufCgD5wIPCPd8JX90Js2NOWvohlhwfTcna7AdaJHgMQXLsAFJeggEpbyNGUJ632sCHfp6cctmjKk2aMaNHEJA87LkAg47WoHF8NfNUPvfgv08d7z8CmZsAXAJv6y2/gdV8bvPKbZ4N5eDPczmjL3nxXTTUN4RjAgDhV96YMNIxMni8IIG7ZSlVPv+ADQ7SeGJDr+wDA49sAJ3kMcPnazkWCKwCUgBsn3gZjyGhLgCWvOvqi13hqq7pcrrzSjKsxSasdZFwMUM75bl3e+oEHH73nFsby3jOwiRnwBcAm/uobeM1437/t//49XvrufN8qcdxtX03jYmAwsLfhPdMq8t/S6lxpVOsB2A2gQxzjVd9HJz84oeKv/VOsLA7MTvrbAFcv7A3H2xN7b05sBMwcWAmgsFKAJR+941/6gmM81TOW6tQHtst49VOaY+QyjMcFgX38+KnF3ugf0tZ7z8AmZsAXAJv4q2/gNQ9Hl/+2Af7TFy+9mMTFQK2pqo8HkAZQo6EnbcAdQB5yo1P1T33dL8jFL+m6ZIxj4bEjcJJPA5SD6spsbxruSyAw4zJzENXdgVx3PR7xFND5uB7kbIxBO/K5nrzOVWn60w48wZ92RTn4RjwRQhvvPQOblgFfAGzaL76B1/uat933tK2tyd9pX3pT+at8VpZ3JHA3kIZOK/W0IDCwZsWf9HWgBTmAvf5HHXm4UKZxILN/J/Y0AG46JGgCKAmSmB9p6hWUKYMdmvK5H/TqS1p9YINGHehcr7wuIpSmP+egPK8P/Xg4/se4NwTjePMMbFoGfAGwab/4Bl7vZHvyvQZj6eU6cctfK//mXoBwjwCPAQDaeaWO/JksVfJcCJhYZQD4AOx1jKCDL3iVkbc+2NMG8WwX4KSeBpiX5T5AkoDJahlgS5ogiimyUUY/8sv8FMARR33AMxZotFxPXnU5DR5NFwXK85rsP4B3Pr5/r+0OefMMbF4GfAGweb/5Rl1xfOXv+Kv1onXLn4sB6HkvgH0T9+PJngBtggDQ2BUgWNc7BAHQVY9Y9d3+jJN8RaeyYCdjgcfTAGU1uNMAceVPA9j3ELYUtAnSCrZhjvaHOuUJqJTlfupDXR/QI5bad8VU39xWeY6Vx6A/xirmxXf5Z4OZIe83KQO+ANikX3sDrzW+8jdW/xHgm2of6dDFAOndcv+zWlU6DAHO1tLd+gTrbDeAfqzm810B3VEItojDGOwxEJrx9knbYl7O3hcFq/2rYKk0RyWw5jrlaXM9H+i1Os/9GJNyAjbj6iKBttTlPOUaiwuWELcabFXzPX83ABPl/cZkwBcAG/NTb96F5q/8jQBfTFKl35uS4unbw60/BEC3qvSMZ5WvNpRxwdCrA/Bboz0XDMm+1uNpALt5/am9Uz1GBUGWPUITNEErsKocOja1gUx5xFU/1ZFWvfor4HeNpX6cv8r6YoUdAJuXfZ3oFQ+98943M7b3noFNyIAvADbhV97Qa3zaTU/9wa5LZ6VPXdfOwN587zFU4AtVOoAZ/0xH0FabIKvBO8kze4J+iqH2mBT5eoK2PX+XgdpqjwH2BgUrcgVbAjNBlTmjnDzAVm0UfEkjbpcfY6Cnnj5dOshyPf2g43WobJk9FwHV/uD7/d0AyKC3TcmALwA25ZfesOvEK3+n1Tz7Bnx+5z+OA6pp185AOgawvBGwU3WOXAKk639BL4uFxNNXdPBJcRiD8WCPlwnBXmTYBVj5McD2oJrt74dh8UfBEzxBFbSCKWnYA0ihR1N/paO2idGlU3/G7/PL9epLH5WpPRcskGHuw1FxW7E3+V/Vz2nPwHnOgC8AzvOvu8HXlr/yN1b5euc/koPjgO30/4H2zkB4Z8D7eqt0A2kCfavqN3niM5oLCVb49McYpIOvzSzZgrZFgT2u9gzMeNWNoMhxCJgK1H107gP+IPE4BuyVBs+xKCcPHZrytIG8j6Y99FywUBZ2AuyLga9/x/2vQgxvnoHznoH0H7/zfqF+fZuTgc9/9JV/ja/85VW3wb3ZCWjLaW368VYxn83+nFV+qMqtYidQwzIBvcrrqj4BOPi6BXsD+8CaPPlnsaBPtrXdSXwbAFU+QZEASnAMc7Y/lJNHT5Cnjj4KsrlO/WkPGWnGpB3l5BmPPHq16aNpr3qOhR7XP5+Vb6Wd956B85wBXwCc5193A68Nr/wdVMPspT8xEc1Zf74T0KG3jwNNi/nzU3UOINeKHjz+oVEew7R5Vve0F5+DPlGAsPg2wKqPAZYdAfDSCJwKwDweoC63BZ/r6E/wpQ/l+UKEetofNh79GR88Y1HHMYvh4I7P+9F7/hbl3nsGzmsGfAFwXn/ZDb0uvPI3vNM/XX9e7TcvBML5vz4RwHsBkiteHcyXAkFYg7juArQqfdPnPHxYzasfwlEOmn5dMuhX/TSAHeBfIJBjPDQApAKm0grASsNP7cB3NfoAdNWecspyniCNmLQBTbu+eAR72sGXsXIfxBuOR9+JN0iC9uYZOK8Z8AXAef1lN/C6vuYXHvnkrcnWX+eld5/7R22frtkliHbpGICVPKt9LAaUhnkHH4C9XjgEcDczlYVFRe7XFRvhi+FKXwqk4IjLATBSBl5p8Nq6wFhloAnCKkeMrri5THn6q0zn0iXPFze5DXnMEddtX0W6VIwG36VxnfYMnLcM+ALgvP2iG3w9j33iT7/bQPhmpmDxfL+p+Lt08OMuAHcGpoPy7ibebtHaBYDCwDpV9jXQJz7EMx8D+BAD+kwWbCGsdSmeyHhUYAuIlX4boA9YKceU0JQnTQCNFvGvykCz4qacvrDOdxsYR20ooz941Sud6+izzAY+AfxtEQC6mA2+xd8QiEx4O68Z8AXAef1lN+y6ul75yxQ0VX332T/s4tMAzVsC0wIhLijeR+APMbViJ83ByNeLgeRn8t7KH+Pz1cH0z+PBZoXfBrBVyo7eA4DhCZYET05JeaXVh9U+fVRHmfrmuw19Y1PeFYPxaEOetuhzGXn6pB0ALgIG0+9Xf6c9A+cpA74AOE+/5gZfi77yN6Yhr/Zx9t/IDm5jlvg2gAEzfBJQS8VOkM91ga/94Nt5vl8vFJJOFg4pHpytwebqdPc5BlLH/1KgYjBatk1OgMQ8usCdMgKqxqIvdYhBWU6DR1Nbxla5+kOuvPqqnHFUBl80+nCXIu0ElNUX+yeDY4787/nLgC8Azt9vunFX9IXveuDFu/O9L+CF953vG3RNUmVvi4E2jwp7a57LEHN3Pn1RAHmpzhM4m4xAH0Cck8htBdhb9wpwgVAvKDRuiKd+FvviZGe8kqcBqsGcIIhLyEGSOsgJkmqjgA9/2uc0eLQ+vcaEXd949Ceok4ePNso1jspgyxj0W5jDePJ/UOe9Z+A8ZcAXAOfp19zQa6nmReuVvw3IMyFdlX/zAiBadfrZ+wDq+wpaxwBasedAnUC8BvVkawPlunC+z0WA6YMtJlQDPxcX3IHA0wAreSmQ7QAo8OUgiSmhUd5HawzYKK80dDnwQqbxcz7XIR4XI7BlvHycPA54NMZDDPVReYg5r17i3wmIOfO/5ysDvgA4X7/nxl3N637i5W8shsX9XReen/3j5T44BtAqv7FpIjQy2zGw9wFAU1Zls+2eVeXcHSC4JxCHo9pyV6BeGKSdADMLvrQ1OwJ/vrhASGvPN2Bq5hNlN/yXwEcgRUDKNLiCJeTK5/bKk6Z9DryU5zFVrjrGgwyNuxAq12vROErDlz5qDzotMMrh9z787udsw9abZ+C8ZMAXAOfll9zA63jk0cHo8tbFf9S+9Ph+f8hiRd889x/BvOHbNs0uQe4Hu/357IXoCcwAb6UB9KnSr4E86emHAKZLcgK+iZMvbKwp8Cf7eqdgVd8GICgSSONM2gAPGcGS+pxnHOrzXu0PSyOW+uhYXXJdZKietPojtl47fNOCoKyeOf3YU/8GbLx5Bs5LBnwBcF5+yQ28jmr00FvsFbnPbV+6vd9/vL0FWVPJNxa5rOH1/oAOX3saYF7OfzsAM8IR8AHi1gJIC6Cn6h4yrfwzOvfL+ZYvx1rBtwFsm8NukoyN4JjzOViCTwBpxtTn/pQjntKMn8uU1/hd/vlYjKlypalnn+vI6xxgG+YxK77dXw7EzHl/HjLgC4Dz8Ctu4DVgO3a/3P+e9qXH6p/b9k0l31Xdw3Zxl4DxunztHOBK2tKHoQFyAOwQp3nen7Jgazo+xw+X5I9q3vxblb/wIUZtk8YBbw0+K3saAANYA+DlIEhwjBaxEk9b5CZUvfqqnHSfHrHVhvFprzrOAz31Od1l03Vt6g8fjsNdAPTDYnDTcDjI/jenIzjtGThbGfAFwNn6vXy2dQbidmz4Yp9U+u2v+3Wd+TOB+XP/zU5AtGj4ZmcgvRTIgJgArTsCAdxNF2R1td6q4OlXTyLEgB3+UVfzKS5sGRN0HffYnwaoBjsEvTCMAR75vAqHPgfMnKevyjUO9YilTe3VRmnYk2dM8qpjXMakDcCcdJd/7kc+LEbmg2944IdflO060cJ7z8DZyoAvAM7W7+WztQw88ujrbr24feHvMhlNtc6KPmq6zvxznwj09IvvCoANY8ZFRO1lxwDjYvTbAOEE8jVgc0EQANpkOQ8QT345XYcPMaFD07jCB539WcW3AQiU7DmWnotTRwClDXnqu+QBQGsFgbfPnv65Pud1bowJX7Xj3LpiYk5qqzT9YMPY6Lcvbn8vY3nvGTjLGfAFwFn+9TZ07pOtoW3DDi/p5TcVu0oXz/Jzuwj0jU++M8DjBFrY+waukU69VugQCh8WArVhq+KHDCBvrSWHzPy5gEgLDRhSDtraaDi8ywDp2J4GmO7v7yIugQ80mvJKR2032BIwaaN+AFkuBiiHTH0IxNR3xYFM9QrmKqfvQWJ2+dEffVgMVNWXvPpH7n6Byp32DJzFDPgC4Cz+ahs8Z7yb/cr06tfmKWDFbv+J7vnCX5Q3dogQ7wOIsUxvjwm29fkog8GsLD87SLuqfMpgUIN7quqNJ01wZ/QgNybJaYsY9i/JzUYXBMf9NMCFixe3CcIES85xGd8FmlqZMwb7LnvIuCiAndosGxu2ql/mt0zH687jMXYA/vr1wKBHk63OT07D35tn4KxkwBcAZ+WX8nmGDBTj6TdVVfUnYPJqPvLNmX07ZY1c7w1oYpi+fua/kcUILZ7HAKZKYMzKnJU/gButBnAuBsi3AJ826mt08lE5bUNwXP9OdZwvBbr25FVL7aBEeIIlAZB8PXTSK3BC12dPudrkNHg0tQXPsTkWedqRh602ldOWeuoox3WTpg62StMX8yiK4sv9Q0HMiPdnNQO+ADirv9yGznsyHH/zbD7bMYB8Iq/WI8/EtHcCtNrXewPyGPBuZPVTBfP9ke2/Txhjv5xeDaMAkGuwTosBk2nFTpo97QHwwQf+aDW4B7sgqHcEqDO7FKPWw/84nwYgANbhQ6cAmOvBc8FAXZ+9yrto+mNQ6lUGeb6rQDvo1FZp6NBom+soVxvQakea1wo9WlHMvjNS/tczcDYz4AuAs/m7beSs8da/QVU8xQqwT5lPp7+FJDTVfExJU603FX+wG7Vf/dvY5X6Rj3/zpwri+wX4UiBaBmAGgKOxYs/oVPVb1U47gn4626cvYpEOxvaHCwbydX+cTwPwHgACHituDkmwpJw89Ern9uQZt4s/iH+XDWOpTmnoddxcR3+1gUztlIZdWgjMy7e88h33PJMxvPcMnLUM+ALgrP1iGzxfex3v1/Hyq2HxQFWVf6TVPHRavUeQjx7t3YHMrnX23945UD8eERg43zwshr/OuXRV8gncYcTFgZGthYCBfCsG7Grb9O4A41PlX+t1l+A4nwbY3o5vuiXgacWtAKnb5Zw/erVRumvBAHuOA5o26gf5Mn6ZjvEQQ8fJYzIGbdRPafih5XZbs+JvRY3/9QycvQz4AuDs/WYbOeMHH73nlkkxfFgvvpzOw70AKmsq+/YOAG0aPSXN2X+UtP0W7aPV/ny/SpU/QXu8M0rVPMwM4BXI06JAqvsUw8wTsIseYbhoAJ12BurFAETH9TTA7u7eVEGPYIcxlM75HERzfdeCgT6wReNig+NwHuRpTx4+pLtsWaXTD/ak6acxQKNxHjlNX47F+MPh8K/if5vB2f94Bs5YBnwBcMZ+sE2d7s7g4lfZo387ev3zYXV7w7ff7KfVP87uyfftEMQ4jR3j9tnPqvk9BsxPApCDrQEygTr0kFNW2wSAr+Ws9OmDGOqXFgtQWJywkBDfFMvUx/U0wMWLF8MNgBiSjcDXx0OugEqAhFx9aUN9H08/Aix4NNqD1rjgFbTBq20fzXnAXlufPeULi5lqsDV4svBvBGgSnT4zGfAFwJn5qTZ8omX5tXkGhoPhHXZT4B9AvvD8frhxDxosDNpVPaQqa6r8Rbt+XWE3FQzDS4FS1c+qHL21VN2DN/AOAF/TLR2M6Us/yMyHQJ98a7kuHI7raYDdvWszAi9BlsBHwCSPadCGOsgUINUWOjTVd/GQ0a8rvupBo9E+cvEvfcHp/MBDl18n5ei1MY7G4HhJVgz/x9e+/a7Weyk0htOegXXNgC8A1vWX8XmlDDz0rpc9t6yKFyeBELu71x4D21epx4WBOMhuAKV9vsviQodjgLADYOCdqneTB9C2XmUJ4OsqXnUEecSEXdKRrhcHya7mGRP2x/E0wM72hXRPAkEuzMn+5FU25LTJdZTDhgCqtOohJ6+2Ks8XDRoLNFqfL+Q52HM8+HXRGov6rjnAH82+MX1ptj/55sj5X8/A2cmALwDOzm+1sTMd7hff2Hfx5bB6TlvXruIjuGOHYGtu6NqzG8AIjW9jv6ijBMcARl8JwExQZqUPI5FxUQBxn32ygZ/agdG4NR/ssaCo26c9+UnvJ32UfjrffxJ+qbI1mmBIIGRcysGrTuW5Tu2uF4d69vRlfPJ9+lwOPvehDXrGBd1nRzltsShArvDP2rfh89Tw9+YZOCsZ8AXAWfmlNnSe+I9qUQy/uu/y8UigvRfgd1rv7O8w7q/yF8/94U77uBDQgGofjwFSxQ4zgr71CaCNTjZKq73RyQZya8q3biaM6qivaSwQ/uTSf3sa2aP0k/EkLCa0oifoIR6BD7TKwbNRrrbQ9fG0p7/aKU292i/Td+kQA2CtOtIaF3aU5zR4teXuwnBU3PbR3fu+AXpvnoGzkgFfAJyVX2pD5/nE/OWvt7P2py+7/GJePZ4e0asNFyt47gKwyo8v+TFImCzuEjSjUQdJjNnYQzYtbVOBoG8gnKp4qdiDjDZwspYAnT6ib9lDzlg1vaCPIe1rxYNnG8Ad+dsA09k07DwowNWhQ9cl7wPK3PZ6POOondLQA7z75kN/6umrctAAbOpgqzR42qtcadig0Q5zQkz8G80H3xa1/tczcDYy0Po/1NmYss9ykzJQzcuvuN71to8BIrB3VfBtMMeLgfB2v6bRB0cFi5U/dwUae1DTcvZSA+jwER3wqWoXQE8y03OBkGRml2gEyHjah0UG9NbUPumjfHtezt4XjI7w5/LWpXScAHeC3DJawVFpgrXGgEx5naL6dtlAz2q7T494HJexNa7S0C+Lk+vzuTMW5sQxi+Hgjofeee+bObb3noF1z4AvANb9F9rg+eHO6vFo+CXXS4HhyqcU1SC8GRCgrjf+KehrHMgP8hbB/p0ELDTQikl4GgCVPN7yR+DPK3vItZIHb61Vzec+ap/rNB4CWbvRpwH+/OoTf444BDSCHGR9NHRoOZjyGEH9AJbk1V5pxKINaLTD6DFGbt/HH2YcnXucVfyL2FwEoB/sV9+ueqc9A+ucAV8ArPOvs+FzK4cX/lL+7H9fSmbT6RPULYJ+T0UfPv7TvOO/2QFgJFb90Ya7Ao2dxbW3CD65f63IK3dE6KzUa+AOIxitNgs+fG1wMG7ihUWDLQjSYqNeTCDWjTwNcHnn8hbAPwCZjcmFQA6gXXKCKXXkMfXcHzLVk1Y7xlHbXE+e/rBFOwx/mHFi9Pb1cCwuAux2wDsf+NGXdj6xQn/vPQPrkgFfAKzLL+HzWMjA9mj8lgVhj6B9DBCNmuq9ObdvZE0g3THI9Q3fxGg8TWaLCNv6vWcyGu9zm75V1Qs4J796EdCyQ4WvOwhmHBYHdIJP/S/INQZtrL+RbwPsznZb7wHgQoAgh2EAul1yTgE6AjNluT/l6PsAmGNoLI0DvfKMqfagNb7qYA/+KOPk43IMxAK9vT3+Fs7He8/AOmfAFwDr/Ots8NzwqVV7yP4VB01B+xggemmlzjgqi+DOKr/bp8s+WuquQjHZm+3/ZjPGrj0aXm/vo1KXaj1V76ZvVf8G6OSTTQ34iWdMBK8bfbj4uJFvA9g4Y4JZDnIcT+UKqErTRmW5P3UATdK5DXjGoi63hVxlag+aAA876rqukTrYUa9xIVceNuQJ/LAJ45XlV/rrgZENb+ueAV8ArPsvtKHzG48W3/x3vVTYAXy4A76p2qNHd4XfVdE3Iyz6qP3i+wRm1Ww7AHUN2um830LqHf+peqcdelT/+I5ALUs2mI7pEk+a02QMjEF/o4/6bYDd+d4TCpgchkAHXmkFTaXpl8sO46u2Oq7GpA1lBG6Oz552jKPXqLpcz7iMozxikEcM8BzfVn87gydHvY+uMp73noHTzoAvAE77F/DxOzNg2+qHfqZ6fz59PoI1VXsMHXml22f6UaMVPWOoT6TjEwLtTwtDY6Xm3QbU4UU6wRLgXLcA4KBNFhYD2BGwFkC7poNNTQc7ADr4GuSDbR2jpa9l6n/UbwNcmOxsA8QIZARHAh2GUjq3g54+oNGUV99cl/O5bc7DPpfxxsNlsXKfZbzOvY/WeejCwh5Y9GMAJMfbWmfAFwBr/fNs5uRe/477X4Ut/cNePd4XUM6n76VfvhMAeXPn//KKnjEW++jXxKFF8zRAXtEHEIeZAXoAaoC60vViYWGnIIUWP41T06n6lzjj4fgZdD9of226uwdbApmCI8GesQCIXXbqA9uch4xgmutyHrZotI9c5HU+1Ku/0vBTe/D0WUZrjD4a/miMh3GQF/sP653433FQ+h/PwJpmwBcAa/rDbPK07J29R36Wupo3L8JpdgKa6j6+MEif/4dOK/rGNv4GOR+lTZxGb+A+YcXOilyr/ATwCKGVfV3p0yfpcFNgvgsgPO2SX5xauLfgKE8DYAcA4KVgSWCDnDSGUUAErzqlcx149VVbjqsytace/lx8qB60+iqtuwO5j85H6TweeM5BY2s8nddsNv966Lx5BtY1A74AWNdfZkPn9fC7n7O9NR7b439Ha9VocBc9mx0Arfaptd2A8H2AXFdX+B3fDmjiNTEMEtKbBHEMYIC9qxV5AGet+M01bedzF4Dh6kVBYKmrq/q0Y0Bb06c4tU0a12yO8jSAvVL5KsIr2CsgKs1pEAhVR5pgSR4+tKc/dZATPCnL7XVe9O+LB73GUTr3ycdRPvfrmiPs0RgX1w27oii+/DVvu++GXs8cI/tfz8BqMuALgNXk1aMeMQOzjz31kWowuHxEd0Ov4ik8Bmh2ADSaVuz78vGWRg7rxreRd8k0MhYDZVm+t1WR1+AfqnUYG5/00NX/AngT1K3P5eTRE/hTnHoSiTebozwNsG3vNOgCbYQnuOW0AiR09Ic9wRJyNtprPOgopx31ubyPpz39OQ/wuY4xVE4Z/XMecpWpL2nq9bqLUXXoe1k4B+89A6vOgC8AVp1hj3+oDAyL8dccyqHDWI8BqG6q96Zib+sW5VGfy9tPADRxo3VVVRcDWBtLoIZGq/MFPat9swsgDgc0kadYImvFkcVEODYw98M+DWCPMtraq90IpAQ3aJVWawAhwY82BEfYKU29+qtNl1791RY07WmDeZCmDna8HvUBzQYftWEM6JXWmEozDmKEf9P+L1nS1nvPwGllwBcAp5V5H3chA698xz3PHA1Hr1lQHFIQjwH4ql701ZTVewTsdsCoU1lT9asUcdr3CyzuFEyr2WfjGADgrBV5oi0gwTzJFLxrmjYE+U7benJBx7jcPTD+sE8DYAcAwEkABOAR0OuhWiCogAh9FxCqTGkdg7G7YugY9KeMfJ+/6umjCwP6Ucfx9Zo1htKwVb+cZwx8H+B1P/HyN0LvzTOwbhnwBcC6/SIbPJ/tYvhXjuXy7RigqIrfjbH6vw2QV++wj7J21d/YRfniEwDwpE/9NABEAHNrqfoHrxW82ECeQJ82tX+Io7HgR3vIu+JiXLuJ8DBPA1zbu7YHYCZ4KeAR7FSmNPWYGlrOE/Cpy8fI7cnrGCGw/emS0Z42Oa8+pDkn8vRFr/5Kqy73U555xHVa+6sa22nPwLpkwBcA6/JL+DwGW6OtY7trevm3AWKyuSsQK/ste/iAFX37x2jsaj/5hkDXjsJ0Pt3RCKl6h5CAXfcB9A3MoWIlD5vO9wWYPMVSOovLhQRsD/M0wE07l8M8EI7gCBpNwQ18DorUU57zAMJchzhstOe45KGnH2jqc7naQ0defXMfnVOuo7/GAo2mOo3PuUHGBU50KF+PN1sG2v94BtYoA74AWKMfY5On8qq3vuR++8/7Zx5bDobFSwDsGq+p5KO04Vm9N9aNLrelTfteAErR8xigVfmbnMCcqnet9OsFQYijctJBYX/UDjH5wSCz42IiLSRMf5inAT6xeyV9C0Afm+sCOQVBAh+mqPKcz3XQa2zwOi54NPVT0FZ5tIx/NWZus4zPdXpdiMy4KqcPdAR9ymgX+vnu1+ocnfYMrEMGfAGwDr+Cz2Gwc+HC1x1nGvAkQTUr00uBELup5OPCQPm8kled+tKufS9Afs9A99MAC9V7DeYEbvYK8gngzTbpbUKBDtdk3x0w8IdPiM8FAnpruA/goMcA2AEgaBHEEIO0ghzkBEQFZcjRqItc+6/qGJsW5NUGOuVpk8tpo/rcpovnNee6fDHCuF3XSx1isMEOscPCoCr8zYBMjPdrkwFfAKzNT7G5E3nk0cFoVBV/+dgzMByGbf3Far558U/U6Q5AvmsA20YWFwZxMdHcC6D+8SrS0wAAYlbnNSgH8K5p6Fixsye4J10dIwG8+OhiIdAcC9PgGIPB8w2IwncSluX46vzaPICVGCk45iCnvNJwJ09Qhow0dRpb9aBpk/tAp412kCkNPvfleLSjXgGdumXxunSQoTEmaeZzOCpu8zcDhhT5nzXKgC8A1ujH2NSpPD67/0tv6Nn/nsSV5fyFAO+mmo+GBHFwSsO2XdlTjxsJ4z0COlTzNkBI27sAPAYI9gbEAbwNnFOlDjq4xUo9gXVmq3LQaXEAcCePWIxnMdNYYYCDPw1wcXQhvBeBQAkwI4DlwFaHDt0y3TJA7auwNbb6943D+dKPvPpCt2w8taU/fHRMtVG50mpDGvGQxxt5wyXm4s0zcNwZ8AXAcWfU4x06A0U1OJ67/7OR82OAfCeA5o28qeQbWbRqLxToGfto2/hGafNtgFTxA7RroE5b+8YnGnq0uk9gD5v640BpFwB2Jk98HTvEAs1YZgbZQY4B7GuA1whWCE8AW0ZfTwe9AqTyGl9tSCsQLxtHK3jY5UDPeDoe7NioJ6/x6HPQuSAG49GHi6hqXr4Ju10cx3vPwGlnwBcAp/0LbPj4eFXqZDh+w6rSUA7KfcZudgLa1Xojp2VT+eeV/SJP28YXNuDC0wAGxK2KvAbmJBM9QT4sEkQOMFegT3aIZf+UZ9wks3lAZvcCXPcYwHY/LhCsCF4EM16d8kpD3+eTgyh5xkSvMtIK5DpW1zj0yWPlvMYhTV/yuQ/4680FNvRnPF1IQG+fCb700U/c94WgvXkG1iEDvgBYh19hg+ew+lelFi8iICPN3dV6/AHyqn/RFsDOSh80/7V/QB4j4BhgMhrvh2ocYM1KvgbuVKWDtxbA2/p8RyCAeW2Tqn4OqbsARnOstGCgnfl/2pOf9H6yXf3edO8K5ABYLgQIZrRXXmmAX+5DQKSvgihlaqM09BqfdNc4jIU+j5HzjANbpbt4yOivtkoryKscvmiUcdEymhRvjhr/6xk4/Qz4AuD0f4ONnsF4NFnJ9j+Tmh8DtLfy+3YCYgW/aKs3D4Juv2SIC4LGr5hMZ9PfCBV9PaGuCj0APPS6EACYZz6BhY39C4sEAfwUw4yUZkzM4Y93HruNMbv6ne0L4SkAAjnBD7ZKgyeggUYj0EUu/s1l5DUWZRpD9RpPbSjPbRmPcvI6X+oYY5mO/rDN/cirTZcd4iOnYZyqesNr337XJY7tvWfgNDPgC4DTzP6Gj/2F73rgxcPB8PmrToMeA2CsptJnNd+eASt4Shd3Apptf4C9xst951V5UxgTZ/g1eKNPFboBMyv/MB5tjEmVP2VmG2T0gRxNedJBEXWJHA7vsFXGY+Tzfm+2Fz6zS0BUYFMaflrNEwgZDzxjqIx0Hiu3pV7jKo045GmrMtAqB99VqTNGlw4+1INGy2PmPK9D5YjBBVXoq8FWObxw5K9dxpn4X8/A8WTAFwDHk0ePcoQMXN3dfcsR3I7gEo4B9ugYK/Rigoo9gjc1XZV/A/bRKvehHvFIM56BBr4NMBh8fNcgnzsBCxV6DfAEd3pzYZDkZpcWDkarPFX6dSzwrXHC3Ha3y2r+AcbP++3xdgBuAhb0OQiSV5AjrTrGUJmORzlkuphQG8aFTOkuvktGQOZYy2LkOo1Hf8gQU3nIyPOaaYeecWkD2XYxXumuF8bw5hk4SAZ8AXCQLLnNsWcgfCe9GH5rMah+9diDZwHDMUA5+A+Z2Nj2DoBW701VH70avu2zGFN3GKANTwPE7xIAnLVCNzqBtMiDjEDeJQ9hs50DxpKeCwiY8+mAZU8DTGf7U4IYAYsAhhhoytMmatq6Phl9NI7S+2B6VgAAQABJREFU1BO8EUdp6iHvo6njtWh86LRpjL5x1B8xlUcs8horX9TQBvb70+krwv/+wXjzDJxiBnwBcIrJ3+Shh6PqYVz/Xjl/RTWo/u3J5mKxisf4zdk96bhL0OjqXQP7al4z38VYrR0Gs7023b0I+wT2BHfrA0gbaGsFn2Rwgm3dVK43CjIuAZ998K396VtWgzv7jgEm460JQVABS4GNc0FPG/pQ12VPG/rAljL6oadeAVRp6tVWacZUO+h1TkrTDjIuGDQeaDT16eIhYyyl1Y9zQ19N5ye0+4XZePMMdGfAFwDdeXHpijNQDEZhAYBhqtk8AOQqh6yq8sU2kh0DYJu/XcU31X17BlEet/Zbb/0LHwMKM2/FWoxj45htVVR/wSr/KwGEAcis0kOICPCp6udiQO1A6z+z0VgtwM9jCg9yaC8O7jsG4A4AgQr2aAQ2BTOlCZyU0R6+lMGGNORouUz1GkPp6Nn8VR9IdbEAnnqNoTRs0CALtsVgX6+/y5/2wdH+0KaL51gB9C0HtNnanvjTAEyG96eWAV8AnFrqN3vgshh8ATMwG1YvtBv1PkJ+Fb3d3bZThWOACOhYCETAblf7lGEOrR2B9AVAzg7+zVMBjX3XWwNtzLL6LXpG2/od/mAM3Fmhgw6LgXohkORmpvKwIKh90+KAPHpr6kt7fBugqIafHC3af7kDAGAmCLKHJcFMaQU/1TOyykj3+VBPX7WDjHzfnGCTx1Be/RgLPmzB1m7S00WE+nf5wFdtunjINKeg5/Pyha/+kbtfAJ03z8BpZcAXAKeV+Q0eN375bxDujo9pKIZ2DPC+laekLMNb2FjZK8BjQdDeGQDPf+2ZLfrDrmntuFHe9zRA2g1ghc/q3tzSrgB01lKlD8bsgl5pLBooZzzTJzvYWivsaQDbCfijyDV/uQMACUEwr9KhUyDNwQ96NAVLpaHLfXI9+dyOPOek86DPsrHpl89BfXMdeDaOr/aHpRGL8x5f3vlKxvbeM3AaGfAFwGlkfcPH3NnaeX2eAgPIp+Wy4+bng/ldVgk/sQjQeTVP3qr58fZWM4+4IFB/LgawWNDdg+jTyJY9DdBVqaNipzyv/Ano1CdbXShgMYAmcUBDZE8kjGbl7MOgtXEHADKCndIEOwVS6ClXepk/7NDop7aQK08byLXBBvOgTH26aMZRXe5LYIac9jkNXmMchsZ8MUaa91715YjnzTNwWhnwBcBpZX6Dxy2L8qGFy6+KF9p/H/90QX6sguGOfaUv3pFfxyWAE9RzPn7whzsBfPFPU/HTz+q6CekYAzaNDLS986D7aQAAM/5p9Q4Ar+V55Z94+vFasncNtOLV8WF60ZY1w2J0R+2WuqosdxNjhIIg5IcBO9groOb+XTxky8bs0tM+H4ty+KDp3KMk/lU7XdiovdL0VT/IlO+biz2N8qR9D+D3RsPxr9nq5VfL6fyxejeMYb33DJxoBnwBcKLp9sEefPSeW+w/fvd3ZaIcVP+pS36ssvoYgDEJ2n085PGsP947EO27zvnzRQHsbQdAnhgI3wZAPAA1Wg3gWuFrVa9y2Pb6hWDtM3/apnhmwycHcB+Affjn0/NjADsa2KlDhY7Ap+AGRc53yWDDSlftAY7K575dY6o99fBDI88jiyht5OoLXc7TP/fLbfN59/khvt1r8oFRNXpPBPnyV/eu7L53vjf/aLlX3jSfDj5r/9r+y6v96gG7O/T+6urgTRzbe8/ASWfAFwAnnfFNH282eZ3Vhp3/uzvJY4BlP0NTwUcrgH7zFEAjA9XYclHQLATCDkB6YsBACS8F0qcBEMAqfVb0AbSlqqccZskOeuWNbvnV+uTLeDIO3C+Odwb5MYC9kyG9B0Cr2D6wQxwC6jIb1WFRoDxi5Hwuo55jQY+mPG0gP8jc6au2lCEGmsbUecOnKquP2b/3pWp+f/7r5f78j3ef2B3M98s79ven9waQLwcP2ILAvkdRPD1Gbf+1bwN8aVvinGfg5DLQ+R/ikxveR9q0DBTzwWt7r/lUjgGac3rOi1W+nuvHo4DmCYJFW1Tg+1bZcyFAC+3rpwFqkGaVHixM1qrWZZcg2eV+Nb/gJ8cHwZc8Bqp9sAuQHwNUNneCoG6H8wqoI49eQTLXH4ZXWwXlrrFoq2PDjvKDzJ2+unNAGeOEsYfFh7SaB+jbD/WRclrdZv9e2Krmq+LZOt8D0VVxux8DHChTbrSCDKQPjqwgtof0DCxkoBgPPtcqot6GYwBD0U/pNTgOBY4BhtiFT+f0raio6m2L3GYZzvBbOjA4EjB9OOOPfGMPPi4EQMUdAsYCvz8ob97CJ+FjRZ4AGTzBuaXrsDPAR6jYakAPDG2pEx4LAbv5L+4eUD8obrdjgPfby4EScBEEYUI6VLwdlTuAkjYHsVdbtc9pAjjt+8aBHxr1tIdMaeV5LZChBTt79t/O5/94XI6emA5m1/Y+cW2rLKunDqriWcWweJbdPPqsaG0/lyULP95xtvoY4NeOM6bH8gwcJAO+A3CQLLnNsWQArz8ty8FzlgWr5tUzlumPQzcblPca2D6xWK3H7XtW8u2xmp2CRt+2j8cBbS/aUleW8xcZflwJYG/grRW60mkxAIDP7BZ8bcjgi6HVnrz1ukvA2JDpMcDlazsXx9uTBXTTKlmrc4Jsq2K2sXJ71SvNWCojzdi4BNK0hwyNPPWQ0R80mvK4Ce/i3oU/sPzHm/Dqbfv5brlT7pZ3xm37+ctxNl8UwzsN/C/HKKv9O54UX7zaETy6Z6A7Awv/Z+82c6ln4MYz8NA7731zVYzecb1I4+HwA3bH/B3Xs7sR/Xg0+hVDkFdoDK38Ke+SJZ3d4Lc729vHQoIy9sv87Pz935ZVeR8q/WAP0CZtAtysx48HBdqAWu26ZEkPQmIR7IO+1mn8C6OdDxswPgUq3BT4wY8+9jwAK6pw9vQFmBJslab+MP1B/XM75ZXm2AD5oiz/ZFRMrqCaH0zLLfud7SVQlVXxOIcvbRdkeIM7n4hxI21x/HKr/Jx/9Zbf9F2AG0mr+x46Azf4f4RDj+cOm5yBavQqA6frNnsp0AfM6I7rGt6AQVnOLg9Hbdyuq/Xwed9Iczu/sD177ABg6x/n/LE19wV06OL9AJ1+eBpghCMIAD8b6bhtby/sjUcCVqU3iwSOiwVBbR+29nEkYHxNJx3MVUbbtBtgPtfmu8/YHm79Nipeu2v9AkGfPaeHnuCf07TNATnn+2JBzhi0Ia9jQhd427K3NwA8VuIsflZeG4ztf1Sz6uYG5AefNR/YCQ3BHrv26X94i+ALbXfrB3q7K3Q2352N2cO/i6aMfRyHcWUuu8UXmc4XADFB/veEMuBHACeUaB/GMjAavP4gebAFwKcexO5GbMqqeLGBph0DxHN6ADzjKcjHrft0r0AC/7afPu8foyzzm1bzF9v7CD4GkAcopx6uBHbbBQiRwOMfbclDycVCrQ/AbuIQc4keKo4TzIrilrq/hMoftG7jA8ghY8t52naCtTmpfR/NGBgDNpiHAfrHRqPhfwyP04Xn5svfnu/P/wRb9ulOe9xlj0fqOu+0F4Dl5Fs9gHjZv2gM8Aal/WHAH76w1xj5LkRRVH8Rem+egZPMwAHqsZOcjo91XjPw4NtfcftgNPvjg17fSRwD2Fdxfnm0NXllM6fFSr7RkVpmw0WEHgl02+8MJ79se+6fy6ipB5ijYQcAzfhUxQdBJqM9dfQDX+uSv9i2ZOYzGU7+zagY3fPY449tcxHAkH09q3TVA7zzhYDqF+i6mh8NRh8JW/YzQ/55+Yz6BrwVn8GXM1bm1+s5b9p18bkONpTlPf2bhUA5G164+Jn/31f/6n9tdE55BlabgdbKfrVDefSNzsBw+uBhrt8q5JX/h3CYvfjGUDe9zc/QM+0IcN6xqlebqNFqXz8QtGgvMYviKQGgAcr6z8A4VPCUGc/KPtmJLNhiGrkfwV5seR1p58AEHMuOJe6blvuP2aLko8nOCK3YIVceCwXloVfwVx3O5qti8Afhuflp+avh0Tp7bh6VcarmYyX/QLwBr9pBvBtvyyv8vJJnpc5xqQdPECeNXvXg0WDHflm8BvxhPRyX+9f8pUBIhbcTy4AvAE4s1Zs90HBQvMZAdckDgO382Cdrb29Ljp+bD6r7DFTDMQAAPwJ2HEeBPC4GqqkeDehsojxW/WqjdIzffD3QdHcZEF9BnADCBtSMmc7oIeBCwPpkR5mpk63JSCc70+OGP4RBnCTv8jeTeVnajXKxEbwV0KHp42kPmwD09iY8ewPeL9vLcX4d2/Z4C1640x5vwbNt+3DHfXhuvm+bvku+DMz7dG1AxvwUoMEriFOnMtLscx/K0UPHRjn4bhpzblpRFekLmY3UKc/A6jLgC4DV5dYjawaq6l4rUw/8v7cqPAVQ/aGGWA1d/XaM267sFbzjB4H4gp+mim8q/xgh5znfxZ2AqOG3AVjhB4AGOFtLwM3KnpU89JQRyGsfLhZCvNquj05j1b6Bt3Gtqg8vGciBXgE+0fKSHHt2/tcGZfn+2dXZfnqkDufz9kidrQiOsJjrAvSYN4I0ONLLeoIvATrn4UtdHCHGpUz1XTLVH5bmeOjtWwwvx6uyVea0Z2CVGTjwf5BXOQmPfb4z8PC7n7NdDovnHvYq7dXAHzysz2Ht9/f2bl70Acg3OwLxbv/0RIA9OhD1cZGAyt9s8Uhg/SZA9UVsXUzEseIigt8GCMAd7OrH/bpogn0M0FT+xqfKnrsIZktAZ2wuDmr3lj90XIRAj7N92qHHzXh4nz2370Hb4wNX59fmz0qvvDWgx3vui1H7ewIaZ5FuV8DtG/L6wZ0AjngEZMqux8OHII2eMXKa8XI97SBHYyyladMXQ+XxmkMo+zMczz5aPkzOe8/AqjPQ+j/6qgfz+JuZgeqjt33OUa7c3gr4mUfxO4zPeDK50wDQjgG0ssdWfXtHQGOmHYHwoR/4ma2883+ZL+LweAFPA+AYIK/GCdoL8q7KX3cGELt+qkAr/7QY6PFP45j/1mj8h3O7ObK0c3oD/vcB6PHaW9xlH157i6re6MO/JEfBPqdZ7SM7DfBHrtk+J7jnoEsf1UOmQEsf9tR3+TIOe/WBPRpjd9lQFy3jX41BGr3aBLosPn9B5gLPwIoy4AuAFSXWwzYZmBXz+xvu4JRtRz+rHJS/f3CPw1vaI2Z2sxmOAfJKPo8Vq35ICfbNewDUttk5iNKcz3YEyuq3AljX1TsBPFXlKsfYeAdAJuOCAeMl4MeOAexY3Wd03zhW0d/Oj9jgXfeHB3rMgoCuvcojTQDMewJoF7j2gSd9EJmNtuAZS3WgacM5aBzK1Idx6NcVQ3WMxx72jMG4ugswHBevfeRRvCvam2dg9RnwBcDqc7zxIxTD0X1HTYI9DfDfjup7UD+8FCja5pU8qvWtedwdwD0A2Blodgo0vto1W/717kD98qDGpvHcm09vCQBeA3YAcKohy+W5rNanKh48mgF+uo+glqlNaxwzp619oz7eNBiCHOSPgjzp6EcA7esJigRE8vDuozkj6unbB7qw1/Fpf5A4B7HhuOzhw7mBPoi8/TRA8fSPPPkSu1/Gm2dg9RnwBcDqc+wjDAZHXgCcxDFAeCnQoPpI1w/VnOuzcq93CsLCoPGgXQT5KOdWP61og0UE7eyO+btxDBBsanAPYNxV5ZteK/eFyj/z0d0CxG/xHAtHBtRZP5yM5N0gBPRlfRtgEYuASyDsA13Y0oZ+ynfRjKXASprjks9j5r607xonn9sym9xWx4cOLR9L4412huHGy2hpf68O7JPZ3jwDq8+ALwBWn+ONHgEfAMJW/lGTcBLHAJjbfH8WjhryKr2bb+4PyPVN9c8FQ3PljW3jH7R2DBAq9o7z+wDadQUPG1buYSEAZ1b6NaCrDRcIWvnDRX1TfI4Bg7SF3wAXAayrJ7AS1MgrEB6EDkPbn6P6LxufOo6B/qjj8FryXDC2jkW6ayzK8GZD+qIfbQ0/T3mnPQOryoAvAFaVWY8bMjDeGh/p/F/TdxLHAPa2/5swplbpOd/c6d/MTu0jwDe6SDXVfmPbtrGnHeqx63f812DMbXlYJ9CugT5V88YnGoa1nuCPPtcnnraMb4uJS9MLdlMjnsGP/xqQar/3XoFNgZD2OUjSHlM8CH0Uf/pgDNLolQet4+d2qrseDT3isV3PHnZqw7npggs2eBzwtW+/6xJob56BVWbAFwCrzK7HHhTl4IbPM+0/iM9bdSr12wBxrPy5/8X7A2DXV9X3yds+caTwNMBg8PGgq7fkUyUPkGblDxrN+AT04Gt5WCRgR0BiBJpAT53a1/HCosDoK9vX0suauDVNoMrBiwCoPW0RFo26HGijtgFq8LShDn3uD5nakWavepUhDnjVg2bLx6Et9RrrOGjGaMbRFx/Z44DTnddybO89A6vKgC8AVpVZjxsyMC/Ku240FfZd2k820PuPNxrnev7z6fS31IYVe19lD1va6Ln+MrnqWnFxDGDA3FWdE+wJ8OBJs0++YU71kwIaDwNb0/hKc4zCXgcYLQG+cWtawZM0e9gSxAhqkOV68ConDxkafRmry79Lxzhq3yVj/Dha/KuyPHYeI4+f2yPiQW3UluNwsRVnhj2BmR8DMBnerywDvgBYWWo9cMhAVb74ODIxL+ePH0ecZTF4DNBU79E6gnykG13HDoF8KljtGv/2EwSNfIDv28YXEnVU5wT5ANjQc0fAphRkvCjo9B/kGi/XmTodM2BXwf5dml2qt7V5418DzginoEnwghxNAZB27KFfBpqMxZ5+7PP44NEYU+1yWa7jGOyppx/kpKnDWLk9x18mZxzYopFnXPKMEa3sAGZQ/HekvfcMrCoDvgBYVWY97gDnmPGVvjeeDBwD2GeCD/mI2uHG5dMAfVU9ojW6hm5V8vWQahdFuBeg+RZAbZY6exTxBQbA6WkArc4TyNdg3gL5GtS5SEBA0uxhz3hJVo+cx74yvlrfkR63pLuAiqDFXgGTNAGNfLpQIxgTMtKMxZ7+9FM5fahD3zUOY6hO6a6Yy2TUcVzOg3KNTRq9zk95xml6LLrYihf7fQDMhferyoAvAFaVWY87KMcXjqX6RypxDFAUxe+sOq18GiCOk92tXw/eVPdRwEo+l3OuUb4Yq21fTMqy/J0A0HCswT7wNcijQk/6jA5ADjuTE9RVxkUDda24GM/80F2eXQx3pHNLOgcygh5s2VSW07RBvywWgZH2OahSn8fP5bke8XIZfXQsytirD+2g65PrOLABT3vVkWav48UbL6GJbX9/LJ+qptR7z8DxZcAXAMeXS4+UZ2CvOrYFAEKf5DFAvJTmDn7y6Jvqvq1fLo8R9F4B2seFgGmq6mIA6BqM41jNm/9avFT1BPe0OOCCAb01fa8AFxYcJ/hgvNqWOwDx/D/uAiiQddFdMoxLOXrwCp6kCZbs1SeXacwuOpeBR2PMyMW/HD+XgVfdQWn4cRz2fTLI0XK7/GmAwbT43Gjpfz0Dq8mALwBWk1ePahkoxsO7jzMR1bx8wUkdAyxW7fGtfriepnJfrOoB8HblE+4K8PqX+dB2Ws0+2+ybpwEUyA2kA5BTVgfWM3yt+NNiwPxY9acdBMawPukQz/jxZJRuAuQuwEFAEGCGEAexVRuCIHvEIH3YmDq+jkGaPcdQe8rUpouGTG1Bs6l919z7rosxYy9PA5SV3wfA5Hq/kgz4AmAlafWgMQPVsS4A7IuCTzuJY4DZdPb7BOX6Olrn96zc278ydwPwpkA08pFrfNryqOVf882fBjAVwZxVO6wXZAT1OlSypbzuk1xiAPi5E7BzbftirEQBxItPAdThE9C3wYva7oUAbQmEsIaMYElvlZHu8s3taQu5jsH4KuuKR/8uHWPkY+pYB40PH46V+zP3kNtS4HP8uwDIhLdVZcAXAKvKrMcdVMPqhcedhlk5+8Rxx1yINyyeStniToDuAESr3CbnYYWXCHXtDjQ7AzFWeCkQt+QB2qzgFcgpgwvloE0egFxkXCgs6BgjG2P3wt7V5iw63pRGsGKPoXJAJPhRTh62bNQxDnvolc7toO+Ll/uBz+N1yWCDpv5R0lwbdV3+Oh/awZ9zZyzq2ENOGr3y0Ud2AGwJ8PjsZUf6kmaM5X89A8sz4AuA5flx7REz8NC7XvZcA5LtI7r3upXV4IWrPgaws3jbio/fBmjvBMRpsZqP4M17Apopd/qEzwVzdyC3rb8vYIuEhWMAmAKkrbFKT6Bv8iSDgTWt8GGXeKVhiJj4p7QtCgKf/jT3AECUg14uy/UEw4PIc5s8NkEzl+d+HBN2aPTTHnL6sVcZaNqrXG1VDxs0yNhzHtpTn8vacdvfBSivzm74TZphcv7HM9CRAV8AdCTFRTeegfmfA0RX0m6yTwS/dyWR66D2vd2i/TTAYtUP0y6gh7yp6tvP/TdyWKkdOLtvoF4kDAfD34UkgDdBOqvYWdkHm+Ce3SPQsRsAM71nIC0e1HZW7MMOTe8BiPzBt+sJcgS9END+tMGuiUdA1Z4+6Lv8GJs6HZN0rqOc4+SxOSb9wHfZdsXp881jcN55XNjx2CXGKmf2SeaXR9r/egaOPwO+ADj+nHpEy8Bwu7pzVYmwCv3aqmIzbjVqjgEgy6t+2sW+fa7f2Laf+6fcym+7UbCakudOAmNO59P4cRgD/wTSrNhRpRutlT2r+SSrA5HXGJSlGPUCI8nH1RbnQZBTnuBFgGQPG9rnMgU6pRlXZfQ9SCzacux8bpBrbOopy/m+ODoOfbtiqx3pvIcfG3XgOZf2kwDD8WhUvIj23nsGjjsDvgA47ox6vJCBoho9Z2WpmFd3rvoYwADS7l/AMUC7io+gHa+sqegX7/qHRbctNHiLYLM4UDtowzEAXgrEqt9krPihD7QsCJKuBvOWnosF6OrFQ1gwIJC13HaQdgDa5/+w7QM/ABn17FWW0wQ7AqDq4U+5xsp9VNdHd82XMvbw7Rovj0kbnWsXTTv4s9GOOvKcg/bRp7kPoKqKZ+OLmozlvWfgODPgC4DjzKbHShmw1+p+VmKOmcDTAKs+BghTrgbvB1jH6berfMhYwWOR0K7ic76xpV0O+u0x6qcBIKxBPVXoBHSAed2SrrZXPi0OTKfvA6C8z5Y3AhK0ELqPBoBBz9ZnR+CjHYEPPGnGYgz6kIctafYqI81e41HGnjqODTkbZV02uU7nQR3i5PJcBr3KGnt9I6D9T2A2eAB23jwDx50BXwAcd0Y9XsgAbtZbZSpO4hhgVs6fgmuIoN1d5S/q8vcA9O8gMD8xRuZXFE8h+IceC4F6McB+oXq3RUFLxh0E+PXRmITqOSn7HA1IBbQumjL2fT7Q57oG8KCJTWVK98VXG8boGgsyldMWvcYgjV515HUetO2Lpba0UZnOh/HZ0x59uTu74Q9qaTynPQPMgC8AmAnvjy0D9ZZl+Mb9sQXNA53gMcBitd5U+G0d5M3WftwZUF4vIo/BnYZoszvf+ywD7SsB0OtqX2lYherdepW3KvrRTvPthHoBEWzhXIM++pYMutDs/NlAU0Eup2FGGYGrz4f6GLs586accTSm0n16jtdlm/uQR6/2y2iNTxo9fMj3+XM81asMcjSVMba+D2Aw8hcCxUz53+POgC8AjjujHs82zYuVbf8zvSd1DKBPA3RW6jahLvnizkCceZctNI082uHoAd8GCICeVegBsGtAb1X2lHXZIyx3ATCevVeQOwlcSEC/U+F9BWhlekEPAVMBDzTBSgEs+rZBTfWkNSZ88tiqJ01fjoFeZRqjy4d6zps84pCmjnEZR/WU0Ub9c5q29Ieefl066GNr7gMYDocru6GWo3m/mRnwBcBm/u6rvepy8LzVDhCjn8QxgD4NoGf+en2NvJEu7gxszaFtbJsdAJXHhUCMY9d3kSAdegB7iCHfB6hBPwC67hTAsNalXYGa74sR5MV+vWsQdwAgIyiCRiOYEcggI5jlMvr2yeGL1qdXOcfts89tYZf7QMam9qApR69+SquPyulLGXrGQd/nl9s3djiCqe8FqIrb/cuAzLD3x5kBXwAcZzY9VsjAaFj8hdWnwj4QfAIvBTIQfaEN9KH29eAufgB6+3w/lzV81/0DXTIuEOJoeBpgMhrH5/JRnbNqJ5BTZv3CTgFs0LAoyO3Jo5cYMG92ABpQhxyN4IQePMGLNPs+Pf1hR/ogtrBHow/ofGzGoY32tGdP2zwG9GwHtUEM+OTjKU8bjd0lg17nxBsxIT/OL2sinjfPADLgCwD/38GxZ8C+JvMZxx50IWCB/+3eNKvmv7mgOmZBNZv95yakVe72xr6uSr6RReuGb1f78d6AuCPQihsWFY0ExwDT2fQ3COKpkjeTsBiwPgG/gTllAfDFBhGpWxoD8cbT9CIgAhDBDHH6aOjQ+vSQR4v4V4GONEGRMehDXuN3yaBnLLUFzdbn16VnrL559ekRizrQHBN9n07lHC/tAJhy+vHpCSyqMQtvm5QBXwBs0q99ctd6+0kNZQfWe6seC8cArXf5hzf2cdR2Jd9U/VEfebVp3+3f2KsNYxt4VGW4mbJV/bPihxmqeDSVKV9X+bpQCD60h762gdvObJJeBKRvAuwCL4Ice/h30QQ01REU4cOmMqXVT2m16YpBW/aw6aK7ZIyHHuOg77PTeZBWH8aAf04zJnvom9bcB2CP1a70qZpmTKc2KQO+ANikX/uErrWYV3ec0FD28bzVfxvAAPKFV/f3/hQVefu68sqeW/iwi8cDcReAXrBvPxWwbJcAXvW3Aa4EADeelXwAbQPuwBuYk0ffskGQGuSTrcjC7gJ563UHgK+lJajBLKe7ZDnQEQxhi6Z68HlM1RMYcxnjMHZXjGU6jsu+K77GPMg8umIgPlqf//I5Nu8DGA2H/ihgTKX/PcYM+ALgGJPpoQaDh9/9nG3coX+CuVj5twFwLXoMcL2qHfY50C/uBMAKgN73lUAuFMLTAO8NIM6qPbqGv1wYpLN8kyYZLMyHwN8pr6v/YAO61drvAiDA0YQ8wQ1y0tQpiJIm6NGGPuqf0/SFnE1ljMGYy3T0py19Ie+j6aNz5xiUsdcYXTYcl7r+cZsdgKqsVv5kDa/R+83JgC8ANue3PpErnVz9FDurrOw2gJNrJ/E0wHxYfRKvaFnVHoGeOwH0yPlm54AfAGosI6U7B+FpAIjrSj5V+VnlHwBeZNwJCPLc18KpPel4BMDKMwIQgYoApzzBLgc12mDafTR0aH16lXOcPnvYHlRHW9ij6TgHofvmkucAsdW2S8/x2HM+0Ve/DFg8/cFH77kFcm+egePKgC8AjiuTHidkYG86+xQrO0/0f1cncQxgX+h7vj4NsFjRt8/2kYxmpyD+j6Ph8/P+5mmCxib64G/9bYBdAnrXeX+q4FnFc7eAwI+FARrloKkTOh4BRODvuwcA5gQs9OTRK+BRR1kOgLle/WkLGRrHA90XT3VdNGQaR2no0Bhb6YPOpStel6xrDIwHW44b+TJ+FAqMtf0nis+IlP/1DBxPBk70P9THM2WPss4ZsP+IncZ/pE78aQCt0A1JF8728RvpTkHOR6CPv6QeF9BH9eHeg7J6D6v0BNwG4FwUJJ2FpCzYKQ+abwesFwrBFouDeoFgX59LxwBd9wDEGS8CJUFSAS+Xqe56NPQYq8vuerp8XM4ZPcFXbSDnOOwpY08/8Ernc8l5+rOnr45Pmj1sY8NODHdjbNziJJ6u4djeb0IGfAGwCb/yCV6j3eP26Sc4XBrqpJ4GSAPWRARqreibah4m1Ae657y/vZiIgXNZeBpAQRtmrOZreQB8ymKYtg11tCcPW8iMn+yNL9IV4ENQIjAqwMEOesgoJ9/EaGwg67KjTz4W7A+iUzvQXWNAxli5zTL/XMcYnCt60hyjyyeXdc0RNmgah49iQl5U1bPRe/MMHFcGfAFwXJn0OCEDJ/MOgMVkn8QxgIHkwkuBFKgbsJcz/vn+iLPtPu/HgqGxj7aLMh4DAKhTtQ/QrsE8femPMuvznYBgS7mBfeKxKwDe2nR7dpXzBfgoGCm9DPRy3fX8qGeP8UmjV15p2qgMNMcHjUZe7SmLFs14at+ly+cDXuOSZs8Y6FWWjw8eeti16eY+gHK/9FcCI0Heji0DvgA4tlR6oDoDJ/YOgCzjJ3IMMAyfCGZl3672m8WA7gi0ZxkXCY1f3P5v23fJcAxg9yH8dohG0MebAdFYyUNuNIE/LBSCQbThdn8uDzx867h04Q5AFzDRRsGKsi57ymijfkrDDjzslFYbpRmXsrzP4zCm9rDJ/cirjjT7fOxcfpgx8lgYH/F4DAPaXtt2KrtrYWz/cy4z4AuAc/mznupFffJpjX4SxwD71fSZuL4I9vF5/wjqetXdFb360adZNDT+izKLZ8cHT+4+mc7qAdZdOwFxjPpbATWotxYEBHrrKSfwg5/Pq1CFxtnEHQDQBMQGmJot9VzWZZ/bEBxhq/RRxmEM9owBPh+XNuxVr7I+QIYNms65j87nwZjsY6RmjmrfxJR7AIbD59DHe8/AcWTAFwDHkUWPkTJgj6wFgEyCEyRO4hggfxoAlTkBu6nuG1m8fHw7AM/1N5U/fTQ9jX+UNrzFs7cPFuPhiybD8dVU5QPMrSUgR/WP7XyCPJS6O5DZpspf7JqbAOMNaARImKARvHKwgk5l4NFoH7m2DXX0Y69+15NpXNjSl7TqG1BtQFf1oHU8pembz7nPR31zOvfpig2bOJa8C6Aq/B4AJMbbsWXAFwDHlkoP9Mp33GPgf7KPAGZZP9FjgDh2DurduwIR8PkRIZ11s1tAG2pzHouN8G0AM9Dqv4sOiwID/7QYqGm1hW7BjoPb+T/IZeAEYIMNe9qqH/URzMDFRh8FR/WnvkumMRgXvdqSVr2OxRhqp3rSnAd5+JGmjjGgy8ejjLbg0dQnjxctmNdmBwDy+P8xWnjvGbixDPgC4Mby596SgWKvOLXtf07jJI8BMCYf4WuqdUibHYC2nEcHeg9BYxvjtb8ymPunpwG0yg/zsMofrZan6h67AvyKYDDA2LUtdwdMnnYRahue/4NVsKKaoEUevcpIs8/1jMk+14NHU/8oaeYDX9qw13hKa5w+WuORZgzy6ksd58U5sM991Jc0e/gwHv3YQ8e2Dv8f41y8P/sZ8AXA2f8N1+YKLlzaspcAnW7DMYCB1+4qZ6HHANzKZ7UeAbsZnfL8Tv9G3tiCauRxZ4E846anAcxWq/dU2VOOYHVTHRYIiecigjKzH03GtoZC634CIAclBbDo1wZtghp0Sqsf5ezVtkumeqVhq7zS1HFc9KoHTRloNPJ9c2As2NIm76ljrzFzmcajHXvYoo2L4R2B8D+egWPIgC8AjiGJHiJmYDqdfdrp56K6NCyK31v1PPg0QD5OBOxG2lTw7Uq/sdDdgEbaf89A/TQAq3eAeL29H6p/yi1UqvwJ9KZryTCcyoydT2e2kxDP/6EmoPXR0EOn4KU+lOdA1mXDMbri5TLGVTnHoI68jgV7tK55R01zzV02Glv1jEk9efScB3XKQ8+2bJ7JZm/2dNLeewZuNAO+ALjRDLp/ysDWaHzqRwC4B2G/nF9Lk1oRwacBYvjmHD8fjhV82AEILwKiRePTshnhCKDZCWDlTy/00/l0h1v94NM7AMAA7Os+VfrGc4v/erLRaGzj81XAi1WyglQfTaDDNAiStCWvNrBDU2CkvcpVltOwowy98kpTx7GgQ9P5dNG0pz/Hit7xb+5HH9rQV/nchzbt+M19AJMLw1PfZeP8vT/7GfAFwNn/DdfmCuZl+anrMJmTPQbAVv1idd9U/syI2did/OTUp7FdjJPvKMAfxwCT0Xg/xJKKn3w645fKPwA/DJbJTD0ZjuzdAg3gwKULpAhubaCCdQPEoGl3kBgEP/ih5TxjMGa0WhyDetrDrotWGceiDD3jo9fr7NPlMcjnvpRzLMQnzdjkoeOCDNTs2vxZ6L15Bo4jA74AOI4seoyYgeHAngI42S8B9qT+ptFgFF+a02NwHOJ4DIC7/tmWV/W0CrsBdaUPWbMDQIsmDiVtn2KyN9v/zaCrAV13AbqqfAK/3jewILOA03Je7wA07wDgHBSUFNRIdwEbfWkDnnbUaVzS6KEnD5ox6N/F53aMQ9s+vdrlNuA5D/Zqs4zWuPTNZfRnn9vxo0zQD4oT/dR2GNL/nN8M+ALg/P62J35lRTF4CrbgT3zgjgH3qmmrguswuWHRbDC/jUFiFZ9X8O3dgWWVPuJ06btksA2fCOb5PXcBWN2zVzmcyBvJI4Ekg0+rxV0AghFUCqIqPwwNW8RSHwJ6LlOefl1zoA49aYyB1hUbNpSzj9ZxXqDVRumu8ZfZa1yOxV7jgs7j0E7fBmjvaTi192zwWrw/PxlYi/9Yn590bviVFINPWpcMnMQxgFXQ6dsAi1v1qOLx8p+mNZV+V4WvOwHXf7dAeBpgMPh4qPa5C4DH/QzkMWIC+BrYW7zJ0i5Bh2+ccfMCGvAEKAIge+gOSsOWTX3y2LDJwVHtSaOHrfK5TGP1jZPHWDa26uCHRllXfJ0b9eyjd9uf9owbbZqbMofj4hb6ee8ZuNEMtP4DdaPB3H/DMzCrnrpGGbjJvnDzH1Y9n66nAbp3A7orfM6vqfQh4QuDmoUAZO1FRnga4HfDNn5wGYzTYoCVfg3+rSq/XiDAJd0rkNubjtvOBCQCK8EO/l0y1ZMm4JGHr9Lg0Shjfz0Z9eg5T5WBRqOua77Rohmb9ug5D/bUgVeacdmrvdLwQcvns4znWLwPYH+vuilG8b+egRvPgC8AbjyHHqHOQDkcrNMCYDCv5nLT3Wp+pmkxlycfImC3gbqp9psdAM5lURcXAs1uAHl6aB+eBqgFCuYLZ/ta5TNAxy4AVei57awARpqgxJ5+uT4HtoPa0S/Oo13lU9Y3NsfI7fKY9KecPfxUl8fpu0b1A41G2z6a4+R2sMd80DctHslMLoxueeTRQfrCZKN3yjNw+Az4AuDwOXOPjgy85m33PW1dzv85vbIq71n1S4GKcvBZZVl9CGPqln9T0eeV+/KdgPbigQuBeEVNzMinpwFYwUOcV/3RtDn/h97sw5FAvTBIvNnGpwDgFAGHQESQYs+w6AmetCWvOqWvZ6djgIZvLuMYGqvP7qByxoI9Wj62zoG2Kotei/lQG6Xza6AOPcfnONwBKPfKm37yTYPwqCjH894zcNQM+ALgqJlzv1YGhpeKW1uCtWCG27OqjHfLr3A+PAZQ8G6qfavyW8//E9S7vxnQTLPZHaCsFTM8RVB/G4BAbn0Admzz17L0dABtal26BwDBTRd4I+NTABAO02d5CUyQErSW0bQnkPX59NmpPcZBUxnoXHa9sdQ/BLQ/+fh5DI5De42R2+bzUds+muPDV2nas4/6YXq7ZVxsQ+rNM3BjGfAFwI3lz73rDFT7g2dsajL0aYDFHNgOQOv5/2gRq/nD7Q40OwCNn72Q6GK6wY87AQB7NPJGJhvSsiBIuwGm0x0AAJCJWuCrQNVHwweN/rRDTzll5NF3yRQEYYPGOGofNe0Y1NOeNozJ+bGnnn7g++jD2HbF6JPlY3JuPJKBfnptfw0X28yI92cpA74AOEu/1hrP9f9v712AJcnOMrHMrKp7b/ft1zxa0ug9i2SYBb0IxMMCxCOMQAbF7loaQkIzMoEWBDiIDUds4A1jh9Zmvdi7mFhjwstjsVmjNSvZK2AXJDQDGs2MtDOjeUuApJEYISEk6Blmpnu6+/a9VZk+X5371fnz1Mmqun2rqiurv4zo+//nf52TX/a9/3lmlherlXxF6TKWAdwIenQaoH5eHw8M+wL8P5/A/UO0swVe4m04yre2Xm9nDihxE/VV9So3ej+PZD8a9fM0AJM8R/ip0b8LZWcD7AwAakGiArVJM5ZZfczbRMcYKZsmWcqfcUitbyyLdSgzJu+DlL6g1s7yKdtYBnvGSvHTZNaXsbkkA9+s2z02pPohBA6JgDoAhwRQ7h6BYjNfqQ2A4bkUm8s9DeBH53a07vcGhFF7aFt9P4DdQ8AOQojjveIyTge4jxM9Okz+MEmN+pH43TXaKMiOgZMPZSzDaHT5PQAsIhExMZJaGfmQsLxnnMxSvnEdNpa1hx3jUU5KH9qAsi1WZ3n6whaX1ZEH9Vr/kz7UQ5qSUR/7sxzrKWddjMky9wCgfHSzq6OAARhxh0BAHYBDgCfXgIDbCLcRSqvFLf80QH20zmTuUamv7XPED13dzlsHvT1hwGOC3oanAUbT/Ejow3g7+WhmwJYdT1uu/Q/LrkMQlgD8ewCQiKYlK+pRp7VH2epQxkUZKMqxT1xusmcsG8PKwONivJhvqp/1WXvEQDn2sTLwuCb5e4vQabBl6zdeT+iQ7e6WK9rZ5t2ItgUBdQDa8qRWvJ1FUbm3AK7mtYxlgHAawCfqGIkwch+fCQg67xWXIfWzAyG27SzwE8FM5sMoZlQ/WuOnjLMEiXJYAvAJxyYl37qQUJkUbYK19uTjZJbymyUG/RiX7QGlLKZWF/Mo46JPiofMtg1lXNbHS4KdbSd01t/yjAEa2zEmbewMQJW5A7e6hMAcENB/pDmAqBD4Tnlvy611l6uJxXJOA1T9/mcxJe8TOJGoj9zH9whw5O9PBcDLjvoZizKWGd1T51tWD4ztAYDSJXm7xs+RP5cM4nLTDABC2eRl+ZCkYOUvK7O2lqcNKLyoA0WZeqtr4ulDCjtcjBHXAV1TfbSFDS7GAG99aEeZ1YPnRf/Ynm1N+Y/rwgxAdzM/wtiiQuAwCKgDcBj05DtCYJAP3BLAanwHYNSoJTNVx++DsKNzu67vk7edAQgjejR1q7s5XEbxdtBZW38zjB1svHxQlf4NcRzdQ4w1fmwITIz0h160hX7/4gwA3wTI5AV1ik/JYGuTGm1Arc4mOchpZ3n6TNLFdR20Dltfk2+qHWx/qm3T4sRtborFOHYGYPfs4CjkuoTAYRFQB+CwCMp/iEBVViu9M3kZywAu0ZrTAP4/BhM2Spb3MwHRtwL2jwt6u/33BETvEPBRGSvYcBlglOz3k35t9N/ZGr0ZsTbyZ0fBUc4A+GNn/ouATH42aTFhxTLa2qRIG1Lcg+XpY2XgrV1KRyxsXSkZ9E11pOQ2Xqy37aAurpPySXEm3Rv9bVx7CqB3pLtJnagQOAwC6gAcBj35jhDIq2LFRyXLPg2AdfsN98a2+igfgNVnAqAft/HAuhkA8w6BdDza5L2yLB8eJXYm9dTonyN/Pj1nM+woOMoZAK/y08426dGFSYpJjmXqrQ9toIMc1MpQxmVljGdlk2LSnjZxPXHZ1kffYSPcD8Zg2dqCp97SWG7L4HnZ+7F83L5xXfg4k/tiszoABFT0UAioA3Ao+ORMBNyngFd+XXLZpwFqI/lhZ8CjZWcCeETQzwigw8CrfloA0qZ4I4+qOjoa8TOpu2QP/egIIArsFDg67DDABjJ3cQYAPC4mxzjZeW1I6LHeJjDaMhZ1LFtfyuhDHcr0o44yUGvXxNOfdcDOxor9bFyrYxyrB2/ltg4rhx0uymhHyjbF9dkZgPJSte2j6KcQOBwC6gAcDj957yNQVdnFVQdjGcsA4TQAR/rptXxiFToDXO/njADLtGyKF2YP+IlgeDSu/XNmAEZmJoAzB3YGgEkKppP4Jr1NatYf9riY7KyOMpsAvXU6ydPexmjiU3GabCGHvdWzLts26kmtD2NYe/I2FttFX9LYdmRX5G7DrS4hcHgE1AE4PIaK0BoElnkawI7YAVA8om8qu1ME+5sBA6w+yXMGwC8FeK3dZIhNg+6lQMNPBI9mAoZVu9H9/ggfxZHOzAQMZU5nZwD4+tlJyQ3xcDFZkR8K939M8qeOydJSmyQpj+s5rJx1II6NzfZbGeuirb1Xa0eelHb0t/JYBh3rjv04C9DZylf2nRu27eJXHwF1AFb/GbWkheGYUksavLBm8jQAK0iv+YcRfl3vErRZ90eMSe8ACDMIvja+FGg0zc8RP6lJ+qNTAk7HDkKn09nfKIjnWQ43zzEpxYnPlskzobGMVtmE51sZRv+TyqlYNm6Kpw/jpmyga5Kzral7ZkzaMA5pyicls3UzppU18TwJMNgt1QEgcKKHQkAdgEPBJ2ciUOXZLvlVpstYBnDJtHYawCbpsOYfULL6IA0zBBz5j88i0DrYjk4DOBWn9Tm6H438Yx1nB1xHYDAY5D4qNp35UwAoMymB2nLMMzmSNumtPI7JMmOQwmcaD721m2ZvbcHzPi0ft8f6MD6p1TFGLEvZpmSxH2cAINclBOaBgDoA80BRMVqEwHKWAfiJ4BgYJvv0jv70Or//nPD4XoIQI8wm7C8DPDpa32dyt9Ql+mFnYF/GjgJmAcIMAFruZ3VsUmSiAoWF1TFRQo6LNvSBjPaktIvL1pY2sYw+oLQhTx3lTb5Wbn3Ik8Z2jGv1vF/KLIU9L8pRtnzKnz6ehpMAdblKQuDyEFAH4PJwk1eEQKcoWjEDEDV7YcW9fPC8EDyM0ClrGtUHOS25JIAz//Ur2Lr45n0Bw2UAJHeb9J3r8CQAp/uh2+ftzECYAUBd9YSDZAWpTegp3iYy2KeSnPWjnvFJYxvE4kUflkGbZFaXis322vqaZKwjFcfKUCfjxbEotzZsI2WkrM/rix3Qqp+5o6O6hMDhEVAH4PAYKoJDoMyq1nQAlrEMEE4DjI/c+R8mXvuvy8PufsjDaN9b1ctuBsDsG8AyQK/T9c/DJfnhCJ+jflYCOV8MZDsL1DvKtwEyYTGR1ZNSffMcbU2YUSKEjEmSMUihY3zwuKzOS8aTqrWxdZOPY1LOeKyHlPaIm5JRT2rrZ0zI6G/rs7bT/OO6/XJMOdz9n3ezsc4g6xYVAgdBQB2Ag6Al20YEOlXHJZxV/RZA3Gz38eIsvz+Wzrs8+jaAGZ3bdXwuB4R667v9x239m/8g5+jfdwRCBM/lvUv93QcpHU337yd6TvnbkT87CfQBneUUABMcqfcb/4Ig9ZZaW/Bx0qRtbNckZ4KN4zT5Iw50vGzclMzqJ9UBO2tLnhSx6c962HaWQev2fvRv9eKFwGERUAfgsAjKf4hAf7f/pFt/bs3/p71qsPC28jRAGJ1Pnw0AmGF0b9f2+R8NHxsKrxAOnYj6jEHlXgo09NhfBmDSr+0N4MifswP7tqyJewBsIqIOMvA2cR1ExgRo/RnbylIxrZ48KWJM8oEdbVI824AY1FNm60jJrL6JZ9voz3oob/bzo3/6iQqBeSCw8D+C82ikYrQAgV5+vgWtHDVxGcsA8WkAm7h9Q5C0/b+QyO37A+K9A36t39oyThx7/zTAs0O9S+yj0f5+0q+N+NkRGKETGCQklJigqLFy8qRMarBtkqXipWSMYWPGPGysLFVnKrb1IU87xCBvdXFs6uI2NMlj/1n9fGfMb8rUHgCgpmseCKgDMA8UFcMtUeY+2bQGi+V/GyBO3DwS6F/8Ux/B+1mAeAagvtYfzxSEMh7C8NsAnxyN/J1ktOZvR/yOH70PwNmEUwA+2dhEZpMiasB1UJm1tzzqieOxbupYHla8/wMxrB9jUk5blhnDxrT+lqcPY0JHv2kyq7c8YuCysmk89N7Lb8rUHgCPhn4eHgF1AA6PoSI4BDp50aoZADy0ZX8bwP9HCaN6dgj8EsH+l/32vxlAnffBz+BHmbcJpwNY9h0B59H0bQA7CzAMHWYIwikAn2xscmK9lyNj4mQCRizLM8nFslTZ+lIPGsvjclMd1o48Ke+VvqSsF3aUgccV+1hb8qSwn8RDHy7fKcvKtnW2wx2IWy0E1AFYrefR2tbk/bJ1HQAsA7i33ix05oKnAcLoPB7VT17zn+SH/yxBH/7rsPMw+jYAEj4uO9XPWQC67duEGYCQyGDCpAYeCWtWGZOjpbE/Y9MGsXExMdKeZejoY+1ieSpebIMyLhuPflbGNnjruj1lbB9tSW0cy0/Sp9oQH8tkvaJC4HIRUAfgcpGTXw2BC5f6z9QErSgU7rOq1cOLbipOA3B0nqprNt34DABi0Zej/np8NztQVo9AxjV/0lFnwCV+K3PHOTuMEZ8CsEkJNkx44KmLZUxysMFl9dRRFpdje5s8h8Hcj7hexrC2jA8fylN+lDF27Ac5ZaRWFvNxvLjuJj3i8LL18Fhm0cvchltdQuDwCKgDcHgMFcEhsHmqs9CR9KJAXuZpgHi0Hpdxj7EslOszB0HukeGoP5YPqvL4aOe/Mx0dCXQzAEz8I5nTV4Oy9BHxs/4tACSjoAvJNCVjsoNuEs8kWE909XcLML61Ic82pepgbKuzseK2TYpJPxtrUt20B43j0o82sd7WEXi8llknAYiZ6HwQUAdgPjhe9VHK89XftBGEZSwD8DQAR+suzQ53/7Psk7ZHjzJv0zzCt3ZN/ng7YG0ZwC4BuOpGid/MAuTulY72OTI5QYZkBEoZaSyz5ZhHGRcT2ywxYGN94nZAF8eBjFesoz/bEJfhF+sYg5Q2oFY2C8/6ZrENNvvr/6hvtzqLenUJgcMiUPtlP2ww+V+9CPzhO+5r6bTkcpYB6t8GaDrLH/7/+BMC4WSAT/hWvzHwnYT6zECw4ImB6DQAR/62M2D2AxRZ7uLi8gmHidDL/E8rCwmqngitDXlSRIEfqJXFPO0gB89rki9t41gpnzievZdYZ+PRjpS2oNauiad9k75JTr/eiV4ND8pFhcBBEVAH4KCIyX4SAucmKVdVt9vvD1+xusj21b8NwJG9rbG+xs8Rvh3dW2vqrQwdgpR902kALgHY/QBhD4A/BWCTHHlS1M1kBYoydaSUkdKONLajHPa4UIYNeGtLOe1pAztc1nYWvimOlZMHZX2MzbKvPbSbPrSzbUvJrD7m2Snrn9u9wHpEhcBhEFAH4DDoybeGQJ5nrZyarIrqFcs6DcCpfQLnEzZG+umRPEf+wc57psvpGLVlADfaZ8IfLQFwVoCNcpQbzmyyszyTFxMfaWyDkEyCVseqrIw8KWxYD3jKSZv0sS3KvKwveUthxzJ4Wz/KuKzM2lreW3pb8FZn+RRuVh94dMh8p6zY6F1ifFEhcBgE1AE4DHryrSFQZe3cB+D+sC7lNIBfBsD0P6bv/cWRvJWlRvK0YweCZfqxo+CjxjMB5jQAPgCETkB0DTsDTu72RLi+EBKX33Bmk53lmZhAYU8a20DHy+rIk8IGPCnjsR7KQXnRhjHoH/vYsvWlPSl1jIey9bVy8vS1djHPuDYebFiepGc9HP3Dtqz6F62PeCFwuQioA3C5yMlvDIFOVfz1mLAlgmWcBuhng+sBRz1Ze4CCrHk2AJaT9gaEWYHxmYD4NICvdf94IPcDOFrkrpsyvMb3ADCxkcKMCdD7hIRJG1Lom/iQ5EJHgvFSOspYd1NcyBGH9pa3vpAzBn0gw2V9aQP5QXhry3oRAxfjp+TQB18/+ocs62RPD6l+CIFDIqAOwCEBlHtAwK01/1UotYtb5mmAgEw8Ukc5fOjH29Vt4pF/iMWORf2NgtTXlgG4698pOfKHHfYEcAaA0830D4koJC3oIAeNE1mc0Ogf2zNGbM94ceyUf8oWfrxYN8pNPOtnLJat/aR4k9rFmKwf1Mqa+Hrd4RRAeals6YZbIii6KgioA7AqT2IN2lFmbf7DtJxlALwUKD1Sr4/80zbhP0mYMQiytA9PEtRPA4zW/zn6d9P/kG10NoZLAJhytgnIJinKLUUrYhsrg45lUOtLnZXRFjLLx7ZxLJR5sT2TfGCLOlgP20A5Y6BMPo6X8rH+03yt3vK2Htsh6x3ZaOWRW9ybrtVCQB2A1XoerW5NN++2+g/TbjU4sugHUHbz0xzF+7o4wg/v9IecNj6ps1W0ZRk0yOjjtZSHPQfxaQDYxWdUTxEAAEAASURBVCcB9gZ7+yciwotnmBzjBGjLKZtYhvqsDGXGIA/KC7ax3vpbnj6gs/pYf/qAIgbrnhZvmp51MB7LrAf+uFL6um2YAWjvkVt/r/q5OgioA7A6z6L1Ldkd9L/S5puoqvLrlncaAOv52AwY1uvDCD6gGEb6s88QxHEZo7YMgCr2R/2htizrdXo7LPMkAJMj5JZn0orltGGSs3YhdtgEZ+1sLMpJbRzyoPBh+aD8JP9JOtZDOq2N1JMyNsq27VZv+TADUJ1BnbqEwDwQUAdgHigqxhCBolu0egYApwH61eDBRT9OLAOgDiZm1scRfH3UDy1G8/W9AbS1MwD1OCxZak4DuPX+oWZ/CYAzAWEGAMnenwRggmpKWrEccZnYmnjqSYdt2f/B+lBkbMpYph/oJF/awSbFT/KnPWkcg/VaPWVsb+zD9qfsqKMvy76NfgbAHbVt5Su3eb+iq4WAOgCr9Txa3ZruIGvtKQACXw7Ko+QXRatOfk09NtfpvdR2DOLRPP3CbEGYQaCONNhQ4pKg/TYAkj8uMxNgZwAm7QOYlvSYxBCePBMaZLh8YguJOS57q/pP2jAmtJaP9VY3Cw9/2F1OXBs/FYd6UtRh7VC2l70XzgBUlU4AWIzEHw4BdQAOh5+8DQKXLl5s/fTkMl4KxG8DeOji0T06A1y/j2cJYrndNxB0fCScJbAzCnYZgKN+vhgI1M4AII5NUExcoNSRpnST7OBHPX2tjPUyCbJMG8rpa2PBhnrrBzku+lje+tN3aLxvb23B27i0tzJbR6yfZGf92Cbv72cA3CmNJ1C/LiEwDwTUAZgHiooxRKDY3Gz1HgD/GJe3DICP9dg9AKjfT/XXR/VhJF+X+/bGewl8B4I6UDujgPqKrPgTL98Z7vgfdgT2HTY7G/ucPwWAAhOWTWSQM0HZpEUbKwNPW8aCP6+ULPanLWjKnvXSjvXZOPSj7aw6xqQ/yvS19dAONLaFjD7Uk9oYcduowwyAWwUqs0He+lk23Leu1UBAHYDVeA5r0Qq/O7kyn5Nt520tYxlgeBqgv7v/0p2AUz1ZezlH8sEKXBjxWx92IKw++PmlhtEof38JwL4LwO2B8HsDXMJp2gMQkpKPnEp2rJNJz9qQj5MdfGbRNdnFctbN9rIMO/KTdCm7uH1N5VnaYuOD58W2sUw6uFTiLU3qABAQ0UMjoA7AoSFUAItAnudftuU28lWRf8PyTwPU9wGEUX8dwSBPzwaEzsC4nhsJ3VsPX+PW/Z8djvz3NwEOlwFcVYNyYL4GOP4uALQmTnpMWDGlLSh1TTz0s+poy3bAj5etB3rIacdybGPLTTxj2HjgaQ+aKkOGi3UzjqXQMw5tGc/7hbcAdjbzv4SNLiEwDwTUAZgHiooxQqAsq8+NCi1mln8aoP4GvzDqDyN9wNkkHx/x1/2C7/5DKatH7Mif+wE6RWc0AwBLJirwSEo2MVne2sY+VpfircwnvHRCpM7GJ08dYuFi20hpB53loacv+ZRPk46+jNlUZkzGidtBf8hpQx//HQC/B6A42vsCbHQJgXkgoA7APFBUjBECRZU/Niq0mHGfxd1edPPHTwPEo3bMCsSyeM0frYzt6uUwaxDuaDcrT4w2//EUAE8FDM3SewCY4JikYMpEZWW0Y41WF/OMQR/qQa0uLltdzDOhkkJveZRxNcmgs+2AXWxvfWlLv9gWZVyTfKhL1cVTAO5ZawbAQ6mfc0BAHYA5gKgQAYEqH3w2lNrLubfmuWnyarEfXamyV7gZk/0lk3jEjnL97L9P9JwFILaxXVymfX2GoSwHr8YywDAKlwEYckixByAcibM8kx0TMt1iG8gpI7Uy+sUy2FpZqsy6m+KyjbYOK4v9bH3gm2wpB7U+cbyUPo6LMi7GBG/jUM5Y0Gd9zQAMcdCPuSCgDsBcYFSQEQJF589GfKuZvBiU5aOLvgX/iWDUYkf69RE82xB3CPzIPvjFZfoFGmwh42kAvAfAngTw9n7KGQkJZZuMKGOyYpk23t//tLLYzupiPq7TlsHHsaw+jkVbUOhiW5ZBeTXZ2liwtXVRZ2Wz8NPr8i9kQn3XbN39JVBdQmAeCKgDMA8UFWOEwO6F/losAeCGlrEMsFvt3TACzzFM4l5WnxUIG/y8dnK57ju+RyDLRqcBXDi7H8BHd8fOomQJeSpZQc5ERx/akdIGFDLS2B5yXrFdKhZtWT/K1s7yKRvWwTjWnjxtWIZtqt2UMZatjzxt4li2Dvhbvd8DAGl15n03Z/ubNFHWJQQOh4A6AIfDT94RAtvPf3p4xjwSt7K4jGUANwr/mm7W+QIBYlJnR4Bl6kG9DrME41fQhdF+UyycBuh1urujvQDRHgAmISYnJi/WSj3LoNaWPCntGAeUOvKksE3ZwZ42pLClnH62DBkuK7O+5EFjuyafYUD3g74sW3/4omxtbDz6WBnbYH38+v9wRuYv6CMqBOaBgDoA80BRMUYIfOCNn71UVNUavBAIt7ScZYBLuzt/PgJwn6kn/vpo3uvqa/r0r+mGLxriHgBa1Olef+/jkPAUQND6o2c2OZEHhZ1NUtRZuU1mkNMmptSR0g9lXLQHP61O2pNae8tDj8vKbD0pflYZ4qZsZ6mPfqTep3AfaCq6br/I51HWJQTmhYA6APNCUnFGCLg5ys+MCi1nlvFSoHAaoD6qT43mAWdKHmQE3M0AJF40FNvtlLs3mW8BPJtV3Pjo9wAwQYIisk1Mlrd2kFtba0fe2sCW8VNxmmTw48W4KMexKGOdjAd57Jeyie3jeLEP67ex4YPLyhg3tmc8T+0LmYrHfRT9FALzQUAdgPngqCgGgXU5Cohbqors65d1GmCru8n38A7RrI3mh58O9iAHuS/jJ2U+wQd54HznYtwuP+2WIT6GZYD+oP/Is3sXr/U+9RkAm7hSvE1aTGhMcKEN9RE39LSlTSpOk8zGt7yNxfipNsMu5UdZyneajHXHsVP1T7ov+of1f3cA4GL5aRtfvBA4LALqABwWQfnXEHjLe7NO1S8fqQlbXVjOMgA+ERyP2MNoPaznWyiDPkh9grezBF7nTxCEGQbaQbvb33uBG/l/tF+V/2nPDTgh62xh2rmeIJmwpiVIJrvYHvFiWco2rpdJl/Wm9HHcWWya4qXaxPiIi4u+llo5eMaxctjPqovrPHJ8Y21m1oCBriuPgDoAV/4ZrFULsEu52y0+sU43tYzTAIOiek6MGUfrQX6ZewHc7EGIVY+B2P1s8OKdcu/bQz1IXjh6Vn8XQJy8bIIjz6TFMmJaPo4R69kG65OSWf0sPGMwYcf12hjWhnzcbtjbGCzbelJ6Ww95+rJs/RgP9Hy292l0sK1MvBA4DALqABwGPfkmESirC8ONZUllC4XLOg2AlwKlRvVBVp8JaJID4mZdPUb8OPIiM6cL6t8CoC2TIspNScvaWD4Vw+ptPNqmZNZnGm/1NhbloKwL1NpQbmWWZwzYWd7aWJ42rDOli2OhXA3KnbtueeDLOgYINHTNCwF1AOaFpOKMEPjQrY+ez7Py8yNB65klLgMMdt0Ir77Dv2n03iQH3EFH8MdH/ql3Awz2BuYLhX4GABGYuBiNMlCbxMiTHlRv64lj2FixjgkVNria4sRy2DIW6CRf2k3yYTtYD8v0ZR0sx7Fie+hxbR7Z/IRG/x4L/ZwfAuoAzA9LRbIIDPIHbbHt/DKWAcJpAKCVGqnXZVvDY35Y17fysM5PzP1sQLBpnh1wHkWx/6IZnAKYfBKAyYzJDvVZfhY9Ex7bahOjjUU7K7O2sb+tmzpQ65OKyfiTdIhDu5hnfNbPMuwsP8m/HtNvxty5cOkzGv0DGV3zREAdgHmiqVgjBKqi1DLACI0Zmdq3AeiTGrl7nd80iNkCXLSrzx5A42cDwPmLswO+I0Dpvn9Z1r4GaBOVTWCz8EyirIGxKGcZ+lQ8K2MMK5vmb+PCD2Xrk4pJO9ZDamNN4hkfFHZxmfFI41j0s3rYdI8Wn9UMAJDQNU8E1AGYJ5qKNUKg0+mt1UbAZb0UKHwbgOv4YeQOcMPofQT1vszaWd761GcH6h2DfZ/9GQCeArCJiMkMNU/jqScNrfXJHuVZYsMmtmWsWfxt/bPyiG9t2QYrS/FWxrbRlzS2sXVRBwq534gJzm3U3Bl8SjMAHgv9nB8C6gDMD0tFMggMOpfuNsX1YPPs+KJvxH4boJ6gfc0cvYcRfzzC50xAaCl94o8JeYu6fZ67QwHu4ikAz9dfv2tl4HkxgaHMhMdESBmTGyn1pE12cexZ/ZviNslRPy6rZ11eEzoHlMM25ZOK0SSz/oznl2D8MsyJ08f1DgA+ANG5IaAOwNygVCCLwO03P/CMSyZr9eUy93XAVy36pUD4NkD4RLAdvXt0wwxA0yi/LrfPxHYomuJYe84CxMkXNpSRQpZKblZvedjjsjImPivzVuOxU7YpmY01jU/pKSNFe3iftj7IaUNKW1BeVmdl4K0OvP8GAPYAlP3fffOdD9FeVAjMCwF1AOaFpOKkELgvJWyvbHmnAYgRR+8Y8UMWl1N2ybV9Gu5TxqnbuuS21x+dAuAUNBMeXH1i8kkQ5VjHpAgdLqtP8VbG2N4zJETKaUsax6fdNH/qQeGDeODjuFZGG9ZhbWGHizZWF9tbHXlLESe0yY/+86L4JOS6hMC8EVAHYN6IKt4IgaocrFkHwN3aEpYBym5+egTiiMl7YdQOIcsjg8RegPiEwPiMgp0VQKROx78J0E4/h4QU6mJio450GMMk1VnkSIAhckjElJPaWLGMOlLEg40tkye1NuCtHHxKxpjW17Yl9kEZl41t7cnbuN4DP/dfx7w3uD/IxAmB+SGgDsD8sFSkCIH+3uCOSNT64jKWAfIyuyksA4Q1+njUHifvehl+m2O/34xh9xD4h+Lr2d3d2/Rln3yYuJgQmagshT3Lk3gfNyRDxiRtipHSW5mtEzFQtnrLW1va0QdlXLBnW6ijzFv4n1ZG3lJY2TjQQUZKHWWsy8qh6x7pPQqqSwjMG4GxPxDzrkDxrl4ETm8/6I4ClpfWCwG3DFCVDy/6nvBtAD/tP76mX0/0viVhdoA7/b1fkMd2cVxf3tjoJZ8XkxMTHKLZRGXl5JnofM3BnrFIqacfypZP6a2M9dj2WD3roR1jk8LW8vS1fik+ltkYsQ4xKWN82pNCDh6Uyy/g1+3V2rgnXauBgDoAq/Ec1rIVOLbUyTp3r+HNnVz0PflvA7hp/uHLfppqS80O1Ef9dsSPKCzX1/5dnP16BoO+edf8+LcAkMSYpGziYgutjLZMfNRZf/hZO+oom6aHXWzb5AM5LtiTTqoPNnGbbV3WN45ndeRJGWNyO/z6P+Lm1z3xH0F1CYF5I6AOwLwRVbwaAnmWr10HAMsAZVaeqd3onAs8DRC+EMiRvV3Hj0fxPsGHNwSGRk36GiD2E7CesAcAvj4JNSUsJjAkNvK0hbeVW562sMGV0lmZ5elrZTGfijnNJtaznmED3Q+WrR11kMV1Wh186UdbymI/2nH9P8+rxz/wxs8mZ2VYh6gQuFwE1AG4XOTkNxsCZXmHm8ouZzNui1Xu3tdT/fGiW+uXAXwtdj2fo/jxdXxvG94QmJoh2Nh/1S9bj45F6FzEMwCzJizahQTG+CHBWxtomQRJIaMNeFyMRzmp9bG89wqxbQzLx3FtjCa+yYf2pKiHPGhcju+BtrQDHXW+BtXCl5t8ffp5NSKgDsDV+NSXeM/HN++5yyaYJVa90KryfnXNQitwwe0ngu26f1jXtzMAIYmHdlm9lzKOjWE7F/EMQJycmAQRjTwpZJPsmQxhhyv281L/k3HoQ0ob60ueFDbkSZtkjNtkx/pA4zZZH8ahjbUHn7KNZSjTljMARS//GGS6hMAiEFAHYBGoKuYIAewDqKr83pFgTZh+Ub1iWcsAMWScAbDr+DaJN80M2DiMARk7BeDjGYChbH8KO8XHMiY1JjObEGPZJF0qrpVZX/BWR57U1hvLqIMcF8pxPJatjjz9LY3b1mRr7bzN4NyJ/Pjju88OPjXoVw9XZfWsO5PxHt8y/RQC80dAHYD5Y6qIEQK9vPPhSLQGxeUuA4QRe4DOJm7Pczp/fOSf8h+XxbMIfg8AExhqjnkrs7pU0mTLU3YpnbVL6W0dth3kSZvsGJ8U9uNJORwrtDrY4qKMdXipl4OPY2Nkv3uuP0z0Dt3/uPds/+ODfv5JyAZ71XVP7Z77qqyqXtnp5q8uy+yzd93ywJcZU1QIzBsBdQDmjajijSMw3AcwLm67xB0HvG7R98BlgDBiD+v69bohxwmA+AVBvlNAfztrMC7jlwUZ2b8LgCUmM1DKQJn8mAwho42VkSdN2Vldircy1oE4uKzOS5pl1h5+KDMe41g5+SZd7DusP8//cvvSkS8i0eMf3ug32CvPdHrFaST6qspeV3SLb0Oyh8z9K/Bv2La9ssyL7IPDOPohBBaEgDoACwJWYQMCfh9Adi5I1oSrsq9d1jJA2NnfNLoPcp/YiTE6BOFoYF3nbVIyaPgtgDjpxWUmP1AmStZuZZafZEedtbc89awDZehZBp0mo33KztYV83Fs+A/K/Cu7z/YfZqLvX+z/ebmXX8yq/MVnq/MvR5LHP7cVdpjoEcMme5R5uQ5C2DDbqz5CuagQWAQC6gAsAlXFrCGAfQDuw0C314RrUVjeMkDY2U/gwkxAOoFP0gcdo6UoX0YzLQnS1yZT8qSwsXycgFM6xmX99CG1PuRB4Ucf8NRZPpbFOpQZg/WVlwZfHvSz+5HokfDdCP5zmNLvFPkLO93im5no87z4ard577K+HMmOAeiR559dw6UzIKtrVRAY/rKsSmPUjvVFwG1o+g9Znv/ddbtDLAN0cvPunAXcIJYBWAOm8HcGl9wocTjiH6ttkj6lszJsHhwMKvM3waU6d8VJlYmRSTTWw4c2KX/IeKXsqIvjsx7qrW+Kp4wUfpa38b283Oqf7/dPdo8/fi579km3Pr/nvozUG5wbPLfTy17kNrPe6Kbrb2T9h6cY7GMMFlMcAizv0vn/wyOsCJMR0AzAZHyknRMCl6r+B+YUarXCLHEZADfuR/tYq0+P4qlHYo+Bos4ey7Qyu1RAXyRG8DZxWh2TMvW0Z3KlL31Yph/l9GMca2d1kDM2qZWRJ2U8xqBPVeY7fse9n7rHiN5twns87xRbWJ/v71bf6Nfni2/u9JD06/shEH/a5afzS/eFRT+tP17OSi8r9m3YGRhG/sNp8aUXAodFQB2AwyIo/5kQGO5mzqtPzGTcKiO3DFBVf7roJtuXAvm6wpo/yj7hh138PrGHVtX13CgY7PdnFDjRMHJkwgSFkAkVfCyzOvIxTflRRluULc96IMeV0lkZeG9ZdPfc3nokeuy2x9Q9pvCx4z4v8mNYn+fUPahP9C6+2Yzn48z2s57o6VMM40GHuIO9bJ/6spdRF9b/y83idxlBVAgsCgF1ABaFrOKOIdDJ8g+NCddAMMjKpb4UaNrofpKeOo78WU4/hv3P0ZpNduwQwJ6Jlgna6mKZ1Vk/8qDWxvK0oYy01oZLg792nZhPIMkj2SPpu6R7xr2xcbu+4x6Jvkh8bjmNQCyNk7wtx8mcZRuDMlKr8/xwNuDMc0/cry8AjoMjyZwRUAdgzoAqXDMC+SD7D83aFmuWtAzQzTpfAEphdB9G8D6Ro3ywmYEQaxx/ngJgcoYFeUsptxGYtGkHHRJ3bMNkTh3L1s5vRiy61SDr41gdRvEc0e+eG/hz8m7Hvbv313Aj3nB0b47WIeHamJN5rMn7yyZ4ykCZwFO0yQ5yxLM+sS3KbkvJ3dg4a3XihcAiEDjAL8UiqlfMqwmBtT0OmC3nNMCl3Z0/t/9f7Jo9R/Tx3oAmuY1T8xlUbn+Bv3gKwCblOFGzHHzqH76xvuwUUEZflhEDNuPT9uU9g7L6C67PZ1U2XJ8frtFf5vo8Nt7Vk7stD3fljSVrm7yHbR1O6fuEzvsHje2oo5zlcVvf8XCnCz74lvdmY8sx1k+8EJgHAuoAzANFxZgJgeFxwEF120zGLTNaxrcBqiJ7gYUlPXpvmgGoyxGnadYg1FH2mbQpYxmUCbyJp56UMbChDp0LbsTjsTq+EQ9H6Oz5+eH6vDtqB3+MnvEvxGriOIqv05D062vx8do8kzWprYUjeCubZOdOENTaS1vSEAdmJdD5qGYAAiriFodA7T/m4qpRZCHgEai6+b9dRyz6RbbwTwS7yWH39rjy8YBffBIgLnO5wL7hL9iE2YEQsc4hUftpe1AmelLYkgdFmXbUgRab3Yt2x/2gvz+idxvxuD4/TPL7b8SDz0EvJFP4BMpRfJ0yLpN43JlokjNZM34qTqwLPr4NwSdzmwHDUgDkrNd1RM58+EcfWfiXJtkW0asbgdqa3NUNhe5+GQj0Tj3xO3tPXeu+b15sLqO+Zdax/4ng71hkneXe4C+2j2y9OH4XAEbzLqH33L9k9V4//v4AKx939DMATOq2MwBbJn/wwxH9INtxZ+i/+PSz574ylD3b77m34T3XjWpvPJudP+6S/Msht1ecgK0Oo2H3/6QuMjKbRCfHiUK4ovf1wZvixHKWbTTKmqi1ZZL3bfUzE0GWDWc23Pn/tdwoa3EQvzoIxL9dq9MytWQtEcDLTdyb0n5/HW9uSd8GcMl/160P21E9R/oW1TDShzT4TJB3N/K9/t5oDwD8bPJHwsdGPIzmXf2f4EY8bMqzZ+jDO+7D0TrEmv3iejzPx6dG9mEEzSRq41NmqdV73seHjdXVfcrR6Jzyum0YzdflOPIXjvVBl+okBB80oXT9pezOIBMnBBaLgGYAFouvoqcQKAf/zm11Xru3Arq/3q+o8vIv86x4fuq25yErsuKlbhngz1wn6sbU6N3K7GxAkzy0ye0RcG+/CeUwwsdLclzC3xqc62MPwvCLdUiGRTe35kM+TqZ1g9SIHhZeHhJkvD4/nuzjepicLWXd02Ssl/YsxxTtjGNx7wB8vf3kWQXYxTEg81eRdbeL/48lUSGwaARqPd9FV6b4QgAI5OWl97s/pm4ZYP0uN4b7zKLvKi/z4WmA1Kg+JUN7gty2rj4bAM3xanvbPZvhej4+ajPYy79o1+eRvPDPRpnOxyN6ljmyDyNxJl0bE5voUnLKQGFvE2usYzzaTLL39+en6OkHimRfL4eOSZCP3wvbR5umtg361cN/+I77nqSdqBBYNAIH/EVedHMU/2pA4EO3PnrejZLX8lWny1gG2Kv2vrr+/2R8hz+WCHzS95aYAbCvAPblug0sz3fPu+TvztxX5afdB5y+im/Hq9c3qRRyJBMfR8lMfOPr+uPxgq1PvOx0UJ6iNgoT/aQd+Gl737mJ25yqL9Thp/tT5XjWgHHqdftZgzyrftvKxQuBRSOgDsCiEVb8NALV4P9JK1ouxTJAVv7lIu8CSwz9Qf+T/hPBcU3jo3pYhBkAr7edAxuhv1sO/yaU/XwDHQGrC7xP8khmkNVpWLefZeTOxM7YcRKlnPV4+3gqPnQ66A97z/tRO+VN1Nv7mQbwvKw9ZaCzyD0uYUbA+rMjQBt0FPT6X4uQ+GUgoA7AMlBWHWMIVBvlvx8TrolgKcsAg+opu2YfRvhhVB9kFtigp9TaFUW+gS/RjY/8bdK3Sc0m4/qWfY6iUY9NeHHy9Lr02jn92FYfy39EB3FYZsy6XWqK3ra3vpTB9to6UzxkqXp8W3ydVk+eseqU952dufOd9z9EW1EhsAwE1AFYBsqqYwyB229+4Bk3xez2AqzftYxlgLKoXmaRq43w3W5+6GqyxNcB6R/s3Di0rHbdZ2+HL93xeq7Xh6RvExim80O5vkbO+NSzDDqesEOcyXbed9w/xKQuTeszAqm66Gd1k+5hdvvUXgb/J9j9Luj4nwVc/FIQUAdgKTCrkhQCRV78q5S89bIlLQPkVfYIsQqjeDfCr+3mt98HAJ/6foCPgiUFTP3b0X9qVMw6mfgspQ7UypFArY4JlbRJZ+Xk41hWHq/52zbQDpT1Wmr11q/Jxspnsw+nG2xdmP4vtrra/V8HRaUlIKAOwBJAVhVpBP7grR/7Pfct3eFLY9IW7ZUuYxmgv7d3lgjZUTxl/h3/m6Pfcf/tALw/wHcEgo/vFPiOQ3Us+Neny5Hwgi4k0ZSMtk2JMZbbGHbvAJPsLJvpfIwwkxC3AXpbb1PM4JcasSNGkzxsBqzfz2S562Sd2bzhb9by3RgWB/Grh8Doj8PqNU0tuhoQcN9lf8863ucylgEGRXUTsQszAF7iy/X1fp/woc979kNClmc8JMf69H5YT0cSDXahI8Bkbam1qyffoInlqVkHyBg3eI7XbXWMa2WMAZq6v7qtH7FDFvvRzsu5jg+MLD/5ZUDsgODrf3hBFmOKCoFlIVD7RV5WpapHCBCBi2d3fpn8WtElLAO4lwKddlnRvaSnvt6PEX5I9tCOnwywesu7pHkaHjY5+rL/mUqqlIHWbcNI2SfcMHqGHUfS1oeJNiVjPVZHGanVMdY0Os3H6llPndq9D/UZCGs3Hod+1XutTrwQWBYCtV/YZVWqeoQAEbjzXQ8/5jZAPcDyOtFlLAO4V/Oeq2MWj+5x/t/OBIQ9APCzMweDfv98PZYv2QTarE+NfMOfFyZCdCx4pUb6QTe+m962I8SjR31639uaypwZfUCDV31032RDe7aBZdAmn1hOX1Djd+bIS86t5WZYi5H41USg9ouwmk1Uq9YdgepS+RvreI/VoHIfwlnsZZcBhiN9t5HPjugt72cCwp4AtMzr/b6ATqfrOgv+ssnKJ8yw/G8TW7DjaNb7xzaMCxrrWLY25EP88Q4BZxCsP3lPfZsoY0xQxrUy2pFCRz6mVmdjMC6ot/GzINaG7YZM0/8WGfHLRkAdgGUjrvrGEdge/Gu3Hrp2a6Blnt206JcCYRkgnAaITwAEqOM9AXbkDyvsA7h4/sJTwcNzTHz1kXsqGYeNbkx+jMUYpJSDUsa1c+qCnHHrMwyw4wwCfbxsvG02KcdxD+qbsp8cf/xPbGi32/2/0f2/bUzxQmCZCIz/71xm7apLCDgE8E6AolrPj6AsYxnAngYI/6Hq6/71mYD6yB+dAeiPHzs++roPE2WIZ5N12NxmR7P0iSlixDKWg64+g8CkGuqvr60HeRjN0wc0xPUdAuq8vL43gW0hjW0m1cWNfDY+7RkPlDIf2+PnOgLa/W+BEb90BGr/MZdeuyoUAvsIuBfb/B/rCMYylgGqTvZKYhdG9nbdn9r6mr+XBrvyqf4uLZnQSCEnb2lqZoB6xkr5Xq6OsZtoc9wwg2DbXE/S4dijtfF1pfcTwI5tie+zqS3sNGR59pva/W9REr9sBNQBWDbiqi+JwO1vu/fuosr+NKlssXAZywDuM8SnuAxg1/R9Z6AOHvUpXf9E/1lac2TPBEk5KGUpau2YGEmZ+FC2duQZj2VQykBnkbMu0uATEjV1bAfrsMnc2nh9eobC2oW66u2mTdD7W6k65Vp2esN9ilt1BGq/VKveWLVvvRFw0+X/fB3v8MosA4SRPTANMwMe4bAkEE4F9C/6zwD7xBj+NDBBktpnRBko5D7ZTR8tMymSBl+u+YdlBtY3bhtG9bYdtg30IWUsUPpYGXnqeF8peSom7agjhTzw7vXK/fIenIChvagQuBIIhN/yK1G76hQCBoHetU/ipUDRsTZj0FJ2ecsATOb19X/AxpF//E4A+xKgrcp/Q4BJj0kQ/nZGAGVeTGqglMUj6SAPHGOTBk1IzNSBYvaAV6jTCJ3S2mOjHe1BqbOyEKe+T4D3MsknFcfKLF6MF/TudvLs/wxlcULgyiCgDsCVwV21JhDAemgnz34loWq1aFnLAFW/HL4UqH7u30MXZgDqMwNhJsB1Erp7tT0AFvSwc50j2fQo3yfr4Mkkaim09eRbj1XXcWYhvEffxqLteMz6kgHtSEMLw7p/3HbakgYftr+53XYPQWjvaMbizOax/lq+AdNiJH71EVAHYPWf0VXVwkG/+7+5UWpt9LYOACxjGcB9UX6UwANm++/5d7v80TGIZwCCnRsld/I+y/EIlkmM+kmjfCZMUNjHsUIMjsz9aJ11+EQcEvO4ffNRP2tr22Fjs13etr43ALK4vfS1sVO+vt3Byvp53t9nXlS/86FbH02+dCl4ixMCi0dAHYDFY6waDoDA7bfe/YU8yz94AJdWmC5jGcAl+Fd7MLgU4M/3EyA/C1CfAYCOswM7F/yrGHyCDH8amMgsZUxQK08l3fRomCP7MP1uY8ZT+NQxPsqeT4/CaQ9q2zeL3M520H56jNHo3n0PoGn/grdxJ17+F8YVFQJXEoHwW34lW6G6hYBBoFNm/8wU14JdxjJAlWXHqv7g4xjp+6TOtX8PoZ3u9xJ0FPjdAOdzdHMoRgKzoNukSzlloJDZUTNtvHz6pj4bi8nTUhuPfPCpr/WP6+vtox40xKDNeFvZjul+9XbQz9LhrIk2/1koxV9hBGq/6Fe4LapeCAwR+OAt99yR5dUn1g2OpSwDlOUOcBtP9uNobnU3N0Jnodo7f25/CsCZMjlaL8pI67qmL+cFq5AM66P2IK93PCgPEeqj+VQ76IMOifXjqJ4+pHWbMBvBOFbv+bA00WwT8Av1+FUtN/3/L8ZjSiIErgwCtV+SK9ME1SoEUgjkP5uStlm2lGWAIv96jOoDTvGJgFDe6e+6SQN2FvLe9vH9KQAnSyU3O8pHYgt1BC5OeNCMx2pedw+RxpMo62Q80rRPal9BsEz5UkudpdTZvQ9BFu4x7YN7GX7O+Mzp6x56n/UTLwSuJALqAFxJ9FV3IwK3v+2e97qvBH6p0aCFiuUtA5QPc10fI3w/G+Cn+0N5HMDzT18cvQqYidzSprV82tiIdsRt5eRtovSJPfwpinUoN71EyNoyNijlVubbOb5WT1tfT9zxaLYfj80lhLoP2+7+P//S+27ORh9csv7ihcCVQCD81l2J2lWnEJiAgPtK4P88Qd1K1TKWAfpusOmTPnb9c5OfW+MfTvlb2HyngPsFOhvuXYz7V5wUYznK1sYncVqN65hcaZHqNEzSoUNBPShnI6yMMSe3JY7DpO2pjefvb7K9xSD4xjMc+DNb9gcn8rU74hruWVwbEVAHoI1P7Sppc9HZ+fWirJ5cp9tdxjKAy+KvsssA3A/AKX/i6V8CxBkCN/LddXMU+1dTMm2Sx4nQ2jH5U8Y6QCkjTemsjLydYbB1T4ozScdRurUhbynrB7X1omztYp17x+K/veuWB74MO11CYFUQUAdgVZ6E2jGGAM5Kuw/drNWoCcsALjl/buxm5ygosvyoe5PCA+mQZg/A8N0AtHLyo5tbLNkE1pTYrJx+oJSnZNBZeVyP1ZFPxbN+tAOlPCVL6WgXzzBMq5P3kZqJYD2kqKPcLH7+Le/N3LsYdAmB1UFAHYDVeRZqSQKBcq/6effn0x9QT+jbKBpk5ReX3e7xPQG+BVZ+8cLucMkAGiZAT/2aNhMaqG1/kHs76uox6lPt9KEtKGU+/uTd9owNP/KgKMeX1fvYwcLWGdvF8agP3qi7/oZC6KzdsIOAo3/vvP8hrf9b5MSvAgK1X+RVaJDaIAQsAn/4jvuezKr1mgVYxjLAXtnHMsCo4xT2BHAzoEe5Lg/I1xOjXwdnYmNiHB/91te+U4k81BDW8VmX1cUjctrE1PqwPb7eoLFytp1a3hPLoHEdcXmSjY3j63LzMTr6Z2ERv0IIqAOwQg9DTUkjcKka/NN1mgXAMoB7be/n03c7H+n+MsBDiBZG+SjhJUGb7vc+HBXkJkDX0ToJizhJ2gQIPa949JtKpnEipw2TI2PZOqwN5LBJyehLyvbE9k2nF+g3bh80tl1BOkt7OINRPX7Hjz/0W9ZXvBBYFQTUAViVJ6F2NCKAzVPVbvlLjQYtVFRZ9fmFN9u91wZ1cJTPRM8yOwGh7FvEpMuRs23npETMZAl78pZiox0vK/edgboP7UBZp/UPMmvp+ZSO9Vlr2pHa+NY+hQNldbuwzMH3BWRF9XNa+7eoi18lBNQBWKWnobY0I1AU/9M6zQK4L/e9oPlm56MZZINXji8D2Nh8ZTBnA6pjVssRNRNkTGFrZXXf+lv1vO342wKbfKycfKo91IEyGZNanW0n9ZbC1sav+4Z2U05blkFZh+lIPImv/mnt36IkfpUQUAdglZ6G2tKIAPYCdPLif280aJmiLPKXL3oZwI1Ctwb9/v3j0MQnAfxXAq1dSGZBahMm9EEznnxha/WMF/tZufcJYeP6GDMlZ9wmHX3ZptiOctBYx3LKxsrIo3Mw5PPsN/XVP6IiuooI1H5JV7GBapMQIAL9vXKt9gIsYxmgyAr3vv9w+WWAcPbfLwNgBiDvuUR3Olh6jgkaJfKepnf8W/+6fZgeb5L7OsKuehvLJuHYHyNuq6cfZZiu97HDrARtQINd08uAvJ/1GW9D0LK+8kS+dh+1Cncpbh0QUAdgHZ7iVXIPmAXI8/x/XZfbdR2AFy76XobLAFV2lvX49X6W3EzA/geB3AbAkY1NqEyO9AD1MrOgb5STE2PoBBiXUQJOyVL10y7oxk8foB2wS7V12vq9vQfWBWrlrJu0bpeV5WDwa3rxj0VF/CoioA7AKj4VtakRAf9egOxco0GLFC5FvWwZywBVVf2JhSWcCnAzAe6DQCjvXLrYDzYhoQZZ4JgIg4SJNoywOQqmLai19/LxkXkqoVIWaLMfbMbrqXc8Jq3fs70hRphdCPXX64jl7t7L7rHt/zHEECcEVhOB2i/LajZRrRICAQH/XoCB2xC4HtcylgHceLT2Brp41z/KGxtbo3cGMAkyadsRs0V9kt1oHXzfwSbJ4FefRUjb2JE8OxiT/VClbXOoL9UJsZ2DkOx9DOh8XXHbbB3geaEuvPb39lvv/gJlokJgVRFQB2BVn4za1YhA79qnfmFdvhS4nGWA6hvrU/zxuwGyrPtMdh6AM1la8O2ImXrSJrtUwqSt1VEGypikB9XV7cd37jfVSzmP7oVyiJhuU9ivwBkPjP7LTvmPg6c4IbC6CKgDsLrPRi1rQOADb/zsJffBu/+mQd0q8XKWAZBc9x6xwIRZAOwD2Mh3Twx2oEfywx4AJjxLrT9H2FZGHj7gmUhjanX0sTLae1nmRuF+5G9tKbPU6sk36Zvk9Gui1s9jRUu/bILR/53vevgxSkWFwCojoA7AKj8dta0Rgdve/vHfdLMADR+8aXRbScUylgHyTnYcNx/W/wmF3wdQXvQdAEg54meyo6WlsU3KljLSuj+n8wO1+tAJCH+iGCemwS9M4deTc3NnhCN3xmC9s/jDh20Bj1h5D2+t1CUE2oFA+O1qR3vVSiEwQmDv0u5/NSq0mFnGMkBZ5a/BMkBt5O82/xG2rWpj9ClgmwSR4GBjZfSJ5bS1emsTy63Oxo/jWJ2NQXmQhc2LcQyUYR9seU/1/QS0o7+d6WB9pDYW7B1S7//wjz7yx1YuXgisMgK1X4hVbqjaJgRiBO744QfvcbMA74/lbStfmWUA+y4A97rg7t4ucWMSZBmUMiZG6qy8nmDDaJy29eOF6Z38dRu/QS/4sx1NvsGSSbreJvr7jkBz29k5QOcn/ImkfaglcOgolHn500EiTgisPgLhf/fqt1UtFAJjCFT97j9wSWO0g33MoCWCZS4DeEj82j/h6XTy0THASaPepsRKOePFG+q83u6or4+8g38YxYdYISHbONQHX0pCoo87LLRgMreUOlArZ3xS6IkRZW7t/z1a+wcyutqEgDoAbXpaausYAtds3f2ldXg50NKWAbLqjH/7n1/7J6A7F0Ifyq7vUw/KZAeKsk2SKMdXbE+99UvFoh/tQVM+1Me6etkM4Z0DYyOB0x90ury+fECMvK/bknoi/4c2nngh0AYEar8EbWiw2igELAL40Erev/hPiqr6ipW3jV/WMkB/r/8pvPY34OO/C9Db3OhSFpJhOCOPpAo9R760tTL4WblNxN6uHo/1WB/KUtTa2di+3rDk4Mu0DjMKvAevmV3OtjCipYg56Ge/qLf+WVTEtwWB2i9sWxqtdgoBiwA+uFJlZetHYMtYBnD71K8BduE0gN8LsHNuZ7QhcFJytWvifAZ2NDzuS6swig8SO/IeX+9n4uVonbFT/nbJAXrakqZ86h2FelusPWOQcp/Cvs2T3WPdf2LtxQuBtiCgDkBbnpTaOREBHAss8uxjE41WXLmMZQB3EuAVbgngTDgNAFDcLMDRzS3Cw1E+E7BNriEJ0jpQ6iwN2sDF+ri+UC+Tcn2/QOwfInuOeiunDPSgcraHlHggjtuE+kvDt1PaoOKFQEsQUAegJQ9KzZyOwM7Znf/SJbPaH/jpXqtjgWUA1/7PLbxFg2x4VM3OAly8cMnMAIy/RY9tCkmQEibppmN2lDdN0WO0Pl5fqp5QI7h6PCZ4azMuq/sE24PKR/d8ZuN4/5+HOOKEQLsQUAegXc9LrZ2AwHAXdlX90gSTlVcNyvLzi25kPxtcjzrCLEC1V3Sy4dIA5Db5kieFnldKxqQ7PtJuHsXbOJaP64GOMo7C67Lxqf96Ow667u/bnGrTMG6R/czJrUeHb1AM7RInBNqDgPmFak+j1VIh0IRAUe78o6KsnmzSr7q8KssXL7yNbhmgLKsvox4/C+DG0/18A+V6whxPqLDhBVsmx3oiro+oY7u4zHigsQ7llD4li32tDfl0e0Onh3rag9bjjk4PPHn0pWd/A5tQra14IdAmBNQBaNPTUlunIjDcEJiX7t0A7bzKIn/5MpYBiir7NBAazgJU+UX3GsDhrEA9kQcMU4kxXrsP1mGkHWT1JGvl9QSLUf70DgT82Sbf5nEfbxO+JdDUmaDcxhtvE1vs/2Tmneqnht+koFhUCLQQAXUAWvjQ1OTJCGBDYFVVd062Wl3tICu/uOjW7eWD5/UH/U9WZXXPhQsXiqKXD78VgHrryc+PeOsy7tgPfz5s8rRtp1+I2xzPJ3LU787V788u2Fi2DuitDj62TFssFfCizFLqQFkn6bhuv+396uE7fvyh37J68UKgjQiE3442tl5tFgINCORl7xY3kgxvt2mwW0WxO1n+0kW3Ky+zm3AiYFAOvmVjq2emseORdDqxIonaNjJpMjHbJEuZt588OwAb+NI/VQdmCHjRLqbUg1JneSujbWpGg3ae+oqrzuBm+ogKgTYjUPslbvONqO1CwCJw+613fyHbzVr5boAqK166jGUA4rV3ce9p8k0jaSZC2oHapA/9JB1tm2xiOe1J7bKAHdUHfYjAtpIGTWizjRfswi0EWfAeyvrlL+iVvwETce1GIPyPb/d9qPVCYAyB23/4vl/My+r+MUULBMtYBiAMnW7xzIh3iZxJFRRyJkNLU6NwxrDU+jAe9fGI29pa3vuFmQPbPtoxJij1Vhbz7OjQH9TaMAYp7tfxZzaP9/87aydeCLQZgdp/+jbfiNouBJIIHMne5v54t24pYBnLACO8+vnwS4BIdiOZY5gc07Lwp4NJktSOrlO+TLZIwuRpN6lO6uhjy6FuRkp3BGKfYB3sGYvUd3aKDBv/sMnU+ogXAm1GIPwWt/ku1HYh0IDAbW++97Gsqt7doF5ZMZYByqx07+1f/DVwY37U4hNr2ANga+ZovS6rzxYwudoz+kyioNY3lk+Kb/1YB+OxTGptycd1UU5KX1DKQCkf3k+/vEcb/yw64tcBgdp/+HW4Id2DEIgRuGbj4//MvbL1gVi+6mX3auClfOBo79m+2wTo8zOnxmNsOFpnMoXe8rRn0rTUzgjESZZ+cXwmeOpJWSfjUz5eR+jI0BadjGBvE3yQMr6vfxTjTO/40R8MVuKEwHogUPuFWI9b0l0IgToCeFnLpbM7b3VJolVLActaBugc7VTcWBeSZXo0TL1FuJ40gybY1tfvg0VIwrCdRU4bW6evZ78Hs2/AjgzbYG0oYyxQzkBAF+Sexfv+8dnpIBcnBNYDAfOffT1uSHchBFII7L8m+N0p3arKlrUMMLgwcO8B8pdNrJSBWjkTaD1ZjkbLo3X9Jh8rb6ojJR8f5QerdJtCu4NlkNXbEf4UUg6fwV71+JEbz/6c3vhnERS/LgiE//Xrcke6DyHQgMDtb//4z7Xti4HLWAbobLj3Au5fdiRsE2HQ19f9KY/X/YN8tlF+uq74LX7jMwlM/LY+xrIUetpaav2sHL7Q5VvVT+iNfxYl8euEgDoA6/Q0dS9TESj7XbcUkJ2bargiBstYBhjslsMZAJ/0ilqiBAxxIiU0ccJEmTpLvf/4GwCtDWNZGfcFWFnM27bF9TMmqfVNyRiLMw3lYPBrd7zzwQ9aP/FCYJ0QSP7CrtMN6l6EgEVg+IKgqmrNtwIWvgyQZ584deT4EWBkk6LliV88O2B9rD35Oq2v0adihXrGZxlsLNpZynhWZhO6lYOnLkX9bEb1+MaxQWv+n8T3p7IQmAUBdQBmQUk2a4XA7W+/99fdkPf323JTi1wG+OqLLzn7oo0b9pcAwjp+CpvUiJwJ1NqnZDaBQ89Nh/ALuvFZAupS8W09bBtllk6qi3FZDyhmAPLt6m068090RNcVAXUA1vXJ6r4mIlD2y1vb8tngRS4DnNo63u/uddyLgPCmu+ZRugXTJlcmTqsnb+0go61PsrSyo/G4/vpMAJMzPRmPZVDK4jooD7ap/QR+z0HZz959evvBjwdbcUJgPRFQB2A9n6vuagoCf/iO+57Mu513TDFbCfUilwGOVpv7JwCw9l8/J89RNUCwyZzJtJ5kw+xBHIf2FkzGszLaMS5tSH07/NsDIbO+5Gkb662c8enDeoczBXn+6OnTD/6sdv0THdF1RkAdgHV+urq3iQj8wVs/9nudPPv5iUYrolzUMsB2Z7ODWQA7A8CESGohoIwUOs/70bvl6RcnX1umDWiT3NZFe8pAKQO1chsvtrM643em6PXfbuOJFwLrjEDtl2edb1T3JgRSCJzo3vPTbfhg0KKWATbzrU2PS/hTwOSYwivowojf2lHfRK1tKllbPflULOpArd7KbfzYrq7bn0wosp/58I8+8sca/VsUxa8zAuG3fp3vUvcmBBoQwB/7naz/Jqd2RwOr5LRyg+tSxYtaBjiabV3HZQCbFJFUcYOxjGW/U74cvvTHJmDoLTC0J/Ux/Vp7Kr7VT4vl9eGRsQ5SGws8L+pJh/fi3vX/kZ948Ffe8t6sQztRIbDuCNR+Wdf9ZnV/QiCFwF23PPDl/sXdm91rX1b692ERywCdvDM8AghcfCKP9wH4JG9xY+K01OrZIQgx/c562ttd+daWMbj3ADrKbCzrk7a1sxPjjzT4j+zOlCfyv4c6NPq3iItfdwTGfzvW/Y51f0IggQBe+LLq+wEWsQzgzv89D/sAAAkSdNPI3kLGBGop/WMZ/cZPGNR3+NMuFce3K/QFQkcieFHm6fTTBGgn7zXfym5FJzBEEycErg4E1AG4Op6z7nIGBFZ9P8C8lwGKovOXgCXsA+AsQEjOAbbRaLk27R/09K3PIFi95W1HwSZv2MQ6L/O7/1N6n8yh8ZeNN0k3PO+fZ/+D3vZH5ESvNgTUAbjanrjutxEBTP9WVe+/WOX3A1RlNbev0r2guv6v62CMJ/mgD+fmg2w8WXOkb5Owta/LJ9UX9h9Y/1TngHrGRpl8TK2urKrb7vjJB/8x/UWFwNWGgDoAV9sT1/1ORACvCi472d9Z1Q2BZV59zcQbOIByo9/bgzk2Anq3kOSZaG04JtMgqyfwIK93DJrloT5rQ55taKKwszr6xXK0G6P9evvzP+9eW7zF+ogXAlcbAuoAXG1PXPc7FYHb33bv3eWg+smphlfAoKqyF5RZ+al5VH2ye8y9AdCthOf5Df49AOMb/poSrE+m9bV2a8uky3Yy+TZR2PF9/t6XnvXRfJDWk38qbt02tNW180yx0f+B229+4BlrI14IXG0IqANwtT1x3e9MCPzRrff9y7zM/tVMxks2msdpABejOlluD3zTiy03dX+Gb/Dziby+lh8nWHvLsY4JPL1Df1JCT6/z27rYyQiyMLJnvdSN2/q68071UzjvTztRIXC1IqAOwNX65HXfUxHoXvfET67iS4Lc2vXLpzZ+ikGe5Tl3/8P0mo3jT9vjedwhz+QOG/IxTekg45Wyp45J2lLqQO2sQNomLCNAn/Kx8Qb98hfu+PGHfsvKxAuBqxUBdQCu1iev+56KwAfe+NlLZVl9b1FVX5lqvESDeSwDYAbA7v7PutloOtwmbHtbTMBWRtuUbFzXPFqnraWIaWcRoLNr+bEt20Aflkc+7mU/zzn94D8McnFC4OpGQB2Aq/v56+6nIICPBm1tbb7RJZFLU0yXqj7saQDMAGxkGz02+sb8haP7Y6LniJo2pE16jtZhZ5NzsA/r8LAJco7cw/HDuG7GszMTiMHLxgq2bEdWOv2Z7rHu9+tFP0RMVAjU5/yEhxAQAgkEfvfNdz5U7mRvXaWTAYc9DeBnAHrP5e0+f/P6/f0AlDB51l/3G7T10bxP2GE8ESfk4JeO6/2DFZM4adAEbpY6OPqvtoo3oDMXvMUJASEQfmOFhRAQAo0I/NGP3Pd+96mA/7bRYMmK+SwDZM+b1GwmWGtDGabZIWeCTtG03/hoH0maF+OwDEpZilq70DZfh9cVbmdh+X13vvP+h6yteCEgBDQDoP8DQmBmBG5/+8d/rqiyfzOzw4IND3MaoFN0a6++vbZ78iiayyRqm+5l6VMB1s4maBurOaaf8rd/hmhr6eXVsT9DMSh/TG/6swiKFwIBAc0ABCzECYGpCJzcuOfWIs8+NtVwCQaHOQ0QvwWQLwNiErfN9zIzTHdKm6Ctj+UZIy3zXwSEjnag3EcwLmdnIVhPboNb93c7/vGFv+AhTggIAYtA7ZfPKsQLASEwjgA2kZXdvTfmWfn5ce1yJYdZBuBbANni+suA6qP9VKJlUveJOuwHYDxLY3/ouFMfurrttHcBhLomtSHvZL/zkZ988L+2scULASFQR0AdgDoeKgmBqQgM3yC3mX+PMzw31XjBBpe7DHB959SFetOKrRP58cd8Qq+frfeyYG0Tr0/gKft0oo4TfhyL5VBbfVagae+BPR3gRv73HHnJWbdpU5cQEAKTEFAHYBI60gmBBgRue/O9j3XL7E0N6qWJL/cTwUfdWwDiRt7Ye+Hw40DpEXs4DWD9mLBjWkvIbpQPPXfkMz7ikCe1sclztoBl0HF7djiqx3un8+/FOxysvXghIATGEVAHYBwTSYTATAh88JZ77sjy7Aev5PHAy/1EMDf92Rs9tXW8j/J4Mg9WB9H5pB98OXqnZDyJpxI7rYOOfqDQ+jb5s/7lyex1esd/wEycEJiEgDoAk9CRTghMQeD2t93z3qzK/v4Us4WqL3cZIG7UCzvP2YaMCTYesTPhej+OuDm6t34hMmPFNFgEP2tj9XGnw3csQv37tk9W3fJ1d93yQO10g40jXggIgToC6gDU8VBJCBwYgdvffu+vd7Piin1X/nJOAxzPt18Y36g/CWATa1jbt7YccVtZnLxt0rZ2lNdlTScCws5/+pFGSwxn8u3sTc+99uE/s3HFCwEhMBkBdQAm4yOtEJgJgQ/+0Mfe7V4U9IszGc/ZCKcBqiL701nD4i2AVVaeiu2LvHOjm6Y/Y5N5SLjBOqWnHWmwro/wrZw81/gRlzJQW4+Vsw5QzFLkW9mtd/zwg/foNb8WJfFCYDoC6gBMx0gWQmAmBG5/+30/lQ+qfzeT8ZyN3GbAv5o1ZK/bPeNG0Fspe3wV0CdWrq2HzX/1xBu86/KQw63cJnPGZwRrZ98KSD0p7ViGrftY01v1op+AiDghcBAE1AE4CFqyFQJTEDi1de/Nbnv9708xm7v6IMsA1+Ynn2pqgD3OZQSnAAAT0klEQVQJYG2YfPGiHsiZ0C3vR/DhT4q3qb9TgHFs7Hos/x6AILNLEvTalw2yH9OnfYmJqBA4OALht/XgvvIQAkIgQgDT0Pngws3LflsglgHciYRPRM1JFo/vHD2bVDghPwqERG1tmJBn2cnPJO+pf4MgZTYmZaQpXbTWv3+c0O1N0Fv+LFzihcBlIVD7Jb+sCHISAkKghsCHbn30fOfUE9+Vl9X9NcWCC4NqMNPX7sZfAhQa9sLuc1/EEpM+y6BM1jG1NvSz1OrJW72NB/1EHZK/3vJHGEWFwGUjoA7AZUMnRyHQjABeRJNXF79jmZ2AWZcBUi8B4p3glcAu+bo9AiHZUwfKxGxl9v39ab3fzY8kHx8tjMvwr8cOvtANR/5K/hYi8ULgshFQB+CyoZOjEJiMAGYCutc9+a3L6gTMsgyAEwCplwCFOym2vn77ps+wHI/MKbeJ3u7i90m+3lGgrU/u4WhhXGZsS73v/j6CPPsXGvlbdMQLgcMhoA7A4fCTtxCYiMBoJiDPHphoOCfltGWAPMtzfvmvqUq/D6AcjvatjU3k7BhYfUqW8qFdTBHLykLs/TV/jfwDJOKEwBwQUAdgDiAqhBCYhABmAqru3nfnS+gEzLIM4L/819xizhCEZJzeyR/0fsPgtGRva4x9qbMxuDxQ9st3a+RPhESFwPwQUAdgflgqkhBoRADvp19GJ2DaMsBWd/PPm94BwMYfy7e/wfHmuwB+Jz/1TNIsg1JGyuTNMijsmPjB87I20FOOEwBI/nf85INX7C2LoS3ihMD6IWB+2dbv5nRHQmCVEEAnIO9feP2ijwg2LQN0u93sJc8+7y9mweRE7/jDsIuTsy2Px7Fn9sNav7Wz/vVkb33RUXDv+FHyt9CJFwJzR0AdgLlDqoBCoBkBHhF0L+O9s9nqcJqmZYB+vz865z+thtdtvfoCbDhiZ7KevOM/JH2b6FN1MU7Q1X3LfvazGvkHdMQJgUUgoA7AIlBVTCEwAQFsDNy49snvWdQbAyctAzyve/rkhKaNVH4fgN8IyE4AlJN2/DPpj4I4hr6WpuLUfN1ufyV/i6J4IbAYBNQBWAyuiioEJiKATsCp3j1vchsD3z/R8DKVg3KQfN3vRt756llCXtu7/kmX7M+EkX84j2/9a4l7X0EZKEQc7bMTYP0pI9U5f4uOeCGwWATUAVgsvoouBBoRwGuDb3vbPX+vqLJ/02h0mYqqLP+T2PXIxpY735/+CFCwLXc2ukf+YGtj8w3ff+23Db8wyEROGyZ4lkEpS1Fs5uPFRA9q/YZ6nfMnTKJCYCkIhN/MpVSnSoSAEIgR+NDb7/mhvCx/OZYfplzm+fPibwPctPfS4Rv+JsXNs+Lpbjd/JWy+7uTffrVL6MlZACR6G8eO8uvyMHMQ+9jOQjkY/JqO+lnkxAuBxSOgDsDiMVYNQmAqArfdct+7ulkx1+Nu8WmA5+fXTm1Hr3vkkW6xccO+4Ynvuu4b/4RONmEj4VMOyr0Bng+fELY2dvTvY+3HwJr/Tzz0962teCEgBBaPQO2XePHVqQYhIASaEPjgD33s3e5NvT+SZVVtdN1kP01eDcqvsTbX5Keeb8sp/siRrRdb+dcf+1q3lFD2mfyDrr5rn8k96Mc3AEJHO0/9UT+N/C1q4oXA8hBQB2B5WKsmITAVgdvffu+vlzvVm13SvTTVeIoBlgH2qv7wFcTu7X87Rd65cZLLbrX3SDWobrI2mA141cZN9yJhQ86OAKm1rSf3eInALwWYFwSdyTvVD2m3v0VQvBBYLgLqACwXb9UmBKYi8Ec/ct/7u2Xxvc7w3FTjKQbulMFJd9zw2Rdkz/nUFNPsWO/EV1I233Ly1cdiOZO9lac7BVkBebAbzhycybeyW+/48Yd+K8jFCQEhsGwE1AFYNuKqTwjMgMAHb7nnjt2L/dcXVZVMyjOEGJq41Puy3f7ep55fnX5mmg83/8V2xzdPvOpEb/t+K2eyJ23ShRMAfNNf9XjVLV93xzsf/KD1ES8EhMDyEVAHYPmYq0YhMBMCd77z/ocuVv2vv/yPCFVlr+hUVZF/wws7z9meVGneKezmvzHTm6/5/h0IuRRAg9RMgD0RwA4CNgmW1eC2zRN7r7jzXQ8/Rn9RISAErhwC6gBcOexVsxCYisBdtzzw5e6pJ1538BcGYSNhXuyVA7cCUF46lh/5ukmV9fLNiTMN12yc+NYT+fZj9en88T0BXh/+rIw6DG6n/+lrH/o+vAp5UjukEwJCYHkIhN/U5dWpmoSAEDgAAnhrIF4YNPsxQYz8uy7x46rKr+q8yL3QZ9ILgMqdpul/H8P//IFTr3+GCZ0jf1/m9L4//md9XIfgzGBQ/hh2+uPFR1YnXggIgSuLgDoAVxZ/1S4EZkYAxwTzanDLZAc78odlXrysfOHZST6Dbvd+c/a/0fRvXfeyi68/8Q0fGZ8FSH8ueLDn1/s/8hMP/kpjUCmEgBC4YgioA3DFoFfFQuDgCNz29o//ZrfMvtN5Jk4I1Ef+fJ/AC7vPfdGkmo51jphd+sFyZ/fCHkt5J//Tbrf3bd/1/Ne//sde8NaPQZ5e6/ezAO5Tvu95znMeeLnW+4mgqBBYPQT2pwlXr2FqkRAQAs0I/Gf/7ze9PNvNPzz88t/QzI/86YHNf3tlv9rqbn3lluKNE14AVO6cOHrtrvM7Qd8EPbt97KR7s3A1snnqmSfv/Pkv/PpNbgngNGYEuDSAKX93vv+ndMQvgaJEQmDFENAMwIo9EDVHCMyCwG1vvvexncHea92HhIYf7MFUP5I+XrSDy2/+y7LXljdN3HGP6X9nPkrsQ+fox9bWkUds8of6mpPXffs/etm7nkDCD8m/erzYGHzn6eseel8UQkUhIARWEAHNAKzgQ1GThMCsCHzPv37ldt7Z/p1BVn03fTj6d0sAxVt733v/sXz7G6iL6ZHN7Tt7nd63x3KW++Xul0+duJ7fBqB4RKs8/+j7P/fvs4cu/OnnN473f0y7/EfQiBECK4+AOgAr/4jUQCEwGYG3vDfrPH3pm3+5KjL3HYFwbRTFzju6P+AETScAyp2jW8eemrQB0I3+78Laf4gauI2to3dvdDe+tegUX/zZz7zhRu3yD9iIEwJtQEBLAG14SmqjEJiAABLvbbfc885yUP44N/5hKeCrBi/+RHPyz7KN7vZHJiV/VLmxuXVNquq86HwJyR+6sipvVfJPoSSZEFhtBNQBWO3no9YJgZkR+KNb7/uX3TL/7qKsnsQreG/qvRib+xqvTqc40qh0Ckz/l4NB8gVCvY3Nx+E7KMuPvuY133cHeF1CQAi0CwF1ANr1vNRaITARAXxDoDqSfYvrBDzW/Pnf0r3Wt9yZtPaPSo4dPfnZpso4+u9l3Xc12UguBITAaiOgDsBqPx+1TggcGAGcEMiqi69p/vxvsYXp/1Rge/b/0t7O9SmbotP5JORbR7Z/9VWvfcOQT9lJJgSEwGojoA7Aaj8ftU4IXBYC2I1/rrr4gSbnpun/rY2jPfhg+n/7yPGbmvzdscMnnuh/8aeb9dIIASGw6gioA7DqT0jtEwKXicALjt/w2ylXd/TnK4eZ/kfMfn/3l7/tlT/0VCq+ZEJACLQDAXUA2vGc1EohcGAE7izvvyPl1OseeSQlt7LextbfsmXLu41/z7z2m970M1YmXggIgfYhoA5A+56ZWiwEZkLgn/7nv/qZshoMd+tbhyNHtl5syzGP9/5X5eAFsZzlqqoeIC8qBIRAexFQB6C9z04tFwJTESiqzu9YI0z/V4Nqwtp+lm32tp6wPjHvXg50RyxTWQgIgfYhoA5A+56ZWiwEZkbghtP1fQCHnf6vsvzsN33T33n/zA2QoRAQAiuLgDoAK/to1DAhcHgEvv27bnXH/XDu31+p6X979G/q9H9W/V+MJSoEhEC7EVAHoN3PT60XAlMROFdd+jA6AfjwT2r6n0f/EGja9P+FC2f/eGqFMhACQqAVCHRb0Uo1UggIgctGAMcBn9o5e3za0T9UgN3/bgNgsq4jR0989NiJU59JKiUUAkKgdQhoBqB1j0wNFgIHQ+DYC46975qNE6+c5jVp+t99EfDDnaJ43bQY0gsBIdAeBNQBaM+zUkuFwGUhMOsLeyZN//d6mzeg8mc7fzP1HQKX1Ug5CQEhsHQE1AFYOuSqUAgsH4G9wd7Dtla78Y/yppf/4NO/nU73a2A3a2eCMUWFgBBYXQTUAVjdZ6OWCYG5IXDx4vkHbTC78Q/yfre8p+nlP27qX+v+FjzxQmBNEFAHYE0epG5DCExC4Pj2iYkv9znaPdL4t4DT/+4VwB+dVId0QkAItAuBxl/6dt2GWisEhMAkBI4d3b57kr7X3RpO8cc2+PQvp/9jncpCQAi0GwF1ANr9/NR6ITATAv6FQGlTTP/nWXUipe32Np+mfG/34i55USEgBNqPgDoA7X+GugMhMBMC/XL3yynDY93tvZQcsq3NrZdQd/Ka039AXlQICIH2I6AOQPufoe5ACMyEQFXlj6UMO92NV6XkmP4vB+WLqDt/7pnj5EWFgBBoPwLqALT/GeoOhMBMCHSLzodiw1mn/+FXZqU+AxwDqLIQaDEC6gC0+OGp6ULgIAhcd/qGP4ntZ53+h9/GxuZTb3lv1oljqCwEhEA7EVAHoJ3PTa0WAgdCAIn7t5/4vbEP+cw6/c/K3ndzlv5QAA1EhYAQaA0C6gC05lGpoULg8hFA4v7s+V/9nI1wkOl/+L3mNd93h/UXLwSEQLsRUAeg3c9PrRcCB0IASZ8OB5n+p4+oEBAC64OAOgDr8yx1J0JgIgKYBehf2HsGRltbR+5yX/j7tpRDlecftbv/vU3+hNb/U2hJJgTai0C3vU1Xy4WAEDgoApu93l0u+R9tSv6Id/TI+Gm/QTn4tNb/D4q27IXAaiOgGYDVfj5qnRCYKwJ4JfCk5I/KOkXnq+daqYIJASGwkgioA7CSj0WNEgJXBgFM/2dZdX1c+/b28bEjhLGNykJACLQLAXUA2vW81FohcCgETh5/7pOTAqSm/2H/7Lmn/3qSn3RCQAi0DwF1ANr3zNRiIXDZCLzqtW/45CRnTf9PQkc6IbBeCKgDsF7PU3cjBC4bAbc34MOp6X8E1GuALxtWOQqBlUVApwBW9tGoYUJguQj0No5spGrc2Dpy56mj1z+V0kkmBIRAexHQDEB7n51aLgQuC4F+f++u2LHK8rOdonhdLB8M+p9y3wD49liushAQAu1HQB2A9j9D3YEQOBACnd7G2O/95taRR1NBto+d0Mg/BYxkQmANEBj7Q7AG96RbEAJCYAICg73dMlZ3im4ey1DudTe/NiWXTAgIgfYjoA5A+5+h7kAIHAiBott7yDo0Tf9j7b/KqxPWVrwQEALrg4A6AOvzLHUnQmAmBI5ubZ+zhr1u9wFbJl/keY/8008/QVZUCAiBNUFAHYA1eZC6DSEwKwJnznzporVt2v1vp/9PnRp7OaANIV4ICIEWIqAOQAsfmposBA6DwHWnbxi91jcvOl9K7f6Pp/81A3AYxOUrBFYTAXUAVvO5qFVCYGEIXDp/9m8Y3CX/z5C31E7/Q64ZAIuOeCGwHgioA7Aez1F3IQQOjAA2/x3dPv6yccf8iW5v41us/OLFC99ky+KFgBBoPwLqALT/GeoOhMCBEOAHgXD2vxyUL4qdN7a2RksE1G0fOX6UvKgQEALrgYA6AOvxHHUXQmBmBPBBoI2to3dvdDe+NeUUT//D5vzFcxdStpIJASHQXgTUAWjvs1PLhcBlI9CY/DvFF+Ppf1SiGYDLhlqOQmBlEVAHYGUfjRomBJaPQLe3+fjya1WNQkAIXAkE1AG4EqirTiGwoghs9DavTTVNSwApVCQTAu1GQB2Adj8/tV4IzA2Bwk3/Z3n2dXHA3d1LT2gJIEZFZSHQfgTUAWj/M9QdCIG5INA0/X/9tTd8bi4VKIgQEAIrhYA6ACv1ONQYIXBFEfjbqdqLonPjkaOnXprSSSYEhEB7EVAHoL3PTi0XAnNDYDDof2pjY3Pshf9HN098NMvy5+xduvhVc6tMgYSAEFgJBNQBWInHoEYIgSuLwPaxE0+lWtB1nwpMySUTAkKg/QioA9D+Z6g7EAKHRqCsqpfHQbD5ryi6w1cAqyMQo6OyEGg/AuoAtP8Z6g6EwKEQwJf/UtP/p46f/jQDYx8AeVEhIATWAwF1ANbjOeouhMCBEMCav3FIbv7b2Nw0swL5c4y9WCEgBNYAAXUA1uAh6haEwEER6OUbb3Gb+55oGv1nVfZJbP47aFzZCwEh0B4E1AFoz7NSS4XA3BDAB4F2+zs/2vTmv6NbJ56ZW2UKJASEwEoikK9kq9QoISAElobA449//Dt2Ll58W6+78YNVXp3Iq/zsyZOnT8QNePbC33znjTe+9o5YrrIQEALtREAdgHY+N7VaCCwEgXvv/e2/+7znvPjVR4+e/O/jCtQBiBFRWQi0GwF1ANr9/NR6IbAQBO569D3XvPj4Tf9ga2v7DTwKqA7AQqBWUCEgBISAEBACq4kAlgj++q/+7DdAV7OFapUQEAJCQAgIASEgBISAEBACQkAICAEhIASEgBAQAkJACAgBISAEhIAQEAJCQAgIASEgBISAEBACQkAICAEhIASEgBAQAkJACAgBISAEhIAQEAJCQAgIASEgBISAEBACQkAICAEhIASEgBAQAkJACAgBISAEhIAQEAJCQAgIASEgBISAEBACQkAICAEhIASEgBAQAkJACAgBISAEhIAQuPII/P+NA7u8BwtaUAAAAABJRU5ErkJggg==;" vertex="1" parent="1">
                    <mxGeometry x="450" y="230" width="50" height="50" as="geometry"/>
                </mxCell>
                <mxCell id="22" value="" style="shape=image;verticalLabelPosition=bottom;labelBackgroundColor=default;verticalAlign=top;aspect=fixed;imageAspect=0;image=data:image/png,iVBORw0KGgoAAAANSUhEUgAAAJQAAACUCAMAAABC4vDmAAAAb1BMVEXROTn+/v7RNjbPKSnQMzPPJyfQMTHQLi7PKyvOHx/OJCT9+vr56en13d367u778/PMAADjk5PXXV3vxcXWVVXNEhLMCAjVUFDy0tLdeHjlnZ3abW3tvr7rtbXUSUnNGhroqqrghobTQkLdfn7ZZWXq2EiYAAAECklEQVR4nO2b23KjOBBAQRISksGYm83F3Gz+/xsHz6wzyRpaNrUtVW3pVOUllcQnot3qbsme53A4HA6Hw+FwOBwOh+N/DSEiUMMgg1AIqoZykCoQjNgTYiIIxK1uxmtVxb+pqrwb0/rCwiCgwrwcUWJOr7G/ziHKu+ae3aTk5pQ49Zo42TD6MjtGVTebsuKqvWqEvojNKBFa5Id3nfy4NxFYnI1vGy1EJqTCYiu4N6Qu+FKq1oX3vzgW6FL0/pmS7ycZthSt34/wJzPDdeL9x0q+3+JKEa/aIVXjZk/5US54MoWYTszb4+Q3AaYUfXtr+UGnEJ1Y9mGG+oerRJRSuyJq2fxKRKnTvoXyI0Qpnu1z8hPEmFLNG4uyVMPXPI5+fPOAWBQHmsQZje3p0TZIOZRnUjd5/NyRerSUTjy4YmkuUnz7aaGCW5v++T/wCmJyiQCluFcvz4iwsDxPeeK3Yu0P/idSxRGQumy9LqXzHUtpkYJS5zhs/yJD3I9BKeRCYFuqAGLKmlQPSE1ooayzAvJUdbYkJaHCJbO0VOEESMWeneEPEYCUnw92rEpw8xupFSkB96GdtLJWBN6SO27DSrSglF8RGzm0zGGruEDtptaBy5eFpLZgRTUP0D80pfnAUqnGyr/ezAdWqG3+qhvq7GAV2emsLAQW4dqJwiE1vucQ/Vr5HUGe3r1aUf1QoeLGaxmpfQ/6x8x4uKtJa5VcjJcNwazJ7Uu4t8bfhDTTWiWF8Sco9JPiZDYe7fymtxLGtxxWatNofDO+PROuTVg55rxzg3OqO6pJbRRYd41VYuwI+RuyhcZWj7ACpkRoiIvGarLREIoeTg12OnoWwlZ3K8MPIsDWq7KQFh5WCuqdMYf7EAyM9trS8ApsvXBPIQEkkESvtqQU8A7MsTKVLlYDoMXJcWKKeL2CmyYFZIUcpwINx6jrSwEsVwmcRyA9vuBRzsVTIbcehIROKDucQA/+VHPRtT6V4Wsu5KcJqmCQUgL9m4aqtO25pF/zTSIUb+EJH1JJJepvr3GIqm6a2flcluX55LVjBRd6WNvM6kn74Xg8vnNxCWtDJnuuKD1JkXIn4Z/f5XqCdydP7ry94WPufGft5GATvFsJ5WfXKL8vFN6doEFz1rAJ5tXTN+ac69wRx0F77051mIfLVD/lXKNC7fnEtMcpHlAn17zWK7yQI/fGXHd8tcKIfe7A5k/3mQh/OAxev1mj8fBHw0Q38PlB0vXUSKueVu9qRU0hDZ0XCRF6bZPHEVjYHeMuC0KTR1hLOT7QW1anY1dFLzF2iPJmyrjJD+/8NWNchMHjQ01e0U5ps5Cm03xhVAWhMH3M92JH2G87tXyFnBGLnwlzOBwOh8PhcDgcDofDYYJffa435tRESIoAAAAASUVORK5CYII=;" vertex="1" parent="1">
                    <mxGeometry x="620" y="60" width="30" height="30" as="geometry"/>
                </mxCell>
                <mxCell id="23" value="" style="shape=image;verticalLabelPosition=bottom;labelBackgroundColor=default;verticalAlign=top;aspect=fixed;imageAspect=0;image=data:image/png,iVBORw0KGgoAAAANSUhEUgAAAQ0AAAFGCAYAAABwjcqnAAAACXBIWXMAACO/AAAjvwGm+t7LAAAAGXRFWHRTb2Z0d2FyZQB3d3cuaW5rc2NhcGUub3Jnm+48GgAAIABJREFUeJztvXmcHEd5N/59enpmL2ktZFkgXzHEBLwyBCxCwNhgxweXbU4ZYo7wIcE2JCQB2wmQD8jiCL6weSEvBMj7I+EIxCLJCwEDxkayLckmr22OWOKwOXxpZcsW1nq1u7Mz3c/vj5nuqa6uqj6mZ6Znt76fjzTVVdVPfbv2eb5dXdUHMTMshh/nXnPr2GPN2SPJ53XEfBgxr/LhPIHAT2DgCWB+AhirQPQEgF1mngRQAZgAWgUAYL/KoBVtkz7AByC4B4MPAlgEgwl4jIEZgGeYMcPgGQfODBMfIPiP+Uz7CLzXB+8BVu3duumUhX73iUVvQFY0hgNnXH7DIS7T77HjP51ATwH4SPg43AeOIvDhAA4FgFaQcycJANLfmDlSGmZKtcIqrMhrbckVWNFcWGc/gGlmnibCNIAHwHwP+XyPX/V+sXXTxr0JXWBREljRKBlO/+iNh45UcAIYz4Dj/x6DnsY+ng7gSa0aLP1EohhxwYhstTd7JxhR85m4zoLpbpB/Dxj3AHQ3+fRD1FbdtXXTKU1YlAZWNAaIc6+5dWyuMfc8OHQiAycw8wYwfqdV2nUQphMMsCJLsiMJRtiyYkTRA67zIPoRgJsd+N95/OH9O27/zPkNWAwMVjT6iHO3bKnM/Wb1iUx0GnycCsIfAhjJFITtZDwIW4miBENgkF8wesN1BoxvEehLzsih19tRSP9hRaPHOHXzttEVE/4ZTPRKZpwD8JpyBCFSXJbIgtFuJS9XgVsRXJnxkEP0zw3iT+788MYH4ztZ9AJWNHqEs67adjyIzwfjTQBWRQbj8txApiCM55mCsGUrp2AMD9dFML7q+HzZTZe/7qdxAxZFwopGgSCAzrrqprOY8B7AP7FfQRjJ7eVKSfm5NsH4PLN/6fbLX78HFj2BFY2CcNbVW88BnE1gPiF1EEYqyEEoFLK0T5iXEISKvD4srZaB60EAmw//pXP1tddu9GBRKKxodImzr/n+EczOJ8F4VSsnfxACijN36iCMtdhTweg/106dDFx/7Pj01puveN2dsimL/HAGTWCYcfY12/6CfefnHcFAYhAqKnRKehmEUAXhMHE1C4aG6+/7Du886W+/emH8CCzywo40cuDca24dW+D6Z33GGyMF5V+ujLYbibOycIViMrQIrv4X6+OTF96+6ay5WIMWmWBFIyPOumz7E6jmfRfMf2Ae6suO3XbtvEEYFi+/pdXiuNJtzcriWT/4+zc/Gm/YIi3s5UkGvOyTP5ikmvedVIIhId/qg1zdvFyZOwh7zVXVjupc1XOu/LxKs3rLye/54tGK1i1SwopGSpy7ZUul0lz4TzA/1+zYiG0UuVypbCBiK5qZi6uina64Fra0WgjX4zy/svWF7/rSOljkghWNlFh4YO0H4fMfJTs2Z3TsWBF0QdgpVp3D8wShhqvEozuuqt0GzvUpTbdy/Ynv3rJaUdsiAXZOIwXOvmrbKSC6kcGCyOZ3bEBxNmRpnzBPFYQsVUkKwk6d0nFF9gfmCuR68+LMwdPtA3DZYEcaCdi8GQ4c+lhUMJAoGOqxdTur10GoabAQrqpWVMkeCUbBXF9YnVxxWdyShQlWNBJw++RNf8LMJ0Rz484vOzbHqsnD514EoSqrYK6s45pnabXPXGU7rR3f9fyLv/hqRSULDaxoGEAAsY+Lo7kdR2ZpW6iR1bEPAJBeh5dvubIPXOPt9oprvEZGrmoDElcC6NN/+L4vHBonaaGCFQ0DXn71TacAPNXJSePY6uG04Ng+wDeA+M89B7+3UK+Ofec9Z676znvOHGtyZQ2RczITrmTgN53dVZEuN7wEl1YjzefhKo+IFELVwlpn0blSwdRCATsRasDZH9v6BQa9qbUlO3Y0r7UlV5Ad27+B2Pmb695z+g+T2j518za3Wlv4U/JxKSh41V9gSw7MXqw+pA9CYagv0+oTV6GQpX3ScgXYYZy082Nv3AkLI6xoaHDuli2VufsO2wtgTQGO7RHz3133njMuz8rjJZu/u5qr/DUApyqH+qUJwliLPeUaNV8QV8INt131pjNgYYS9PNFg7v5D/xDAGgBdOTaAhu/QK/MIBgB8Z9OL9x/SePwlDHy1iIfQErgqjSybB+YYp//hu790crw1CxFWNHTwnZbzdLkESMBfffeS077ZDZVrN21cdFfyW0D4gdjugJcrhUQKwdBwjViUuEqmw42ecnX4ElgYYUVDB8KGeHRldWz+6nV/e/qni6Bz3TtfWvfYew2A2Y79eLv5uUqFrAvCPCsl+oxQ5lhRIy9XoSArV/L5pc+xt5gbYUVDCz4hemLO7NiLfoXfVySjG//urAeJ+WMDWa5sF+iCUDIWyZPHA8lc1SOkPj3c51Yc/83xQosAVjQUeM5n76iCcQyQ37EZ/r989+Izf100t9Fa82MMPB5pVxWEkbjKE4TyKEMhVOKW8kSf8yG0gXOl1yhqWLRhRUOBJ809dhSAitGxES8UHZsJW3rB7et/c87jAH0nbDdNECJeWOoH5gbNlf0TTnz3/7EPs2lgRUMBalaOTnRsyWmjvkmPHzJ/4Kae8SP+r0xBqAowSHnhT1IQKvZO9cDcUHGteH7lNAUBC1jRUMIHr22lcjv23ddu2rjYK34e+buSglA9BGlnyfwzBSFLVeKjg3gQyuf3IeBK9Nw4GwvAioYSRFjVlWODp3tGDoDfcKRvesS5SjETbvR9aVV1yVEKrqqsyD7HxXawAGBFQwlmHNKVY/s42EN6qE24jwsMNMPwWE4fHkJTZES0tkxc9WLGAAhsRUMDKxpK8HhkK/wvkqN3bMLaHpJDc8F7kjzg7zSvHiH1abkyakgWjF5zVbWj1Jg0XOloIpBi72UPKxoqMNxOMo9j+4f3lB/xERKddjIPV3l8rzgDi1u5glDDVdFOV1wLe2AOALP7zIu/GDl5WLRgRUMBJlSBNI4dK2on6Klnf+T7RyhqFQJifpF86i3NcqUyCDVcJR7dcVXt1h3XkTlvpYLRsocVDRUYlS6XAGmx0nx5z/j5/jlpgjAKLdf0QVjqpVWWqsRFNCtXb8RboSC37GFFQwm/9aPw57RLgA77byMUf038Rx/61gaANkQa65JrcUEon99Z4pWBq6oVVTIt11hWMteqV7FzGgpY0dBB4exZHJtBzznjsu+8tmhaDvgyhGJUzuXKcFvilYkr67j28V2kFkpY0UhEBscWChgAMV116uZvrimKyekf+tYbwTg9wiRvEEpcVQZ1QZjqgTn5SiYzVxUG9S5SCxFWNIzI6NhtbxOqHz1Sdf/z3M1bat0yOeND33g2mD/TMa0e+pdjuVI2k4erPMoY1LtILWRY0dAin2PLNhg4aaa68htnXH7DIXmZnPmhb7yA2fkOgPHQatFcC12uFJPDzNVCBSsaBhS1XMnAi8lv7njxh74lTGAm4zmfvaN62oe+9dc+O98HWjeMDcty5VLhahGHm1zFQva4XMuVPq9nx/l/L/7wt78C9q/+7vtffoeutRdfdf2EP998xSr4HwDjaR07aRw7D1eWqihHTKZmkC8Iy8FVPQSx0MGKhgY9Wq4kJpwHovPO+PB194H4BjDdx8BeB/4o+ziCCccBdBrAY2kdu4zLlWXjGrEocZVMhxt1mbwFACsaSrAfpqL5hTh2mHU0mN4KAAQGs3hXR3rHLu1yZV6usp0MXLVDjA6DWB0jV3uXhhJ2TkOLXjm2PuhyOfagucZrZOSqNqDjqubVypMlPpmreoSknHOxCGFFQwm/k8zt2AqzS+5JULn5PFzlEZFCqKK0cnBVNZ+Bq0UEVjRM6Mqx42fHXI6taGc4lisNZ20N/9gR9PqBuTRcLWKwoqFDasdW7VagY0sNDe9yJUs/Obj2+4E5CyWsaBhglyuTuaqHIO0smX/Pucoy2AVXCy2saGhglyvVdWSukulwo+9cYx3WJVcG7KKrGlY0kiA4VDbHVmUV79hFLa1qhxgdBrE6XXEVCgrhGtHaXnG1AKxopMSQLFcmcFXzauXJ44FkruoR0nAurabpV4sAVjRMkB27k6ndbOXZ5cpScVW0k5qrRQxWNHRIceazy5VDwlXikZqrhRJWNFTwgbhjR6v02rFVrXV+koJQsXe/lyuXBFcLFaxoKNG6IzTqbxH3VJyu7HLlUHJVtWIFwwgrGhpkduxYVryO7NiS6XBj6JcrC+OqyiqYK+u4WuXQwYqGAtGHXJMdWzvECFOyY8dMI5NjCwVZg1DJNXJiLhNXvUAUx1UFu+BqghUNHeLep3Vs+Rwbc+yYafVwekkuV8pcVe0oNaZfXOVRhpWLJNj3aSjgoXoZOQufTqyYcMMgCf9H8zUvaiCFUcM7HRaMBaod078ggtD8pA9+WTS3gCAcphUoe0OoElY0FLjhvac9CuDRQfMYJE5631dnwRQLsGF6YI5VCsPSPim5WnRgL08s9DBGUJ4gZKlKfHSgvrzRC0a8QvFcLaKwomGhhh/PGtQDcybB0MV3UVwt4rCiYZGApHkMdeRlEwxVlmKOIlEwMnCV7Si4WqhhRcPCgDQTn/F9sgrGQB7uYzNXCz2saFgYkXWlJDaJadgMGjBPfMYmNTCwB+YsAFjRsDBg2SytpnlgziJEKZdcz92ypTLzwGFPdhveUT45Rznwj/EJ42AaB/NIq5bhT+vHEu2kL+fGd0s8xfihAVbkqdGq6RtM+xqu0TzZYtKZ3Fen5KYiidDIc2IkUwdhGq5D9HCfDnsvuQTEx6arnBfEIP8xAAfBzl6w9wtU3J/jsCv29rZdPUohGi++6vq1VdTOZPDzwTgBdOgzK+yPMxEI3HnoNPxjyo4gJHTOQozWZ4nE6ixVSXLsWDOtlPCho7yOTZEiBVeKcs2/XEmRPajTXLRm2n5VBmFRXI0V+sTVBD4HwEkZdsgB8W/GADmA7wMPXfwQwDcCuBEV/9tYc810b3l0MDDReMU12471PbyRwS+vonoCg1uXSlQWZxns05WZucayho9rxKLEVTIdbvT6gbkS44kAnQfgPHiVJh66+NsA/xOeeP+3gGu9XjbcV9E4dfO20fEVeCMR3gLGiSCmmCOUxFkG+XRl6bnKdjJw1Q4xOgxidQbGdWjALoCzwTgbe4/8GXDRB/Ckq7/Wq4Pqi2ic+6ltK+bn8acTK3AJgCPCP1rkZFciZ+nL05V95BqvkZGr2oCOq5pXK0+W+GSuccHrC9ehgHjsYfrpgH8t9v7VbeB3vRXrrvlp0a32dPXk3C1bKudcc9M75ufxGwY+DuCIVklZnEVBugyOrWqnG66R5vNwZam6QqiitHJwVTU/IK5DAaVgCPn0PBDfib1/fRFAhX7Kumei8fKP3fzC+QfW3sk+/28GDu2UpHQWxAuLd5b4GSeXYxfNdaktV3azUtJvrkOBoPNYOCbu5AdpxiiYr8L0X27B9AXjRbVe+OXJcz57R3Xd7ON/5xC9Hz47uZ1FcoThfbqy3FyVJMOfHFxzr0CVgGvpIR4jq/Mj/RKKyGuAkaPx8F+fjbUff6hbFoWONM752Lanr3t89r8B2gSWBQMDdBaWqsTPYkuZq6JCp0Tm33Ousgx2wVXVSm6uZYfQL+bRRbuco/sBfwDP+x4e/Ath1J8PhYnGWR/fdjoT3QrCswbnLFIyrWPHsoaPa8SixFUyHW4s3RWopSQYggCoxUAo1+R3BOUZIFyPX11wSDeMChGNs6/ZdiH59G0Aq4BBOssQLFd2wVWhxDKDWJ2uuAoF2bnq+7F0XEsL8XhVYiCkY4IipMNNBoATMFq7Fji3kpdV16Jx9tU3vRtMn0YwPzJMzjKI5coErmperbxobhquccHLxJWHmKuqnWHSC1EMUl2OSPsFaVbt55+J6TWX5mXWlWicdfW2vwbwsTBjmJzFLleWi6uinZ6vQJUSQoBnm+yMp2PHHOmzv8OeC8/IwzC3aJxz9c0XEOiaDokhcha7XFk+rhKPnq9AlRJCX+Sb7BTKFflhOQMMAtPncd87npCVZS7ROOuam05m8Cc6fIbIWexy5TLgylKVsguGIADdT3ZG7cnpaEcdAZevyMo2s2icc9XNTybGfwCotdoeJmexy5VDyVXViio5tIIRJFVi0E5zUG4QA62gtPdVCQrzn+KBtz83C+NMonHu5t01Jv4PAGuCRofHWYZpuVLBNdZhZeGqyiqYK+u4DvtKSRALLHBVCINJDCLlOkFh9X4tEOB/PMut5plEY37lvktb92G0mx0mZzFwDWWOFTXychUKCuEa0doycdX/zYvjqsIwP4QmBHUvJzsjnWcUlOfjgT97VVr2qUXj7I/f9HwAf9Phk8JZ4jUG4yxlWNUZJq6qdpQa0y+uLFVX+F6UVokhdFDvJzsVtoOkLCj0/rSjjVSicermbS58fBZAJWgwlbNE/tYDcha7XJmd6zCvQCn7vgwQgre/k51xG2qxehYe/FPpM5xqpBKNFSudCwAc37JdUmeJM0jJlYefq8RjmFagolxZ+imAaykgHocqkNtpDsoNYqAVlPa+JkGJjS6ktI/3pDmaRNF41ce3rQL40qDRopwligKcJXEJcJi4xprpI1eWqsRFdHi4lgFiwGrEIOyvBEHRiQFk2wobSrGSBAU4Cff+2bOTjihRNDymSwCsyeMsigqdEtmBBuzY5eIq2emGq6oVVTIt11hWWbkOGrGAFPKldOR48gqKwYZWrIKkkHb8C7SHFFQxFb7iih0rmfEOk7Ooybe2Y8caBFW/HTvmsWXhqsoqmCvruA7Bw32ynQxcBwtBDEo12SnzUwkKvQEPvXnCdHRG0WC3cQGAVfG/o/RHizmL4lj75SwqriwWlYmrPuiK46rCkDzcx2aual6DhBC85ZzslPgpbaxAo/pK5eG1oRWNUzdvc5nor0qxBJjWWcrAVdWOUmMGt1zZM66RporhaiJXKr2IcNcGZDtuE8RAKyjtfU2Ckji6EPkpbLTK36A9TBhEY+VKvAQ+H2l2FsUxDcpZlv1y5TBxVe2n5topVkldWVRDDNiEgNSJQaRcJyis3i9MqvIlQYHBRtA++2dg71sPix9nC1rR8JnelOwsUYGwy5Wq3SxXLcnwJwfXUgwz5IAU86V0RDDyCorBRpbJTlXbEUGBi0XvxdBAKRov++S3JwE+W0W6dM5ilytLw1VRoVMi8y+U6wARBly4EU3HAlIhBlrBaItBWK4RA6VvCGJmEhRd24SXKo4WgEY0qDH2agBjsfbFjFI4i12u7DfXiEWJa8z/gr9pT7n2Dn610jTX4KpWDMIfjRiE/acQmiBtEoNAUFT7iYIR20/HL9b2i3WvBFSLBpOgMuV1FrtcaeAq28nAVaHEMoNYnYFx7SFGuT6TUGVl60cKSAaGYLJTypf541DcO6Z8ZD4mGudu2VIB+LSIgdBsiZylL8uVfeQar5GRq9qAjquaVysvmpuGa1zw+sK1x9jv+LPmGjypDEidGETKdYKiCeQwqcqXBEUnBuGPwUaEn6+8RImJxsF71zwHwKHlcRYF6zI4tqqdbrhGms/DlaXqCqGK0srBVdX8gLj2GAws3P2Jd9YTqkVHGpFjUQhDKkEx2Ch0slO2LfMHAFI+wBYTDSKcltpZEC8s3lnkwLTLlfH91Fw7xSqpy8OVy8G1DyDgV8YKuzfXAF6pD0h00rGAVIgBK/JDEypBEdJ5JztFfiqRA5+A6fPWyIcen9NgvCC1s0gHMkxLgMPEVUky/MnBtdQrUAlc+wXCz43lqw88FYCjD8h24JnEINKnGhu9nOyM8FPaICzg+ZAQEQ0CCMBzo7v2y1lYqiLbLZNjF89VUaFTIvPvOVdZBrvgqmolN9f+gRi/MNfg45bAZKeBf7sOxUUj8gHol1yx9ffgYE1vnUVKpnXsWFY/HLtYrhGLEteYfwVB1VOuqqyCuXJxXPsJBt1mruEfJ9aOpE1iEelPg6CkKtfU0bafVK7iRydCQmSkUanQ89Q7t7aLcZYhWK7sgmtcpKR9YlwVf8MsXIWC7Fz1/Vg6rv2FX3MatxhrMJ7RYisGZB7BkGyYBIOhEQyh7cJHP/gDbDs1MriIiAb7eF7pnGUQy5UJXNW8WnnR3DRc44KXiSsPMVdVOwPXCwDAj3/wD3/+qL6YCOBTOtuqgFSIQSwgVQEr5Yd/FIMYhD9JYmUSFJ1Y8TiecvjvC5nSRCjxiaVyFrtcWS6uinZ6vgI1CDB93Vi+553PAnBYGHgmMYj8jVVBLQesIt3byU4FP8mGx5FLlFA0XnHFjpUA1ss27XKlSurycOXh5yrx6PkK1IDAFfqKsYJDndsSTAE5LJOdOsELJ0M5MhkaXqssuovPdXyulMJZ7HLlMuDKUpVyCAaAH/zoH95mXjlh72VgglYsIn1oEJRU5Zo6WrFKKk/DTyrn6ApKONIgz99QDmexy5Vy4XBzlZLlFgwQ4VPGCtN/8TtgelG2gORounSTnUJaPfo5Bve+Zl2w0RENouOVByDBLlcauMY6rEuuXFwQDtUK1IBAwP1OM+HSxKc3A9yOG4UYKAMySCoDspMe2GSnwE/ZNgOohl9W7EyE+u3vmgzSWQyOzZ3G4jXychUKCuEa0doycdULRHFcVSjfQ2gmMOjy2z9zfsNYiYJX4akCVpEflpsCElCPLiCVG2ykEhTE91Pyk9sG0PTDQYUDtJ9sJTw9rDYIZynDEuAwcVW1o9SYfnFlqbpCqKK0Sga6Z9at/5Oxyt53vhTA06LHKgasRgxMgsIwC0qkXGEj3MUgBkp+Mn8dv/Z+TudKxAWAhfsOeyrgjw3dEuAwcVW0s2xXoJR9P1gQ6C8Tn2r1/fd1NhKCDYDx7B0p19SJ9ROnLE/DLwt/AMzRkYbn8/qhXAIcJq4Sj2FagYpyZemnAK6DBuNrd37qbd821tnzjtMBnBTsED9AjqYHNtnZbpsV+4XtJwhGhF+wH08Fb/JqzWmw94zo/gaP7sZZEpcA8zt2/7nGmukjV5aqyHaHieuAwXig4tPbkyvSB8wBGSSTAtIgBuGPSgzaaZMYKMVMwU/Zto5fuOMofo1jgbZoMNHxKh/p/3KlTDXq2IoKA+Qq2emGq6oVVTIt11hWWbkOHL4P/pPbP3P+I8Za0+84D+CTzQHJKQPSYGPQk52Jo5/WZGh7pNGaBBUrD/1yZWFcVVkFc2Ud1yF4uE+2k4Hr4EEX/fjTF37fWGX/X07Cx5WdY9KIgUlQIgGpEYMyTHYq+Yltt+Y1gjtCjxYr2eVKcRd90BXHVYUhebiPzVzVvAYPAq6+81Pnfzyx4lzz70E4XBlsAIxn70i5pk6sv3QBq7FhEoPE8jT8Inkt0XjVx7etArCyb85ilysV5liqvsQf7hswGPTFHz1x+pLEig/++akgXBgL5CBtCsjSi4GCUxI/5mMAwFmsN4/qm7Ms++XKYeKq2k/NtVOskrqSqQbjUz9+4vRbeNMm31jv4bc9EfC/DHAl2LFjI0kwWMiX00D876wSDION1IKhsaGf7FTwE+viKABwGc6RgG+XKy1XNcnwJwfXcg0zmJg23fnp8z+UXHWzg4b7JQDt5y3yBKymTu7LFV37WdrW2U7d9lrc87IRFw4fFf2D98BZ7HJlabgqKnRKZP6Fch0oHoWPN9/5j+dfl6r2gw9dCeD0/AFZsBjkFqsiBEVsnwmee7gL9o9kJoWBXjq2ZKcbx1a1okqm5RrLGj6uEYsS15hvBH/TnnIdKLZVPPqT2z9z/n2pau+58GKA3q0OuCwBK6S1AZlXUCQbuQRFbD8Df3KOdJmd9pxGb5zFLlcauMp2MnBVKLHMIFZnYFwHg/0AvfdHnz7/c6qBrhJ7LvxjMC5PHZClFwMFp674MUB0lAPitb1zbH3Qlc6xh2m5sgwrUGm59h8zYPpIY9F96g8/df5nMwjG68D4Z4T3LiUJBgv5chqK/lEFpMFGasHQ2Mg92ckGfgDAR7rweQLC1Uk+Z5F3QjkcW9VON1wjzefhylJ1hVBFaeXgqmp+QFz7CALuZ6b/45H3iZ98+u2/zbTzngvfAcYnATjZAlZTZ7gnO/W2W79HuiCMR+vncRY5MO1yZXw/NddOsUrq8nDlcnDtBwgPgfk7hMqXfvjEPd9PXEaNGyA8cOEmEDYByBiQBYtBbrEqQlDE9hP5P8kFMJ7eWRBB4Y4tNWSXK01cY82Uh2tvsB+EnxPop8z4H6+CG//nH86/K/XlR8zaX05i/sJ/AvFGAMIxZAlYIa0NuLyCItnIJShi+0UJCo23RANpnYWlKvLfq0yOXTxXRYVOicw/mesjDOwG8FOH8DMfvNfxnVl2eBbsPR5eMgZofzMzRCNSFEu1qshGlDuptxvRgmix2KL5RVd54TH5PvGBMcc/sN/xZ5XvuvhkTuMPnv8sgLYAdGxiQJZeDBScuuKXWD7hgjFhlyvVdWSusf4PBCAd130AthHTDX7Vuf7Wj77+N7DoL+64oIon0rtBzqUARvt3djaVG+oUOvopQlAAwJ9wGTwW32cIliu74BoXKWmfGFdF/6bj+jhAW3wHn//B5X+8I/dQ2qJ77Hn7C/Ak+kcAxxdzhi9CUMT8vGKgsNGVWCWVC5cnYmH2INQLBAv/SzUyBqEKpV2u3E1EV836zWt/fOWbDgIALlMegEWvcf8FvwuHPgDgTQCofMN9KV2OyU4Tvwk3zGkbiwWUYbNtJF0QRuIqcxDG8uJkJBa5uKqaz8R1F4OvOPI31S9fe+1GT8HAol/Y+/Zj4PF74dBbEbwCwk52puCX2Pa4C2Ae3Hk0Xk0w2IzXyRWE8j7x5qT91ILRKVZJXR6unIsrAXsBvnjHlef9q70EGSDuuKCKwysvh4+3AvxShO+LSQjI0ouBglNX/LLwj/GbcMFYAHhlpJocb8pMu1zZaoi/1Kg03/WDv3/zo7hcUcWit5i+YBxN52RU8DI8yXk9fPkO5wGenTMFZFkERbIXLx91AZ6LZEmNKINQcQ7CmV4QAAAgAElEQVROCkJFhU6JTCyTYOThKstgHq7+fQ7RG2657Lzt8VoWPcEdF1RxuHss4EzBb04BdApQeQEcHlGeTbs+wxchKBKn1G3rbPdMDNLy81wQFqJilyIIY1nxOnIQxo4xEADNmbxnS6sxJcjD1b/Rc+kNOz7yxw/J1rPh3Ar2Hflk+DQFwrEA1gK0Ej6tgIOxxN1LB+GGTF+huEF5vIPVNphHQFgJpknAX43D3SPBqII9tO4VKcvZOUvA6vgVIShi+3kFRWxf2XbTZca8iog6CCU7UkZ4/mZFjbSCwZJgCAXZBEPDVez37Fx9Yv/9O64876O55y72/c2z4PlngnA6cPRJQFscRGsU51V+BB1bsMOLD15xlw7fFb+8giLZyCUoYvtd9G8xfdN0QbTQOivI0aMKwhI8hBaP6n5xbQJ8/vYrzvs8rog3Z8RDl6wF8ZvAeCuAqdjdl0ONvAGZV1AMNkwBWXoxUHDqil8W/jp+yvJFl5gPxsJLEYN9WK6MB7NKIHrJVdFO2/4csb9x+xXnpXvzU4A9Fx2FCi4G6HwwRjPtOxQos8OL7WcJWF37eQVFbL8sgiLZy9a/My4zTyNWVQqgHi5XRo2oBaNTHGNRLFeJR0cw8JLtV5x3i4K5Go+9axXqzodQofMB1FLvNzTI6/BieiAOr+BXhKBInFK3rbNd4r5hOuAy6EESwy9xuTJ/EEqGpZ8kwVDs3fulVY99vHHHla9PLxgPXXI2qPIpAEem3meo0A+HB8p3ds7LX2NjWEc/5M+4BP9BgNRBiGW9tMoAvW3nla/7z3ipAo/87Up43ucAvE6pkUsChjNQpFyTH6RLJShiugjByysoYvtd9G+v+wb8W9chetBj2VirUm+WK6M2Svwu0g/uuPx1n481pML0xU+Hg68BWJ+q/tAhr9PlFRSDDVNAll4MFJy64pdXbDU20vBnTLs+/AfBiul8VRCKxxYLQsUxmwSDJcEQCrIKhuk+kXxceesRv3ZTfB8DwN53vwiO8w0Ak6nqDx3K7PBi+1kCVtd+XkER2y+LoEj2CutfnnYri/Rg00UUZVhaVbWj1JjCuT5Ucb03XHvtHyc/cPbQRWeBnGuBYbwRKwl5HV5Ml83hs/LXtb+s+2bancfY3irmPQCVwIg5CBW8YoGZRjBYqi4LBCs243UK58r05ps/8sZpJOGhi84C6D8AVBPrDh364fBA+c7OeflrbCzF0Y9DDzhbN53SBLA3MJIchBxtN1ZBFgwVL7VgKPsgXopecSXGv+644nXXK5hHsffiPwDoq1jSgsGIOkwewTDYSO3QGhsxfjJ/nW028JP5G2xo+cn8dfxM/ZsgGKzjL9g23wpuEDwWyhU2PO+e4MLkZ2A+IhbnOYPQZKS07yIlzABI/pL4Q5c8GYTrAEwk1h0qZHV4U7kmP0jH/gYZAtYoBnnalmwYy5Hx2PvcN1p+efnHbDQx//i9rQ/DEN8VD0IpmKUgVESpgle0sMzvImXgfdsvf/2eeA0Rm12AvwxgjbnesEF1BpLPNCyVC/sF6XAXjQ3tGTJIJgmGgpPMPzEgDTZSB6TGRqbRj6Z/dX2TSvAMfRPhr+OX2L/3YsPtDRcA2OPdIIobURJubcf+Pu2NVCslQp1sgqHKKoKrf9/MWPVzscZk7J39KAjPT6w3NMjiUJr8TAFrsJE6YHX88vLXtW/7Jt4+fgq032zkO7jL4Xglju+kbiOLYAgFWQUj1dJqvEYiV4Lz0bs2bVxUkOzg4YtOBNFFxjpDhWFxeAWnrvhl4a/jV4SgiO3n7V+x/T70L+EnQPu7lY47sitkmBiEsogkCUbMQGBFczDKZpF6aTXSfCqu09XxhX9WtCjg3Ap8+gfEvw4ypBDPQKLD5BEMg41MDq9I28lO9X5heULf5J3sDMulfN//EdAWje/97ekHCPygIu7iQYh44VAurXby/9fWTW9ZkHMj2Ps7bwfh2cY6QwE5IMV8Kd2NwysDUhaUoh1eEiuToKQKSM1xxfhp+qbbuR9d2wE/1XGl+tvJbSts6Pqm4nRGGq12aHfUFEd5xqJUF4TxOjJR5d8jXhoQSyEY6bgqWmsSnC8qCjv4zeZREL/PWGco0EeHVzpdkEwKyLwOL/DTiYFSzBT8lG3r+Mn8od7PGJAyfx0/WVA0/as6ru779zE8bevdgCAaYN5VQBAKP2kEg6Uqst0ePzAHfDdxxWR05k8BrDPWKTXyOjykur10eJGfwUYvRz+DGO7LfaPsX5Gf5riU/HX8NDZi/CQbzDsB9oHwFe8AE+6MGIiRQgyDWlqNWJS4xv4ugVipuDI+DyPOrYCOvthcp8xIIwam8nY6UQxM5UghBgpOXfHLwl/HLy9/Xft5+1dsf4D9S3RrkBOKhud7t1Ucp9sg1AhGKT+duFibcL8bb1jAviPPAHCMsU5pETiEdXh9+0UIXhf9W2jfiOke9A3zzmArvDzZuumcewBE3q6dXTBUKMX7PVVcb926aeOsknIA33mzsbyUYKR3aKEuFOnMTie1PdTDfUj8dfw0NmL8JBtlnewU+Xf2W8BkIxxpdOY0WuX/3UlmDsJYXjy4JSlQqUzelZKsXJlvVLTewSN/uxLgVxjrlA59dHil0wXJXjm8wC+9wxv4GQRFJ1Yxfpr+1fVNIj9ZUNL2r8gvoW9M/av82/q34Mid80GVqGgQ3daqrg727lZKYlIgEUdKwWCpqXxcmfj7ihodeM0XATRurFMa5HV4SHVL7vARfhobMX5S3wz16MfUv2zgL/BTHZfIT7Uf0feEDETepMG+f1t4+5KSvHwQwU+SYCj2lqM6JhixZqAVjOxcmRfwP4rKwm7OqSCVvbIhjRiYytvpRDEwlSOFGCg4dcUvC38dv7z8de3n7V+x/RL2L3t60XAnRn7QnKs3wZBfyxMf6mcSDJaqyMHYq08nark+eNsn3jAT3zNi5VRzeRkQHJh1eH37RQheF/07TJOdan73Yv2OHwmF0cuT71585kEwdss7931pNaYEccGI9VUGrtR+8EaPzS6ozO/7ZKR3aKEuFOlcZyDB9lAP9yHx1/HT2Ijxk2wM12Snmh/h/0KCI2cQcJu4c6qlVaEgm2BIfDvGRQaxOpkEQ8HVZ75bQb6DR2aegtJ+r6SPDq90uiDZK4cX+HXr8Mq2dfwkG6a+0fKT+ev4yYKStn9Ffgl9Y+rfVGIbpr8OCTHRYML25CCUd2r9pxMMyVgkL5qrEIxYUzKB7Fwd4LdxMgI852nG8oEgr8NDqltyh4/w09hI6/C6vin16MfUv2zgL/BTHZfIT9d20H4A4n3YV4198yc2d1FhvtGL7KsKwmhePDQlKVDoRe6lVUU7Wbn6rbd06UF8hEKvBog0YmAqb6cTxcBUjhRioODUFb8s/HX88vLXtZ+3f8X2h6R/GdfilK1NSIiNNK7fdM4egOLX/JrAjIVmr5dWJR55loEBelyxVwc+rTSW9xXBcUtnjFyCYbCRyeEV6aU83E8SjCzDfV3fDGT0I/OX8/1/hQIx0Wjt5t8QOygIgRvmyYIh20E8qvu7tKrkyj7Md4KCV5jL+wE5IMV8KW0nOw38TILCBv46fpKNpTDZGdsPAHAvjr/1ViigEQ18I59gsFRFDu4eL62qWlElWTk+ETDom7pUAdkjh1c6XZDslcML/Ap3eJmfwYapb7T8ZP46frKgpO1fkV9C35j6N/fopw3ClxUBDEAjGsAh2wA80qGSFITRArVgqLLioiILRqxfArFS/cFYx1WepC0rTAGJaFrrMEPg8BF+Ghu5HF7om6U++lEdl8hP13bQvtK2AOKvqAs0orF10ylNEP4rFoRCQ1kFQzXqiPh/TDAUf7dEwVAhYVWnNOjG4UWHgeI4i3R4kV9Oh4/wUzi8SVCGcrgv8zPYMPWNlp9gI5OgaGPhRzhux126Qs1IA4CPf4uZbBPmeKZ2s5XXr6VVlqoncC0NunX4drovDq9x1hi/IhxestfT0Y/MX2Hb1L+lHf3I/GUbSnzBVKgVjRc5P/oeg++L8pMFghWb8TpmwUBsI+tDaDrBMHEtB+SAFPOltJ3sNPAzCQob+Ov4STaW7mSnCnMg/19MFbSisWnTJt8B/qXTvhSackwqM3u1tKquk5ZrOaAKyB45vNLpgmSvHF7gV7jDy/wMNkx9o+Un89fxkwUlbf+K/BL6xtS/3U52KkFfxtTO/aYa+ssTAOzg/wPDUwdhJOzlqIYQ/ohWzC4YJiO5VnWQ/EH43sEUkIimtQ4zBA4f4aexkcvhhb5Z6qMf1XGJ/HRtB+0rbSfAoX9MrGIq3Lrplb9h4N8jzaYVjFiWFMySYCgURd41VljUqk7/0I3Diw6D2LEV6/Aiv5wOH+GncHiToAzlcF/mZ7Bh6hstP8FGJkHJ5O/bcdzNdyZVMooGAJDvXZk1CPu+tCrbycC1f+jW4dvpvji8xllj/IpweMnekpns1PRNeSY7FeD/naZWomhs/fBrbmfgxtRBmGZpNV4jo2CoDegEQ82rX5ADUsyX0nay08DPJChs4K/jJ9kofLJT5q+zLf9tdfw0xxXjx1Kd1JgGHfiPNBUTRQMACPzeWNSpeKVdWo1ogKwCaQSDpeoKoYrSGhBUAdkjh1c6XZDM6vCSDa3DC/wKd3iZn8GGqW+0/GT+BhtLbrJTAeKrMHWX+XvGbaQSjW0ffPX/Q3tuAwg4SgT7sLSqMNDZJ0pOtqgw2EuYAhLRtNZh8jq8ZGOQk52FDvel4woDLqFvTP2be7iv46/jp7GRSawUNvJOdsbxEObriROgAVKJBgAw+H0AFpRBWODSqtxq9CdJMBR7ywrEDF/RUnHoxuFFh0HkGGM2hmGyU9d2wE91XKnESm5bYcPUN8qA1fEz9K9qPyU/Tf/qxCqzoHQlGABwGTbcPpe2cmrRuOlDr7mbGR8pYmlVUaFTIndWJsFgqUoKroWiW4dvp/vi8IagLtzhJXt2slPDjw38ZP6yjdz4FUYmP51lh9SiAQBOdfVlBPy4k9OHTyd29ogVZRMMZVZBkAMywiSatpOdBn4mQWEDfx0/yYad7IzDcS7CsdfVM+2SpfLWTac0faa3Amg1EuMtBW5MMBT9ahIMlgRDKMgqGL1TDFVA9sjhlU4XJLM6vGRD6/ACv8IdXuZnsGHqGy0/mb/BxnKY7Izjehx3c+zFwUnIJBoAcPNHXn0ngd+deqUkUkMWkSTBiBkIrES2o3XUglG8ZJgCEtG01mHyOrxkw052avixgZ/MX8fP1L9s4C/w0/VN7G+nsFHcZKeMg/Dp7Xl2zCwaALDtw6/9FDOE5+1lwUBso1Sfeez6LvJuHF50GCiOK43Diw4t76fjl9PhI/yKcHiJv1as5LYVNhIDUnNcMX6G/lXtp+Sn6V9d20p+pv4tVDAAwkV4xi2/yrNrLtEAgP0j/BYAN6oFIyoQZfzMY3506/Aij147vCGoUzu8xoaRn87hkwRF5NdF/9rJTjMI/4ap7Z/Ju3tu0bhr08bFSs19LTPuAlIIhrETWPpJEgzF3oql1VhLXfW/HJAqo2kcniPHpLQRO9C8Dq+w0TOHF/lpjkvJX8dPYyPGT7Ix1JOdur4pEISfo9Y8vxsTuUUDALZueuVjfsM9zQd+2Mph6ThlwRBKNArQv3eRZoEqIHvk8Eqnix5DNN/k8JINrcML/HI7vMjPICi6tmP8NP2r6xslP5OgpO1fkV9C35j6N7fYFopp+PxyHHtbwidJzehKNABgx5WvenjMx6kAbpEFI9aHgQCoOodVgiElUwmGKkvOSDupYQpIybbWYfI6vGTDTnZq+LGBn8xfx8/Uv2zgL/DT9U3sb6ew0bvJThGPgnAGjt/xy24NdS0aAPC9yzYeWDm74gwAnwjyuhIMoSCrYKhGHZG4Tv1H6cbhRYeJc0/n8KJDy/vp+OV0+Ai/Ihxe4q8VK7lthY3EgNQcV4yfoX9V+yn5afpX17aSn6l/eyUY9ADY+SNMbd9VhLVCRAMArvvES+u3fPTcvwLznzB4NptgSGj/ITieqd0MGojtk0sw/NBePocX2+61wxuCOrXDa2wY+ekcPklQRH5d9K+d7EyLH6LpPQ/H3/yTogwWJhoBbrnsdV+Az09jwhdbOWkEI5oXFwhWbMbrmAUj3rwRdrJTfVwhP81xKfnr+GlsxPhJNuxkZxowwJ+FN3Eyfn/ng0Uajn3LtQhsv/z1ewC8+eS/+bdr2cEHmfHsWCWNiMRkRNYGZWb2B+bSIYtDyW0YAlZnGzA4vKk8K78s/HXtZ+Gv41eW/hXbH0TfFI6fwHf+Es+4+aZeGC98pCHilite980dl79+AwhnAbgp7LXQP9IIBktV5M7O88BcGhR1BlJxyHIGyurwOhsJgmEnO1MIhqF/yyEYPwPRG7B+x7N7JRhAj0YaIlqDgNd/C8C3nv/erx7j+PwGAK9l8DMRiJasHWEihWDEsiThiQlGmj9Y8PB8kljI9nUObyqHwaFU7WcRM137Wfjr+OXlr7DRVf+K7Q9T/xaGR0H8dcD5PKZu2d6LBmT0XDRE3PrR1/8GwEcAfOTEd29ZjWrzhfD9EwH6PYCfyuDfBWgknWBA8TeIi4osGAyAUrHN4jBLyeEle10Lnu2beJ3ceASEu8G4G8CPQLwVUzt/AnBvXxEjoa+iIWLn1Rv3A/i/7X8hTnz3ljEAY000VpktaJ7mlRWB4ptz9fmHU5EsZP5AzC/L2TmNw/vvRKVyHWKoR36SQZq0jIW0BgVzJtv1tGcHjY0ErpnpZibT3s1pgP1Z/GzdDDZeO8hvb4QYmGjosPPqjfMA5gEYP9jSU/gAqOjhaJJgFCEoYvvdnuGdh3H0l3M90GTRAzxj0AQ6KJ1olAPSnIaYLvNwP4lfpuF+KU5qFiWEFQ0t+i0Gkj1jeRp+RYx+LCzisKKhhI/ONWhRw/005Zo6hQuKZE9ZbmGhhhUNLQqYPyj9ZGcCPwsLBaxo6NCT4X4RgiK238PRj4WFBlY0tBjgGb5vk50G25RzidBiycOKhhLSnEbwO0gx6Nlkp6ac+W349WtPgwhfth0paP/o7jPSjWKE+sp7lFLsF2nfsF+MXwLXZvP9eOaOdPf0LCNY0dCi4OF+KSc7jfxOB5PQfoq2iREXW2ToG1LXSewbzX5KfmIdgrFvqu5VAKxoSLCikYiE+YNhn+wcptFP3/vXQgUrGlosAYcv3einCEER2+9x39h5HSWsaChR8jN8oWIgppfS6KcIQbFQwYqGCqZnT+xwPyN/XfvDNPqxEGFFIxFldnjJXi/P8EMnBpK93H1jIcOKhhZlOTv3WAxy8VtKox87usgKKxpKiPcOlNnhxfbLcoYvQlDE9gfRNxYmWNHQYsBneDvZmYJfEYIi17FIghUNHUxOZ4f7KfkN0+jHIi2saGgxTA5f0Bl+6MRAsmdHF32BFQ0lxGcS+nF27rEY5OK3lEY/dnRRJKxoaFEWhxfbL8sZvsDRz8D6xiIvrGgkYWgmO4sQA8leKUY/RQiKXMeiG1jR0MEO91PyK4vgpeFvUQSsaKjAijkNMT0Qhy/oDD90YhCmHwF4AoyxfPwsikJPv+U6/BCdv+3QzNAGRVikOcOzOOTWjB5MQc0sBbWOn8aGsm2Jn67toH3VcUXEKo9gCPxbaQ/gb4NwARzvKeDDRnDc1sNw3LZxLNIT4PMLQLgc4F/q+VvB6BXsSEMJxZu7jA5vKm+nh+4MX+DoJ1vbN8BxLsLTbvgJVHjW1scA7Gz9o/dh90mvAeNKAL8Tt23RC9iRhhG6M2gGwdCOLnSjB7ltIN3oosSjn0TBYADcBPDnOO77Z2gFIwb2MXXLFrj8DBC+ZQWjP7CioYUYkEJerFzMl4KmPMN9DT/NcSn56/gZbJj6JiooC3CcM3Hc9z+FPHja9sfxsPtKAF/Itb9FJljR0CG1wxvO8JF8k6BozvBRMtG0afRjHF3AMLpgqVzXNgz8RbE19I3Ij/nP8LQbtqIbnLK1iYWFPwPxTV3ZsUiEFQ0lfKR2+EgdNgRkkEwKyIQzfCRgNfyMowvDyCVoX3VcPRv94HOY2vplFIENtzeA2usBzBRiz0IJKxpGpBldSGf4yH5Sun/DfbWNnox+TKMLqW/i/A6C+QMoElNb9wK4qlCbFhFY0dBCChpTQC7ryU5T2wI/dd98rh3kxYKq1wB4vHC7FgCsaKjBaASJeECazs6Ip+1kp6ZtAA59Db3A1NZZAN/p2g4tNrons/RgRUONx/UBiU46FpAmQdGc4UV7cnopTXZG6jDA/AietvVW9Az0za5NNNwDBRBZcrA3d6nA3B7a6hxezpPSQ/kgVxb+OtsZ+BN+AfV3GIsBeT8Dd3VOZDzq2kscBaxoqMDY1/mEQd6AzCsoYn5eQTHY6EZQChMrBoDi5zJENP09qHQhGkQzOGVrszhCSwdWNFRg/LR1F3mZxUCyN2yjH8Y8egnXmYtQyArmXxTGZYnBzmmo4B3yc7Rua0b7+hthOkSas7MYkHkEo70fC2nZdipB0eyXSzAUNnKNfviJ6CWIDu/Swq5CeCxBWNFQ4dhP1AHsNjh8J20nOw38dfwAAEegl/C5O/tEdxXEZMnBioYW/F2Dw6cIyIQzfCRgFTYSRxdlHP3I/A02mJ+OH5/YQ+GgU7vb37+xGB5LD1Y0tOBvJwdkqYb7Qnme0Y9pdNGT0Q+hWnk5egbnnC52nsbUzh8XRmWJwYqGDo+s2A7gobjDJ5ydl+ednR1+uraD9sX9fP8CgAhF46cveCHAx+U3QN+UlNVCgBUNHTZ8pgHmfwq37WSnpm0dvxSCQnQC7nrBuSgavvPRrvYn75+SKy1fWNEwwefPgLhpJzsR3y8szzv6aYNwJe56XnErKXeddCHAJ+ben3AHpnb+d2F8liCsaJjwu1+5Hxy82CXrcF8MSGm/IF3YcF/M7/XoR+ZvsKHsmxiOArlbsPv4mq5Cauw++SQQ/ldXNnzqbv9lACsaSajg/QAfbG2UdbifdvRjGl30Y/SjxcnAqm/iR6euSlNZibtOOgPM/wWgG/H5MY7fXsy7PZYwrGgk4aiv7AHTVb0b7iNad6lNdqYF4wxUG7di98l/mH4nAPe8bAS7T3ovCNcByC86LbwLvXweZomA2E4SJ2P3uTWM4TYwnt3JzDrcN5W304nDfVM5cox+0vLXtZ+Gf2YwCNeC+WNYv/N26aA6uOd5k6i7rwLwAQBP6aZBAADxFzG1481d21kGsKKRFve8dj0c53YAo9ozvJwXpFMH+zCJQRp+3YIeAPgGMN0L+A+BaBTAUQCeDuCPAIwU0wx+jVrzWTj2NvuawBSwopEFv37tG8H0BQCUfbhvKjfUKcNj7Fp+hY0uBolFsH8qjt+5c9BEhgV2TiMLnvy1L4HwYf0ZXkrnOsPr5g/SCobQdrkmO8sIBuhtVjCywY40MoMIv3zNZwB+WyeviLNzltFD3tGF2H7Rl1NDCML7MLW9uxvBliGsaOQCEX756k8A+Iv+DPfzXo7kFRSDjeEfXbTBl2P9jvcMmsUwwopGbhDhl6+6HMAl+c/OZReDNPyGDgzgIqzffs2giQwrrGh0i1+9+q3w+dMACzcVFRGQeQVFYaMno5+hxCzAb8H6Hf8+aCLDDCsaReCXr3gBmP4VwNH9OcMXIQai7SU/ugDAd4PoVZjabt/I1SXs6kkR+N2v74BTeyaIv9LKYCzbOzvLCOIvgmonWMEoBnakUTTuPuc8AFcDeGK24X7Z5zeGEvfBwdtx3PbrBk1kKcGKRi9w31lPQN25DOA/g/jxjVKKwZK8HFkA+Cos1D+KDbfPDZrMUoMVjV7i5694Jir+ZWB+qZ3s7At8EH8ZTXcTnnnTrwdNZqnCikY/8LOzT4Hjvx/gP+pk2snOwkDwAPw7gA/aeYvew4pGP/GLlzwXcN4D8DkAKvbOzq5xEMDn4dM1eMYtvxo0meUCKxqDwM/PPBxw3gTwOwE6ojzzG8MC+imAfwF5n8PUzv2DZrPcYEVjkLjjOVWsPPR0gM4F+68EsMpOdmpxD4CvwXG24Lib7xw0meUMKxplwT0vG0HTOxPkbwTjFQAm7WQnfgOibwDYgqntOyTFsxgQrGiUEQ+cOIbZiReC+TQQnwbGswA4y2Cycw7AzQCuB+F6O6lZTljRGAb87PRD4XungnAagNMAPLVVMPSTnXMAfgDgFhDfhNohO3DsdfVBk7Iww4rGMOKuFx0Ft/Jc+P4JAG8AsAHAmpJPdvog3A3mO0G4HR5uxWL9dmy4vTFoYhbZYEVjqeCnL/gdeO4GODgBzM8A81NAOAbgFQNgsxfAboB/BsZd4MpujC3+0L6Dc2nAisZSxw9feBhq3jEg5xj4fAwcejJ8fx1AqwGsBmE1gDEQJsGoGCz9FoQ5MM8Bzj6AHwHwMMB7wdiDCt0Lxr1oTvwGz/zuwf4cnMUgYEXDIop7njeJ+WpLPGa9BTx/5/yAGVmUDFY0LCwsMsG+T8PCwiITrGhYWFhkghUNCwuLTLCiYWFhkQlWNCwsLDLBioaFhUUmWNGwsLDIBCsaFhYWmWBFw8LCIhOsaFhYWGSCFQ0LC4tMsKJhYWGRCVY0LCwsMsGKhoWFRSZY0bCwsMgEKxoWFhaZYEXDwsIiE6xoWFhYZIIVDQsLi0xwB03AIh+IiACAmbF582aSy3ft2hXmbdy4EQCwe/fuWL0iMTU1xQCwZcuWSP769esjL6LdtGkTt+mD7Utqhw72xcIlg0oMAgHYuHGjMvDXrVsXyZueno5sT01NYe/evUbB2L9/fypBWb16tdFhnvSkJ/Hu3btlfpF9pqenYzampqY4EBtRZC699NLWF2yto5YGVjQGACIilSisX78+EriBGIgisHr16jCtCvQDBw7QUUcdFcmbmZlRCY0yPwsmJyd5enpamS9u33///TjkkENijiYK0P79+8N0IDKyuOzatYuBjqgEI1rodG4AABASSURBVBYrKP2FFY0eIhg1XHrppaE4yKMFWRgCUZAFYXJykoCoAExMTITpgwcPEgAcdthhEQ6zs7MRO2vWrInULwITExP8yCOPRPJWrFgRcax9+/aFdQXOYToQmpmZmch+gbAEoqISlGCUYsWkP7CiUSCIiHQCkUYcZGEIROHgwYMkikEgBGNjY+G+c3NzEREYGRlRisLCwgIBwCGHHNLl0bZw4MABAMDo6KjSker1eiR/fHw83J6fn2cgKjD79u0LhSUYyagEJY2Y7Nq1iwMhsZc5xcGKRheQRUK8vFi3bh3pBCKNOMzOztKaNWvCEUEgCrIYBNuBGLTtR7YDVKtV7eiiXq+nGnmMjIxoHabRaCjLFhcXw/xAXGQxCbZ1opJFTEQhMYmIFZB8sKKRAeJchGokIYqEPILQCUSSOCwsLFAwKlhYWCBZEEQhEANflT8xMRE7psXFxVyXKbVaLeY4Bw+2PuEqCsvs7Gy4LeaLAjM6OsozMzNh+sCBA6G4BOlATIJLoWB0Mjc3x+22Q0FJIyLiJY29nMkGKxoJSCMUppFEIBLj4+MEtEYQwWWFTiBkcQgEIAj+er1OK1a0PgZfr9cpEINAAMbHxyNi4LpumE4SifHxcWX+3NycsZ9EEWk2myznz83NhWlRXFSiEghKICaykMijkvn5eQ5EJBiRqEREvKTRjUKsgCTDioYGuksP3YhCHk2oRhKySIhiUavVCABWrlyJhYUFCgRCFIyJiQksLi6SKAqBIIhiIItGpVIJ041GI5gPCY8162hDFIj5+db3oavVapjneV5ENETBCfYNhCUor9VqLIpJIByykASXOqOjoxyIhygi4kgkEBDxciZJQMQRiL2EUaNy6aWXDppDqUAtOIcddphzyimn0L59+5y1a9fSunXraHZ21qnVas7Y2BjNz8878/PzNDk5SfV63XFd16nVarRq1SqnWq0SM1OlUnEajYYzNzdHjuM4ruvSxMSE02w2ncnJSWo0Gg4z0+joqNNsNh1mJt/3nYWFBWd8fJyq1So1m02nUqk41WqVKpWK47ou1et1J7DPzKFtZnbGx8edRqNRISIn+Oc4TphmZmd0dNRB625gp9lshnVHR0edarWq/ef7vkNEju/7juM4BCDMr1QqJLQRpn3fd8bGxsjzPKdWq1E7j4jIGRkZofn5eYeIHNd1qVKpULVapZGREfI8zxkdHaW5uTmnUqmQ53nEzDQ2NkaTk5Oo1+tUqVQcz/PC0Rwz08MPP+y4rkuu64Zi7bouzc3Nkeu61Gg0aHJyEvfee29wwqRarUbz8/O0bt06/PrXv8batWtpamoKAGj37t106qmnwsZJB1Y02gjE4pRTTqGpqSkiItq3b19MLPbv30979+511q5dG4pFo9FwVq1aRfV63QkCudFoOLJQACDHccIAC4TCcRyn2Ww64+Pj1Gw2nZGRkVAUfN93gmBpNpuOKBCjo6MUlAd2G42GMzIyQoI4VIjIGRsbc6rVakRAPM+rjIyMOK7rOq7rhkKCtpj4vh8RiKCe67pOW8yoHfDOyMgIVatVx/M8x3EcZ2RkhHzfd9ojpXazHcEIhMJxHHJdl3zfp5GREVpcXAz6gDzPo2q1Sp7n0ejoKC0uLlKlUqHf/va3TqVSoVqthkBAJiYmqF6vh/M/zEwzMzM0Pj4OZg7ndALxcBwHk5OTGBkZocceewyw4pEa9vIEnUuRLJchpksQ8fJDnJ8QLzWq1SqpLjlc1yX50qMtBjQ2NhZeSlQqFWo2mzQyMoLgt9Fo0OjoaHgJ0g72SHmbF4J8AKjVapFtHVzXDS4RItv1eh1A6xKlXq+H+b7vc5C/sLCAIM913bBecClTq9V4fn4e1Wo1zBMvYZrNJsuXMsFljOoSRr58kec/xLkP+bIluKtVvGwR5zwALOugsaIBUDDJKQuGOMEZ3GmpEoyxsbHIfIU4oRnMVQQikVYsgnkIMV8UikBIZJEQBSIQlFqtFgqCKCSBWKi2VVhcXAwFQd4OBMJ1XQ7y6/V6REiC/EBExDLP87QCIopFICSBiMjiMTo6yo8//ng4iVqv11mcSB0fH2dZOHRzHvJ8h50sbWFZX560L0kKEYyFhQWamJgIRhk0Pj5OzEztuYiYYLQvMcLLFM/zyHVdajabTq1WC9Oe5wXX+rH5gfaw2/E8L5xLcF3XqVarREROo9FwqtUqBb+u6zqO45Dv++GlDVqXDpVKpRK5PKlWq05weRTkVSqVsB0AzsjICLXzwl8ADhHR4uJi0CYBoGCep315Qu2gC+cigr4CgGazCcdxqFqtIignIjQaDbTrAQCq1Spc18X8/DzVajUsLi6iXq+H6fblE0ZHR+G6LlzXpYWFBYyPj2N8fBwjIyN47LHHiJmxZs0aPProo8F8Cebn52n16tXYt28f1q1bh9nZWaxdu5Z27dqF3bt3Y+vWrX3z07Jh2T4aL66OBE+B7tmzJzI8Dy5J0owwgpFFsK/pciQYPahGF2NjY2F5pVIJ/zWbTXIcJ9z2PC+cgAzyx8bGKBCFQBjEeYi2AFRc13WYudKeYA1/q9VqhYhcInKbzabbbDbdYDsoZ+ZKsA8zVwKbvu+HbbiuG4pSMCcScB0bG4vkVyoVGh0dhXhswb+gjxqNBlUqlUCAIiOz9pxR2MdB/wfp4NIw+NssLCzQ3NwcHTx4kGZnZ+mwww7DwYMHKek5nOCO3o0bN2LXrl20efNmCh4TWG5YtqIRYNeuXRTcd7FhwwaIowyg9QBYko1gDkO+JAFagiHeXLW4uEjyEqd4b4QoJEDnksRxnPBSpNlsRi5DgknBoF5wqeE4DgX/giANRgVikFcqFcdxHIeZK67rVsbGxiL/XNetuK5baU/COu1VnDBNrSWasI3gn8gBiF4+BWnHcSKXWc1mM7w0A1oCIS4Py/ecBP9E4RBvcpNvmxdvnw+ewwnuwg0e4gvuswFa81niA4O9fr3AMGDZi0YS5CdGAwQOlwYrVqww3qad4z4JAAjnLYDoJGbS3ERQp9lsUrVahed5wUoFxG0xv9lsUvsSKtYe0LpUkCHWSZpkVUEUCyDeT7ob0bJAfqBPRNrXBSw3WNFA5+UxQOtWY/ExbfmpywDiU53BQ1u6h7eCSbqDBw+iVquxfAu2eAdlcLNUgGCiUJw8DFYgfN8PJxKDicjFxcVwUtL3/UjdxcVFMDP7vs/NZtN3HMdnZnYcx/c8z/c8z282mx4zN5vNpiemicjzPM/3fT/cp9lsBpvcaDQgt6VKBxOkYl0ACI4tOGaxL4Jfue+CydBgW7wpLA3Em8AAIJgMvf/++wF0VlLS2lsuWLaiwcy8adMmXr9+ffjyF9XLYURMTk5y8NDUihUreGJigsfHxzkQidHRURafoxCXA8XbpcWVgMDpa7Uae57H4oqB53ksriz4vh8RDt/32XEc3/d99jyPHcfxR0dH/UAU2vVDgajVap4oEJ7n+Y1Gw2s0Gh4AL0g3Gg3P9/2m7/tNMU+sI9oIBCT4XVhYYMdx/IWFBfZ9n0dHR/12uywLWXC8wa94zEDr7lLdKopqVQWIiodu+VV8RF9MA4i8+yNh6XVZYlm/7i9YNtu8eTN27dqF9evX0/T0NK9btw7T09NYvXo19u/fTzMzMzw5OYnp6Wlat24dz8zMYHx8nBYWFjh47mNubg4jIyPUXuLDwsICarUatYUDANBoNMLfZrOJZrMJILxUCLcdx+H25YDMlx3HofYdphgbG+NGo0Ft8aD5+XlqB0xsuVVMB5cvi4uLYZqZY/dtiJDvzRCXW+fm5uC6Lge/juOEo4B6vQ5xFNJoNNhxHFQqFW40Gmg0GizuS0TseV4oBMzMnueh2Wxys9mMCEaz2eRGowHHcSK3nacRjGCUIT7wlrTk2h6Rsug7Xbjf0GJZiwa31/KShAMA9u/fj8nJSRw8eDB84Kq9ksLz8/MYHx+PPNRVr9cxOjrKwUSc4zjcnqQLRaPRaKBWq7HjOCQEMLfT7HleOFFYq9V4cXGRPM/j4B6NdnCS4zjkeR6L92wEk4qO44R5AOC6rigWFIgB0Jl3EPNEBPdaiF0obDMzo9FooFqtcnt5lJvNJlzX5ZGRkcgNXsElTdsmExEqlQovLi4G92+EotO+LEGz2WTHcbgtqhBFIxCLRqMhigWIKHaPRqVS4fn5eTiOk/oejampKd69e7d9rB725q4QurtCAYQrKqq7QoH4E6xpb/QS06qbvQBE8lQ3fAGdB9KClRagcxPX6OgogM6DauJIQ5ycDEZDYt0A4sNowXxDm0ds1BHUDwRCvIFLvgsUQOTSQrwEEct0d4K2ecdGFoFIiGIxMTHBCwsLscfpVWLR/tvHLkmWu1gEWNYjDRHtUUdwuULi27yDUQcAbosHAHClUqH2Eh3PzMzQ/Pw8VqxYwUQUPP7ORET1ep2CS4uFhQVaXFzkQECCJcn2HZB04MABmpiYYN/3ETybsbCwgPaDaoE4hDdGVSoVYuZwKdL3/eAXlUqF5ufnw9vI28dJ9XodIyMjcF03FIggyFWQL5MAxCYtg2Cq1+uR27+DSczFxUWMjIzEbhVnZg5s1Go1bs+HRJ5+PXDgQLAvO46DYLTRPn4+ePAgRkdHmYjC0UW9Xsfq1avDkcXCwkJMLADwzMyM8tbx6enpUCyuvfbaZX0HqAw70lBAfodGmpEHgNgNYIB69CH+yiMQoPPeDHEUAkRHHUD8sXixTH4cPli+TFrelesFE7Xyqo4MsZ7qMXnVI/KBKIhpoPW+jaIfjxeEAmlHFsv9dnEdrGgkQLxsSfOmrrwv4FGJCKAWkmBbJyaA+cU7wf0Ned/aFUB8wY4qH4i/kEclDkBHEOTtNs+YSMhv9NK9iEclFKoH0ux7NNLDikZKBLcMZxEQQP9yHgDGF/SI6WAy1SQmYp6YL77iT35Rj5yXBSrBEMVC9eo/UQhU4iC+qat9DOJcSjiSANQioZrUBOwr/4qGFY2c0L3ZC0gWESA6EinihcKqlwmrXiSsuzM1yA9eIyhjdnY2aFfrMHKZfKOV/C5QoDNiEHhExEF+J6j4gmHVSAKIi8Qdd9yBww8/PHLpAdhVkLywolEQkkQEQOS5lryfLhAFBYh+ukD12QLxxcTBtu4YJicnjccYBLwKYuDLQqDKF986Ln43RScObX5KgQA6r+0D7GcMeg0rGj2COJkKmIUESP+RJPHLaKoPJInPUsgCI0L+TkpeiMEvQv6Akvxtk6AOEP1SWzcfTRK/wGYvN3oHKxp9hDgvAuT7HKPqISrxqUwg+hU20+cXu/3Kmnz7tcAn9rlG8VONqud5AlEQvwWb9vOMdgTRX1jRKAlkQQH0ogJEP/osf/BZfLQ/QL+e2FR9IFp8ABCIfhDa9DFo+yHocsKKxhAhEBbxsgfoiAvQeaFQmvc+7NmzhzZs2JCLizi5mATxi/BA9KvwwWUEYAVhWGBFYxlA94Yp8W8vipAJ4tOduhdX2eBf2vj/AdH4FD9SXHAPAAAAAElFTkSuQmCC;" vertex="1" parent="1">
                    <mxGeometry x="620" y="210" width="24.75" height="30" as="geometry"/>
                </mxCell>
            </root>
        </mxGraphModel>
    </diagram>
</mxfile>